<svg xmlns="http://www.w3.org/2000/svg" width="140.008" height="97.425" viewBox="0 0 140.008 97.425">
  <path id="Path_10722" data-name="Path 10722" d="M50.229,0,32.189,18.04,14.149,0,0,14.149l18.04,18.04L0,50.229,14.149,64.378l18.04-18.04,18.04,18.04L64.377,50.229l-18.04-18.04,18.04-18.04Z" transform="matrix(0.946, 0.326, -0.326, 0.946, 20.959, 15.595)" fill="#656d8e"/>
  <path id="Path_10723" data-name="Path 10723" d="M50.229,0,32.189,18.04,14.149,0,0,14.149l18.04,18.04L0,50.229,14.149,64.377l18.04-18.04,18.04,18.04L64.377,50.229l-18.04-18.04,18.04-18.04Z" transform="matrix(0.946, 0.326, -0.326, 0.946, 23.203, 1.907)" fill="none" stroke="#5cffc4" stroke-linecap="round" stroke-linejoin="round" stroke-width="3"/>
  <path id="Path_10726" data-name="Path 10726" d="M-1168.254,909.216h-6.992v-7.024a1.773,1.773,0,0,0-1.772-1.773,1.773,1.773,0,0,0-1.773,1.773v7.024h-6.794a1.772,1.772,0,0,0-1.773,1.772,1.773,1.773,0,0,0,1.773,1.773h6.794v7.024a1.773,1.773,0,0,0,1.773,1.773,1.773,1.773,0,0,0,1.772-1.773v-7.024h6.992a1.773,1.773,0,0,0,1.772-1.773A1.772,1.772,0,0,0-1168.254,909.216Z" transform="translate(1444.576 -612.878) rotate(11)" fill="#5cffc4"/>
  <path id="Path_10727" data-name="Path 10727" d="M505.863,49.168l-4.193-2.421a.945.945,0,0,0-.943,0l-4.193,2.421a.946.946,0,0,0-.472.817v4.841a.946.946,0,0,0,.472.817l4.193,2.421a.945.945,0,0,0,.943,0l4.193-2.421a.946.946,0,0,0,.472-.817V49.984A.946.946,0,0,0,505.863,49.168Z" transform="translate(-348.128 -103.662) rotate(11)" fill="#f0f1f6"/>
  <path id="Path_10725" data-name="Path 10725" d="M505.373,48.628l-4.193-2.421a.983.983,0,0,0-.981,0l-4.193,2.421a.983.983,0,0,0-.49.849v4.841a.983.983,0,0,0,.49.849l4.193,2.421a.983.983,0,0,0,.981,0l4.193-2.421a.983.983,0,0,0,.49-.849V49.477A.983.983,0,0,0,505.373,48.628Zm.453,5.691a.946.946,0,0,1-.472.817l-4.193,2.421a.945.945,0,0,1-.943,0l-4.193-2.421a.946.946,0,0,1-.472-.817V49.477a.946.946,0,0,1,.472-.817l4.193-2.421a.945.945,0,0,1,.943,0l4.193,2.421a.946.946,0,0,1,.472.817Z" transform="translate(-392.593 -84.134) rotate(11)" fill="#f0f1f6"/>
</svg>
