<svg xmlns="http://www.w3.org/2000/svg" width="252.98" height="217.464" viewBox="0 0 252.98 217.464">
  <g id="Group_3404" data-name="Group 3404" transform="translate(-10830.147 -14148.259)">
    <circle id="Elipse_235" data-name="Elipse 235" cx="57.349" cy="57.349" r="57.349" transform="translate(10859.658 14190.589)" fill="#c1c5db"/>
    <g id="Grupo_1393" data-name="Grupo 1393" transform="translate(10886.996 14170.022)">
      <path id="Trazado_7295" data-name="Trazado 7295" d="M1576.785,1961.962a4.5,4.5,0,0,1-5.772-2.263c-1.15-2.122-2.344-4.249-3.533-6.39a107.649,107.649,0,0,0,20.378,34.68q-.06-.449-.083-.9-.315-.553-.6-1.115c-1.851-3.619-2.805-8.584-.094-12.062a7.64,7.64,0,0,1,3.511-2.5c-.016-.107-.032-.214-.043-.323a8.846,8.846,0,0,1,.29-3.521q-.918-1.235-1.851-2.459a4.134,4.134,0,0,1-3.06-3.456c-.025-.164-.041-.328-.063-.492-1.689-2.061-3.436-4.075-5.279-6.011a3.947,3.947,0,0,1-.868-3.609,4.234,4.234,0,0,1-1.282-1.049q-.347-.424-.674-.859a5.123,5.123,0,0,1-.551,2.19c.66,1.434,1.282,2.885,1.843,4.368A4.46,4.46,0,0,1,1576.785,1961.962Z" transform="translate(-1553.471 -1807.771)" fill="#fff"/>
      <path id="Trazado_7296" data-name="Trazado 7296" d="M1714.384,1613.867c-6.312-2.962-7.9-10.337-10.431-16.2-1.56-3.621-3.749-8.59-3.7-13.073-1.172-2.4-2.335-4.8-3.611-7.145-.461-.849-.978-1.774-1.48-2.75-3.93-2.067-6.038-6.035-8.168-9.793a3.229,3.229,0,0,1-.984-.927,41.026,41.026,0,0,1-4.427-8.643,37.5,37.5,0,0,1-1.3-4.134c-1.032-.958-2.094-1.934-3.162-2.935-1.6-1.365-3.17-2.756-4.727-4.127a72.843,72.843,0,0,1-5.87-5.626l-.071-.045a48.178,48.178,0,0,1-9.032-7.437,12.161,12.161,0,0,1-1.928-1.057,18.878,18.878,0,0,1-5.567-6.56c-1.9,2.683-4.238,5.042-6.408,7.57q-1.371,1.6-2.736,3.2c-2.281,4.083-5.317,7.57-8.252,11.235-2.647,3.306-4.726,7.106-7.741,10.092-2.057,3.738-4.125,7.465-6.519,11-1.094,3.253-2.45,6.408-3.718,9.614-.122.564-.238,1.122-.345,1.668-.285,1.46-.544,2.927-.792,4.395a4.826,4.826,0,0,1,.107,1.348c-.278,4.345-1.092,8.7-1.592,13.048a81.033,81.033,0,0,1,.731,10.818c1.584,6.393,2.858,12.853,3.973,19.342a46.422,46.422,0,0,1,1.162,7.085c.007.1.008.19.01.285.027.1.051.2.077.3.226.341.455.681.679,1.023a53.356,53.356,0,0,1,5.726,10.561,5.224,5.224,0,0,1,.281,1.137c1.453,1.667,2.819,3.41,4.124,5.2a5.1,5.1,0,0,1,.479.809,4.3,4.3,0,0,1,2.566,1.52c.042.053.084.111.125.169a4.5,4.5,0,0,1,1.024,1.373,4.181,4.181,0,0,1,.212,2.758,4.241,4.241,0,0,1-1.014,1.925c-.032.265-.069.528-.116.792a4.316,4.316,0,0,1,0,.859c-.013.131-.03.262-.044.393a3.612,3.612,0,0,1,.816.242c5.686,2.457,11.356,4.952,17.079,7.321.588.187,1.179.369,1.774.543a31.723,31.723,0,0,0,14.644,1.126q.887-.16,1.762-.373c.248-.06.495-.125.741-.19l.312-.095c1.121-.377,2.228-.78,3.313-1.255s2.147-1.005,3.185-1.576q.7-.384,1.384-.8c.027-.026.967-.627,1.07-.7a84.154,84.154,0,0,0,8.356-6.466q.738-3.747,1.38-7.512a4.467,4.467,0,0,1,4.817-3.9,4.135,4.135,0,0,1,3.358,2.371,4.882,4.882,0,0,1,.607.275c.68-1.14,1.381-2.269,2.124-3.368,1.165-1.725,2.525-3.637,4.409-4.606,2.693-4.611,5.492-9.156,8.563-13.534a33.422,33.422,0,0,1,.763-4.839c.708-3.244,1.587-6.455,2.482-9.652.027-.127.054-.253.081-.38q.152-.711.3-1.421A3.476,3.476,0,0,1,1714.384,1613.867Z" transform="translate(-1583.842 -1516.56)" fill="#fff"/>
      <path id="Trazado_7297" data-name="Trazado 7297" d="M1951.266,2024.327a31.516,31.516,0,0,1-6.466,7.894,3.955,3.955,0,0,1-1.546.812c-.435,1.037-.885,2.067-1.34,3.091-1.017,2.287-2.093,4.559-3.243,6.791a95.9,95.9,0,0,0,16.222-20.5A9.378,9.378,0,0,1,1951.266,2024.327Z" transform="translate(-1807.086 -1857.503)" fill="#fff"/>
      <g id="Grupo_1306" data-name="Grupo 1306">
        <path id="Trazado_7298" data-name="Trazado 7298" d="M1687.613,1943.436c0-.015,0-.031.006-.047C1687.564,1943.375,1687.577,1943.4,1687.613,1943.436Z" transform="translate(-1635.531 -1803.504)" fill="#d2ceed"/>
        <path id="Trazado_7299" data-name="Trazado 7299" d="M1687.664,1943.548c0,.016,0,.034-.008.051a1.116,1.116,0,0,1,.216.317C1687.977,1943.828,1687.749,1943.638,1687.664,1943.548Z" transform="translate(-1635.582 -1803.616)" fill="#d2ceed"/>
        <path id="Trazado_7300" data-name="Trazado 7300" d="M1717.091,1884.137a.175.175,0,0,0-.237-.018.15.15,0,0,0-.158-.031l-.02-.024a.155.155,0,0,0-.158-.053l-.032-.044a.2.2,0,0,0-.218-.08l-.148-.176a.161.161,0,0,0-.209-.034l-.021-.017a.212.212,0,0,0-.1-.042c-.064-.073-.125-.144-.193-.212a.181.181,0,0,0-.1-.051l-.109-.117a.184.184,0,0,0-.207-.038,7.962,7.962,0,0,0-.636-.528c-.2-.145-.384.183-.19.326a7.2,7.2,0,0,1,.709.6.185.185,0,0,0,.188.044l.129.137a.17.17,0,0,0,.1.055,2.893,2.893,0,0,1,.224.285.181.181,0,0,0,.217.077.166.166,0,0,0,.158.047l.135.161a.158.158,0,0,0,.169.052l.09.123a.208.208,0,0,0,.21.077c.035.044.072.086.107.13a.149.149,0,0,0,.2.042l.069.079a.172.172,0,0,0,.24.016l.167.187a.186.186,0,0,0,.251.007c.043.051.088.1.13.155a.148.148,0,0,0,.205.039l.013-.01.1.112a.171.171,0,0,0,.241.015.212.212,0,0,0,.023-.025c.032.037.067.072.1.108a.16.16,0,0,0,.192.044l.047.053a.178.178,0,0,0,.241.015l.008.007a.168.168,0,0,0,.1.045l.008.01a.158.158,0,0,0,.183.048l.051.053a.2.2,0,0,0,.277-.014.183.183,0,0,0,.024-.032l.017,0c.04.046.083.088.123.136a.157.157,0,0,0,.173.05l.013.014a.176.176,0,0,0,.248.013.166.166,0,0,0,.032-.039.21.21,0,0,0,.129-.036l.1.111a.172.172,0,0,0,.242.015.179.179,0,0,0,.032-.036.208.208,0,0,0,.182,0c.037.037.076.073.112.111a.174.174,0,0,0,.209.031c.044.043.085.086.128.127a.175.175,0,0,0,.166.045l.009.01a.164.164,0,0,0,.218.029.16.16,0,0,0,.13.006.17.17,0,0,0,.131.048l.028.037a.2.2,0,0,0,.282.041l.012-.01a.2.2,0,0,0,.152-.038.166.166,0,0,0,.146.024l0,0a.226.226,0,0,0,.2.032l.005,0a.161.161,0,0,0,.194-.007l.032.022a.165.165,0,0,0,.2-.008,1.157,1.157,0,0,0,.222.086.173.173,0,0,0,.12-.01.653.653,0,0,0,.223.049c.243.017.241-.361,0-.378l-.135-.075a.179.179,0,0,0-.252-.006h0a.706.706,0,0,1-.2-.141.184.184,0,0,0-.237-.019l-.025-.018a.164.164,0,0,0-.19,0,.153.153,0,0,0-.122-.018c-.04-.041-.079-.081-.116-.127a.155.155,0,0,0-.155-.054l-.026-.028a.192.192,0,0,0-.268,0,1.327,1.327,0,0,1-.352-.07.165.165,0,0,0-.1-.014l-.042-.047a.174.174,0,0,0-.2-.038l-.009-.01a.153.153,0,0,0-.212-.033l-.011-.011a.2.2,0,0,0-.219-.032c-.072-.063-.145-.127-.222-.19a.194.194,0,0,0-.235-.017.187.187,0,0,0-.216-.021l-.241-.253a.168.168,0,0,0-.237-.018.17.17,0,0,0-.028.031l-.011-.022a.178.178,0,0,0-.241-.069l-.018.011-.044-.058a.222.222,0,0,0-.308-.032h0a.179.179,0,0,0-.238-.017.182.182,0,0,0-.121-.057l-.016-.019a.164.164,0,0,0-.207-.032.177.177,0,0,0-.169-.042c-.022-.026-.046-.052-.069-.078a.165.165,0,0,0-.226-.023c-.016-.015-.032-.03-.046-.045a.188.188,0,0,0-.244-.013l-.054-.058a.168.168,0,0,0-.215-.03c-.013-.013-.024-.027-.038-.039a.2.2,0,0,0-.244-.014Zm6.671,2.194.005.047h-.008A.322.322,0,0,0,1723.762,1886.332Z" transform="translate(-1653.766 -1761.998)" fill="#d2ceed"/>
        <path id="Trazado_7301" data-name="Trazado 7301" d="M1679.031,1769.654l-.156.11a.858.858,0,0,0-.109-.045.817.817,0,0,0-.272-.032.523.523,0,0,0-.823-.1.529.529,0,0,0-.557.13l-.357.375a.978.978,0,0,0-.276-.038.853.853,0,0,0-.231.035,2.994,2.994,0,0,0-1.367-.028.632.632,0,0,0-.6.032.546.546,0,0,0-.606.019.5.5,0,0,0-.467.039.591.591,0,0,0-.545-.124.566.566,0,0,0-.409-.155.572.572,0,0,0-.809.023.611.611,0,0,0-.073.1l-.155.329a.535.535,0,0,0-.317.485,1.032,1.032,0,0,0,.119.5.538.538,0,0,0,.593.265c.018.011.037.021.056.029a3.44,3.44,0,0,0,1.1-.082l.01-.011a.535.535,0,0,0,.363.062.6.6,0,0,0,.752-.045l.023-.025a.583.583,0,0,0,.489-.032.522.522,0,0,0,.718-.044l.059-.059a.629.629,0,0,0,.3.012.613.613,0,0,0,.865.051.593.593,0,0,0,.094-.106c.012-.019.029-.032.041-.049a.539.539,0,0,0,.747-.027c.032-.035.066-.071.1-.106a.512.512,0,0,0,.562-.1.452.452,0,0,0,.574-.028.492.492,0,0,0,.585.017l.238-.168a.737.737,0,0,0,.246.03.578.578,0,0,0,.192-1.109.491.491,0,0,0-.681-.133Z" transform="translate(-1624.132 -1684.65)" fill="#d2ceed"/>
        <path id="Trazado_7302" data-name="Trazado 7302" d="M1793.577,1769.35a.678.678,0,0,0,.45-.061.623.623,0,0,0,.815-.072.462.462,0,0,0,.451-.046l.011-.007a.464.464,0,0,0,.453-.052c.029-.022.059-.038.088-.058a.657.657,0,0,0,.607.016l.032-.015a.6.6,0,0,0,.7.092.579.579,0,0,0,.2-.776.824.824,0,0,0-.936-.458.6.6,0,0,0-.545-.133c-.082.025-.163.056-.241.088a.462.462,0,0,0-.52.017l-.178.131a.831.831,0,0,0-.219-.014.582.582,0,0,0-.775-.063.544.544,0,0,0-.61,0,.427.427,0,0,0-.1-.04.8.8,0,0,0-.665.11.366.366,0,0,0-.032.027.564.564,0,0,0-.424,0,.558.558,0,0,0-.634-.063,1.1,1.1,0,0,1-.832-.063.562.562,0,0,0-1.054.38c.041.106.083.211.124.317a.581.581,0,0,0,.676.4c.023.009.056.022.11.041a1.171,1.171,0,0,0,.2.069,1.916,1.916,0,0,0,.462.06,1.659,1.659,0,0,0,.309-.032c.016.02.027.039.044.06a.567.567,0,0,0,.6.131.735.735,0,0,0,.206.088.771.771,0,0,0,.365-.009.554.554,0,0,0,.783.028l.015-.014Z" transform="translate(-1705.23 -1683.384)" fill="#d2ceed"/>
        <path id="Trazado_7303" data-name="Trazado 7303" d="M1728.508,1802.2a.543.543,0,0,0,.516.276l0,0c.005.009.007.02.013.029a.846.846,0,0,0,.9.448.786.786,0,0,0,.481-.254.6.6,0,0,0,.352-.977c-.063-.082-.13-.158-.2-.236a.519.519,0,0,0-.011-.258.069.069,0,0,1,0-.024.484.484,0,0,0,.412-.547.471.471,0,0,0-.032-.118q-.108-.262-.218-.524.017-.228.013-.455a.545.545,0,0,0,.007-.32.606.606,0,0,0,.04-.081,3.927,3.927,0,0,0,.017-2.322,21.121,21.121,0,0,0,.18-2.5.462.462,0,0,0,.111-.327.932.932,0,0,0-.112-.36v-.037a.545.545,0,0,0-.194-.412q-.024-.433-.048-.867a.557.557,0,0,0-1.05-.253.566.566,0,0,0-.417.683v0a3.247,3.247,0,0,1,.059.814.452.452,0,0,0-.044.272c0,.036.01.071.015.107-.054.455-.158.909-.236,1.356a7.165,7.165,0,0,0-.1,1.077.561.561,0,0,0-.058.42c.022.095.048.187.075.279,0,.053,0,.106.01.16a.548.548,0,0,0-.036.342l.024.107a.472.472,0,0,0-.208.594l.123.3a.561.561,0,0,0-.037.586,2.169,2.169,0,0,0,.131.209.561.561,0,0,0-.111.157.52.52,0,0,0-.222.7c.009.017.019.034.029.05.022.032.046.058.068.087a.5.5,0,0,0-.051.235.532.532,0,0,0-.072.491A.966.966,0,0,0,1728.508,1802.2Zm1.049-9.1-.02.015c.012-.019.018-.022.019-.015Z" transform="translate(-1663.419 -1699.925)" fill="#d2ceed"/>
        <path id="Trazado_7304" data-name="Trazado 7304" d="M1805.66,1860.173a.62.62,0,0,0-.268-.477c-.028-.12-.053-.24-.088-.358a.531.531,0,0,0-.388-.387,2.838,2.838,0,0,0-.415-.872,2.08,2.08,0,0,0-1.342-.929.655.655,0,0,0-.063-.041,1.549,1.549,0,0,0-.575-.606,1.157,1.157,0,0,0-1.561.394.539.539,0,0,0-.037.479.325.325,0,0,0,.012.067.581.581,0,0,0,.648.409c.04.018.077.038.114.058a.581.581,0,0,0,.57.356c.057.043.114.086.169.131a.937.937,0,0,0,.292.268c.057.057.112.117.165.178a3.11,3.11,0,0,0,.475,1.072.62.62,0,0,0,.33.243,4.279,4.279,0,0,1,.306,1.831.522.522,0,0,0,.194.42.583.583,0,0,0,1.026-.169l.014-.072a.551.551,0,0,0,.268-.336A4.581,4.581,0,0,0,1805.66,1860.173Zm-4-2.351.008-.006v0h0l0,.01c0,.017,0,.042-.011-.006Z" transform="translate(-1712.943 -1744.037)" fill="#d2ceed"/>
        <path id="Trazado_7305" data-name="Trazado 7305" d="M1674.763,1604.606c-2.344-.328-4.7-.627-7.067-.767a.7.7,0,0,0-.72-.829q-1.729.032-3.458.046a.849.849,0,0,0-.19-.025c-3.5-.05-6.988-.264-10.482-.422.047-.127.1-.25.142-.378.2-.561-.7-.7-1.006-.33a.56.56,0,0,0-.128-.056.571.571,0,0,0-.7.4c-.012.082-.032.16-.049.239a.436.436,0,0,0-.2.05l-.124-.005c-.006-.032-.011-.064-.016-.095a.572.572,0,0,0-.948-.25c-.082.075-.16.154-.237.234-.032-.121-.061-.243-.1-.362a.573.573,0,0,0-.24-.317c0-.016-.007-.032-.011-.047a.575.575,0,0,0-.948-.25,6.591,6.591,0,0,0-1,1q-.969-.01-1.94,0c-.259-.137-.517-.277-.771-.424a.991.991,0,0,0-.2,1.95c.236.018.472.028.709.041.125.063.251.122.377.182a9.36,9.36,0,0,0-1.5,1.859.622.622,0,0,0-.263.208,11.176,11.176,0,0,0-1.02,1.736.53.53,0,0,0-.436.159,6.193,6.193,0,0,0-.471.516.65.65,0,0,0-.54.263c-.095.134-.185.271-.272.409a.605.605,0,0,0-.852-.084l-.02.017a7.333,7.333,0,0,0-.538.6l-.011-.024a.571.571,0,0,0-.782-.2.577.577,0,0,0-.108.084,4.933,4.933,0,0,0-1.3,2.92,4.171,4.171,0,0,0,.005.815,8.545,8.545,0,0,0-.681,3.059,10.987,10.987,0,0,0-.623,1.232.557.557,0,0,0-.775-.137.537.537,0,0,0-.076.064,8.571,8.571,0,0,0-1.267,1.9.631.631,0,0,0-.554.144c-.033.032-.064.068-.1.1a.593.593,0,0,0-.324.152,5.147,5.147,0,0,0-1.011,5.863,6.735,6.735,0,0,0-.682,1.341.466.466,0,0,0-.353.268c-.143.3-.276.6-.408.9l-.048-.026a.561.561,0,0,0-.707.232c-.02.046-.037.091-.057.136h0v0a19.45,19.45,0,0,0-.883,2.493.593.593,0,0,0-.709.38,13.369,13.369,0,0,0-.538,3.841c-.044.155-.108.385-.151.54a.58.58,0,0,0-.066.268c-.013.195-.025.387-.037.582q-.515,2.724-1.241,5.4a.449.449,0,0,0-.307.176,2.448,2.448,0,0,0-.32,2.65.455.455,0,0,0,.295.251q.317,6.109.382,12.227c-.105.222-.776.887-.353,1.318.047,2.594-.225,3.317-.179,5.911-.733.875.455,1.887.8,2.047.009.165.022.33.033.495a.507.507,0,0,0-.7.517q.1,1.235.239,2.468l-.212.362a.453.453,0,0,0-.27.481c.007.049.015.1.022.15h0c0,.032.01.06.014.09q.167,1.2.395,2.4.233,1.346.5,2.688c-.028.314-.067.781-.095,1.1a.56.56,0,0,0,.032.525c.167.608.332,1.207.5,1.814q.1.744.188,1.487a.607.607,0,0,0,.475.52l.755,2.455a.565.565,0,0,0,.179.274c.117.552.238,1.1.367,1.654a.508.508,0,0,0,.757.345q.265.637.535,1.271a.474.474,0,0,0,.019.353l1.639,3.911a.6.6,0,0,0-.573.623.6.6,0,0,0,.058.232q2.536,5.193,5.563,10.124a.55.55,0,0,0,.985-.067l.475.785a.553.553,0,0,0,.855.127c.185.253.365.51.551.763a.605.605,0,0,0,.845.133h0c.1.12.214.237.322.356q.5.586,1.027,1.147a.572.572,0,0,0,.158.287q.926.942,1.894,1.841a.616.616,0,0,0-.145.018c-.233-.139-.488-.464-.677-.268-.06-.207-.152-.053-.211-.261a.57.57,0,0,0-1.114.151,34.088,34.088,0,0,0,.159,3.653,13.732,13.732,0,0,0,.068,3.633c-.167.4-.577.563-.406.969a1.056,1.056,0,0,0-.73.55c.109.443,1.226.521,1.6.533a3.561,3.561,0,0,1,1.5.317,1.121,1.121,0,0,0,.357.136.558.558,0,0,0,.645-.367,2.583,2.583,0,0,0,.086-.567c.01-.2.009-.4.008-.6-.015-.29-.03-.579-.043-.868-.042-.918-.045-1.837-.046-2.758a21.857,21.857,0,0,1,.007-3.017,5.292,5.292,0,0,1-.488-.487c-.008-.029-.013-.061-.021-.09a.456.456,0,0,0,.437.222c.263.235.53.466.8.7.114-.334.667-.27.586.095a5.134,5.134,0,0,0-.089.578.309.309,0,0,1,.042-.006.342.342,0,0,1,.088,0,.481.481,0,0,0-.037-.158c.058.049.115.1.174.149a.6.6,0,0,0,.917-.184c.344.314.688.628,1.041.931a.579.579,0,0,0,.362.146c.217.182.432.367.653.545a.552.552,0,0,0,.253.391l1.72,1.144a.5.5,0,0,0,.268.389l.824.368.127.089a.483.483,0,0,0,.141.095l.02.009q.731.461,1.5.858a.555.555,0,0,0,.53.014l1.527.656a.624.624,0,0,0,.641-.051l.625.224a1.127,1.127,0,0,0,.78.792,1.706,1.706,0,0,0,.794.036c.311-.053.634-.235.948-.14a.537.537,0,0,0,.3.007c.137.032.273.065.41.095.792.163,1.594.281,2.389.422.713.127,3.255-.472,2.528-.529a21.852,21.852,0,0,1-4.616-.986c-9.811-3.533-17.92-12.163-17.96-12.188-22.032-25.281-12.594-69.884-12.575-69.978,6.125-3.829,5.791-11.485,5.789-11.51,2.855-1.108,5.467-4.491,5.733-9.685a16.573,16.573,0,0,0,8.979-6.688,17.815,17.815,0,0,0,3.754.25c2.038-.085,4.048-.542,6.072-.779a38.067,38.067,0,0,1,6.37-.163c2.361.123,4.711.408,7.053.737a.782.782,0,0,0,.93-.528A.76.76,0,0,0,1674.763,1604.606Z" transform="translate(-1592.9 -1569.762)" fill="#d2ceed"/>
        <path id="Trazado_7306" data-name="Trazado 7306" d="M1714.5,1882.562a.289.289,0,0,0-.051.536.19.19,0,0,0,.258-.067.7.7,0,0,0,.09-.3h-.378a1.328,1.328,0,0,0,.167.548.19.19,0,0,0,.26.067.188.188,0,0,0,.037-.028.521.521,0,0,0,.19-.41l-.352.095.19.436c.069.156.3.1.345-.045a1.084,1.084,0,0,0,.044-.335l-.371.05.13.439a.19.19,0,0,0,.235.131.183.183,0,0,0,.043-.018.361.361,0,0,0,.2-.285h-.365a2.418,2.418,0,0,0,.417.678.19.19,0,0,0,.317-.083.88.88,0,0,0,.044-.561l-.364.1a2.038,2.038,0,0,0,.377.734c.112.143.309.009.323-.133l.027-.3h-.378c.007.352.108.807.552.8s.446-.422.289-.723c-.1-.194-.395-.057-.345.146a2.354,2.354,0,0,0,.242.614.19.19,0,0,0,.351-.095,1.126,1.126,0,0,0-.384-.871.19.19,0,0,0-.323.134.926.926,0,0,0,.274.691.19.19,0,0,0,.315-.183,1.189,1.189,0,0,0-.317-.517.19.19,0,0,0-.3.229,2.323,2.323,0,0,0,.752.91.19.19,0,0,0,.26-.069.21.21,0,0,0,.018-.043.921.921,0,0,0-.156-.792c-.119-.161-.412-.075-.345.146a1.677,1.677,0,0,0,.688.941.19.19,0,0,0,.285-.164,1.157,1.157,0,0,0-.634-1.11.191.191,0,0,0-.278.213.982.982,0,0,0,.7.785.19.19,0,0,0,.232-.135.2.2,0,0,0,.006-.047.706.706,0,0,0-.432-.7.192.192,0,0,0-.278.214c.081.41.459,1.024.953.995.539-.032.188-.652-.021-.847a.19.19,0,0,0-.317.184,1.428,1.428,0,0,0,.83,1.033.19.19,0,0,0,.26-.07.193.193,0,0,0,.025-.094,1.188,1.188,0,0,0-.453-.962.191.191,0,0,0-.317.184c.087.3.534,1.127.956.874.492-.3-.344-1.02-.585-1.172a.19.19,0,0,0-.277.214,1.669,1.669,0,0,0,.929,1.024.19.19,0,0,0,.259-.07.2.2,0,0,0,.018-.042.9.9,0,0,0-.436-.988c-.176-.106-.329.1-.258.258.256.588.6,1.172,1.307,1.214a.19.19,0,0,0,.188-.192.174.174,0,0,0-.006-.047,2.09,2.09,0,0,0-.513-.922c-.122-.13-.39.005-.317.184a1.481,1.481,0,0,0,1.085.923c.107.022.254-.053.239-.183a1.617,1.617,0,0,0-.44-.976.19.19,0,0,0-.317.184,1.43,1.43,0,0,0,1,1.014.19.19,0,0,0,.232-.232,1.243,1.243,0,0,0-.585-.722.19.19,0,0,0-.278.214c.109.443.526,1.221,1.1,1.092a.422.422,0,0,0,.337-.373c.011-.24-.214-.369-.3-.565l-.326.19a1.135,1.135,0,0,0,.885.552c.127.015.21-.132.183-.239a.746.746,0,0,0-.443-.528c-.158-.067-.369.081-.258.259a1.242,1.242,0,0,0,.946.6.19.19,0,0,0,.189-.191.191.191,0,0,0-.006-.048.752.752,0,0,0-.365-.444.19.19,0,0,0-.259.258,1.055,1.055,0,0,0,1.019.561c.13-.009.253-.158.163-.285l-.2-.285-.259.258c.233.143.667.555.969.364a.288.288,0,0,0,.091-.4.285.285,0,0,0-.109-.1c-.181-.095-.4.151-.228.3s.538.463.806.329a.275.275,0,0,0,.129-.366.27.27,0,0,0-.063-.085l-.23.3a.568.568,0,0,0,.387.115c.243-.007.244-.385,0-.378l-.2-.063c-.178-.127-.375.147-.229.3a.217.217,0,0,0-.124-.253,1,1,0,0,1-.214-.158l-.229.3-.057-.2-.192-.119-.321-.2c-.155-.095-.37.1-.259.258l.2.285.163-.285a.692.692,0,0,1-.693-.374l-.259.258.192.219.182-.239a.838.838,0,0,1-.62-.412l-.258.258a.422.422,0,0,1,.271.3l.182-.239a.729.729,0,0,1-.559-.365.19.19,0,0,0-.326.19c.052.114.417.464.047.332-.264-.1-.428-.535-.487-.776l-.278.213a.859.859,0,0,1,.412.5l.232-.232a1.038,1.038,0,0,1-.73-.75l-.317.184a1.194,1.194,0,0,1,.329.709l.24-.181a1.1,1.1,0,0,1-.82-.66l-.317.184a1.669,1.669,0,0,1,.416.755l.183-.239c-.55-.032-.792-.589-.982-1.028l-.258.259a.508.508,0,0,1,.263.561l.277-.113a1.319,1.319,0,0,1-.755-.8l-.277.213a1.516,1.516,0,0,1,.31.249c-.022-.024.3.439.346.259a3.508,3.508,0,0,1-.319-.3,1.128,1.128,0,0,1-.153-.343l-.317.184a.844.844,0,0,1,.343.7l.285-.163a1.094,1.094,0,0,1-.656-.808l-.317.184c.048.045.163.134.171.2-.011-.092-.141-.127-.2-.186a.967.967,0,0,1-.268-.532l-.277.213a.382.382,0,0,1,.244.372l.24-.182a.618.618,0,0,1-.433-.521l-.277.213a.783.783,0,0,1,.446.784l.285-.163a1.272,1.272,0,0,1-.515-.714l-.345.145a.583.583,0,0,1,.119.5l.278-.113a1.954,1.954,0,0,1-.617-.774l-.3.229a.793.793,0,0,1,.219.349l.317-.184a.532.532,0,0,1-.163-.423l-.323.134a.767.767,0,0,1,.273.6l.352-.1a2.025,2.025,0,0,1-.2-.524l-.345.146c-.1.043-.139.018-.124-.076a.877.877,0,0,1-.012-.19.19.19,0,0,0-.379,0l-.027.3.322-.134a1.546,1.546,0,0,1-.28-.568.19.19,0,0,0-.365.1.467.467,0,0,1-.044.36l.317-.084a1.827,1.827,0,0,1-.319-.511c-.06-.146-.336-.21-.365,0l-.029.06.278.113-.13-.438a.19.19,0,0,0-.371.05.475.475,0,0,1-.032.235l.345-.046-.19-.436c-.081-.186-.341-.072-.351.095l-.079.143.3.038a.688.688,0,0,1-.116-.357.19.19,0,0,0-.378,0l-.038.114.259-.067-.04.155c.222-.09.125-.455-.1-.364Z" transform="translate(-1653.782 -1761.935)" fill="#d2ceed"/>
        <path id="Trazado_7307" data-name="Trazado 7307" d="M1680.893,1649.538a4.722,4.722,0,0,0-.743-.993,19.119,19.119,0,0,0,1.536-9.239,18.852,18.852,0,0,0-3.806-9.807,19.42,19.42,0,0,0-1.606-1.842.585.585,0,0,0,.108-.15,16.256,16.256,0,0,0,1.6-8.606,13,13,0,0,0-3.091-6.633c-.071-.081-.149-.156-.222-.236a.592.592,0,0,0,.092-.11,14.924,14.924,0,0,0,2.185-9.718,12.259,12.259,0,0,0-4.388-7.367,13.042,13.042,0,0,0-1.335-.941c2.876-1.894,4.013-6.888,3.624-9.853a13.472,13.472,0,0,0-4.564-8.473,6.741,6.741,0,0,0,.188-1.6c0-.08.006-.156.007-.226a16.246,16.246,0,0,0-4.483-11.595,15.361,15.361,0,0,0-2.663-2.211l0-.007s-.507-.333-.832-.52a13.223,13.223,0,0,0,1.427-5.478,10.326,10.326,0,0,0-1.942-5.48,16.2,16.2,0,0,0-3.437-3.852,13.4,13.4,0,0,0-3.289-1.95,16.613,16.613,0,0,0-2.519-11.376,18.517,18.517,0,0,0-10.231-7.7,12.9,12.9,0,0,0-4.806-.463,12.623,12.623,0,0,0-4.04-6.783c-2.573-2.369-5.9-4.294-9.509-3.993a10.137,10.137,0,0,0-2.383.495,14.325,14.325,0,0,0-1.872-2.978,17.959,17.959,0,0,0-3.686-3.475,27.068,27.068,0,0,0-16.149-4.28,17.175,17.175,0,0,0-5.549,1.479,3.112,3.112,0,0,0-.937.514,17.533,17.533,0,0,0-4.526-1.833c-5.242-1.3-10.678.186-15.094,3.14a18.969,18.969,0,0,0-5.864,5.728,17.831,17.831,0,0,0-2.026,13.126c-10.983-.38-15.92,5.185-17.778,7.567a15.189,15.189,0,0,0-2.766,13.568c-2.763.771-14.847,8.2-9.851,22.535-2.606,1.017-8.568,12.145-.7,18.639-.026.012-10.659,13.074-1.118,18.794-2.344,2.789-5.369,6.479-5.874,10.2a11.734,11.734,0,0,0,.9,5.769c.275.732.57,1.459.893,2.173a16.841,16.841,0,0,0-2.79,4.358,20.829,20.829,0,0,0-1.824,9.959,20.275,20.275,0,0,0,3.528,10.075,21.272,21.272,0,0,0-4.854,9.2,22.326,22.326,0,0,0,1.243,13.963,24.063,24.063,0,0,0,2.341,4.251,12.383,12.383,0,0,0-1.283,9.645,11.606,11.606,0,0,0,8.994,8.493,12.263,12.263,0,0,0,3.985,0c2.386,2.882,5.678,5.84,11.759,2.709a6.392,6.392,0,0,0,1.185-.915c7.826,3.474,13.6-4.318,12.584-9.33a9.372,9.372,0,0,0,3.9-4.352,13,13,0,0,0,.414-8.855,23.929,23.929,0,0,0-1.666-4.253,12.883,12.883,0,0,0,2.238-2.569,13.96,13.96,0,0,0,2.368-7.1,16.146,16.146,0,0,0-.487-4.5,17.861,17.861,0,0,0-2.075-5.142,13.962,13.962,0,0,0-1.4-1.908,16.648,16.648,0,0,0,2.4-3.708,26.067,26.067,0,0,0,1.189-2.621c.019.455-.028.941-.049,1.635q-.017,3.115-.324,6.219a.57.57,0,0,0,.567.567.578.578,0,0,0,.567-.567,66.8,66.8,0,0,0,.321-7.429q.039-.76.038-1.524a41.743,41.743,0,0,0,13.595,8.892q.974.385,1.969.714h0a26.39,26.39,0,0,0,14.195-.368,37.052,37.052,0,0,0,11.543-6.24c1.431-1.1,2.806-2.272,4.139-3.487a12.7,12.7,0,0,0,.3,3.777,11.148,11.148,0,0,0,2.527,4.769c.14.16.285.317.432.472a10.632,10.632,0,0,0-4.547,6.068,10.3,10.3,0,0,0,1.073,7.982,10.456,10.456,0,0,0,2.293,2.715,11.626,11.626,0,0,0-1.355.965,10.608,10.608,0,0,0-3.33,5.08,14.371,14.371,0,0,0-.586,4.008,15.761,15.761,0,0,0,.611,5,11.665,11.665,0,0,0,6.256,6.726,14.382,14.382,0,0,0,6.814,1.241,9.23,9.23,0,0,0,2.967,6.106,12.454,12.454,0,0,0,6.594,2.793,15.787,15.787,0,0,0,9.457-1.166,10.026,10.026,0,0,0,4.048-3.69,11.724,11.724,0,0,0,2.587,1.875,11.5,11.5,0,0,0,3.621,1.319,15.307,15.307,0,0,0,7.518-.617,14.55,14.55,0,0,0,9.836-10.948,12.221,12.221,0,0,0-.133-5.019,8.8,8.8,0,0,0,4.628-3.947,12.526,12.526,0,0,0,1.214-9.533,12.007,12.007,0,0,0-1.768-3.715,14.776,14.776,0,0,0,2.4-5.416A9.527,9.527,0,0,0,1680.893,1649.538Zm-53.805-60.78a17.118,17.118,0,0,0,3.253,12.856,8.274,8.274,0,0,0-1.175,1.029q-.666.614-1.287,1.27a25.741,25.741,0,0,0-4.207,5.868,21.267,21.267,0,0,0-1.869,15.1,12.226,12.226,0,0,0,1.425,3.355,20.8,20.8,0,0,0-4.907,9.305,53.894,53.894,0,0,1-9.5,7.371,28.588,28.588,0,0,1-12.224,4.088,25.3,25.3,0,0,1-8.071-.705h0a39.567,39.567,0,0,1-14.175-8.473q-1.553-1.424-2.969-2.984c-.179-.224-20.272-19.122-12.6-72.407a10.865,10.865,0,0,0,3.371-4.44,8.1,8.1,0,0,1,3.976-9.629,11.108,11.108,0,0,0,2.594-7.152,19.542,19.542,0,0,0,6.116-3.318,7.2,7.2,0,0,0,2.963-5.339,14.719,14.719,0,0,0,5.755.914c2.437-.045,4.854-.327,7.293-.135a26.317,26.317,0,0,1,6.832,1.483c1.1.4,2.142.9,3.2,1.38a10.074,10.074,0,0,0,3.288,1.016,4.7,4.7,0,0,0,1.694-.169.591.591,0,0,0,.085-.034,15.426,15.426,0,0,0,3.136,2.927,9.956,9.956,0,0,0,4.736,1.746,20.135,20.135,0,0,0,6.437,16.3,18.9,18.9,0,0,0,3.729,2.682,14.223,14.223,0,0,0,.1,7.241,17.279,17.279,0,0,0,4.885,7.9,22.125,22.125,0,0,0,2.447,1.991A17.246,17.246,0,0,0,1627.088,1588.758Z" transform="translate(-1523.254 -1501.778)" fill="#4c18b2"/>
        <path id="Trazado_7308" data-name="Trazado 7308" d="M1728.45,1867a7.876,7.876,0,0,0-1.708-.173q-.892-.066-1.783-.121-1.784-.11-3.57-.176-3.5-.127-7-.087-7.073.083-14.115.867-1.924.215-3.842.479a1.461,1.461,0,0,0-1.3.712,1.078,1.078,0,0,0,.179,1.176,44.589,44.589,0,0,0,5.08,7.3,15.87,15.87,0,0,0,8.277,4.729c5.271.986,10.8-.308,14.472-4a28.967,28.967,0,0,0,6.011-8.291C1729.518,1868.559,1729.529,1867.214,1728.45,1867Zm-7.824,6.435a17.037,17.037,0,0,1-5.314,2.034,18.821,18.821,0,0,1-6.1.205,20.87,20.87,0,0,1-5.772-1.53,9.779,9.779,0,0,1-3.647-3.16l9.392.362a98.3,98.3,0,0,0,10.439.018q2.1-.144,4.185-.49a15.531,15.531,0,0,1-3.179,2.56Z" transform="translate(-1640.625 -1750.926)" fill="#4c18b2"/>
        <path id="Trazado_7309" data-name="Trazado 7309" d="M1729.127,1837.088c.016.013.068.054.086.067a5.638,5.638,0,0,0,3.824.99,6.193,6.193,0,0,0,3.439-1.558c.04-.041.1-.095.151-.15.308-.3.448-.435.487-.792a.477.477,0,0,0-.119-.354.757.757,0,0,0-.511-.261c-.362-.026-.484.076-.86.429l-.061.058a5.647,5.647,0,0,1-2.013,1.158,4.073,4.073,0,0,1-2.116.018,4.561,4.561,0,0,1-1.018-.393c-.112-.06-.22-.131-.328-.2-.131-.087-.771-.475-.887-.517a.575.575,0,0,0-.705.352c-.154.268.024.659.325.906Z" transform="translate(-1663.447 -1729.469)" fill="#4c18b2"/>
        <path id="Trazado_7310" data-name="Trazado 7310" d="M1680.858,1748.372a4.269,4.269,0,0,0-3.193.728,2.641,2.641,0,0,0-.735,2.169,2.611,2.611,0,0,0,1.014,1.582,3.392,3.392,0,0,0,3.15.377,2.829,2.829,0,0,0,1.895-2A2.6,2.6,0,0,0,1680.858,1748.372Z" transform="translate(-1628.227 -1670.227)" fill="#4c18b2"/>
        <path id="Trazado_7311" data-name="Trazado 7311" d="M1797.907,1747.366a3.65,3.65,0,0,0-3.535.134,2.109,2.109,0,0,0-1.077,1.143,2.284,2.284,0,0,0,.092,1.823,3.621,3.621,0,0,0,2.981,1.853,3.4,3.4,0,0,0,2.977-1.663C1799.975,1749.359,1799,1748.026,1797.907,1747.366Z" transform="translate(-1707.658 -1669.302)" fill="#4c18b2"/>
        <path id="Trazado_7312" data-name="Trazado 7312" d="M1661.958,1725.58a.837.837,0,0,0,1.088-.864,1.937,1.937,0,0,0-1.2-1.179,21.193,21.193,0,0,0-2.395-.8,26.031,26.031,0,0,0-4.5-.757,21.349,21.349,0,0,0-9.51,1.386,29.562,29.562,0,0,0-4.792,2.636.582.582,0,0,0-.226.772.591.591,0,0,0,.692.249.642.642,0,0,0,.109-.056c.273-.174.529-.372.8-.55,4.4-2.768,9.983-2.78,14.974-1.933C1658.677,1724.769,1660.279,1725.246,1661.958,1725.58Z" transform="translate(-1603.261 -1652.181)" fill="#4c18b2"/>
        <path id="Trazado_7313" data-name="Trazado 7313" d="M1789.754,1725.8a29.472,29.472,0,0,0-4.9-2.428,21.314,21.314,0,0,0-9.559-.979,25.9,25.9,0,0,0-4.466.95,21.064,21.064,0,0,0-2.358.9,1.932,1.932,0,0,0-1.153,1.229.837.837,0,0,0,1.124.816c1.662-.4,3.243-.95,4.916-1.308,4.952-1.058,10.525-1.285,15.043,1.292.277.167.542.354.822.517a.662.662,0,0,0,.112.051.59.59,0,0,0,.68-.278A.582.582,0,0,0,1789.754,1725.8Z" transform="translate(-1690.004 -1652.398)" fill="#4c18b2"/>
        <path id="Trazado_7314" data-name="Trazado 7314" d="M1673.112,1573.4a12.346,12.346,0,0,1-5.511-10.45.567.567,0,0,0-1.134,0,13.509,13.509,0,0,0,6.072,11.428c.613.4,1.181-.581.572-.978Z" transform="translate(-1621.103 -1543.199)" fill="#d2ceed"/>
        <path id="Trazado_7315" data-name="Trazado 7315" d="M1720.442,1561.6a18.661,18.661,0,0,1-6.237-11.968,20.652,20.652,0,0,1-.095-4.123c.056-.729-1.077-.725-1.134,0a20.984,20.984,0,0,0,3.946,13.994,17.173,17.173,0,0,0,2.717,2.9c.555.465,1.362-.333.8-.8Z" transform="translate(-1652.84 -1531.283)" fill="#d2ceed"/>
        <path id="Trazado_7316" data-name="Trazado 7316" d="M1776.02,1577.468a12.721,12.721,0,0,1-.214-11.5c.326-.65-.652-1.225-.979-.572a13.91,13.91,0,0,0,.214,12.647c.352.64,1.33.068.979-.57Z" transform="translate(-1694.173 -1545.046)" fill="#d2ceed"/>
        <path id="Trazado_7317" data-name="Trazado 7317" d="M1866.518,2052.116a8.449,8.449,0,0,0,5.255,5.964,9.343,9.343,0,0,0,8.667-.762,12.319,12.319,0,0,0,4.173-4.969c.32-.652-.657-1.228-.979-.572-1.418,2.9-3.833,5.406-7.146,5.84a8.536,8.536,0,0,1-7.008-2.371,6.436,6.436,0,0,1-1.869-3.432c-.132-.717-1.225-.411-1.094.3Z" transform="translate(-1757.78 -1877.309)" fill="#d2ceed"/>
        <path id="Trazado_7318" data-name="Trazado 7318" d="M1914.777,2057.632a6.654,6.654,0,0,0,9.445-3.021.585.585,0,0,0-.2-.776.57.57,0,0,0-.775.2,5.522,5.522,0,0,1-7.894,2.614.567.567,0,0,0-.573.979Z" transform="translate(-1790.573 -1878.917)" fill="#d2ceed"/>
        <path id="Trazado_7319" data-name="Trazado 7319" d="M1959.613,1992.159a6.578,6.578,0,0,0,7.161-3.193c.347-.642-.634-1.215-.979-.572a5.428,5.428,0,0,1-5.88,2.672c-.709-.167-1.014.926-.3,1.093Z" transform="translate(-1821.118 -1834.064)" fill="#d2ceed"/>
        <path id="Trazado_7320" data-name="Trazado 7320" d="M1884.739,1793.609a5.866,5.866,0,0,0,1.536,2.392,5.679,5.679,0,0,0,8.369-.368c.423-.6-.56-1.164-.979-.572a4.291,4.291,0,0,1-4.572,1.311,4.336,4.336,0,0,1-2.059-1.218,4.653,4.653,0,0,1-1.2-1.847.568.568,0,0,0-1.094.3Z" transform="translate(-1770.221 -1700.693)" fill="#d2ceed"/>
        <path id="Trazado_7321" data-name="Trazado 7321" d="M1904.972,1804.567a3.557,3.557,0,0,0,1.957,3,4.248,4.248,0,0,0,3.836.176.567.567,0,0,0-.572-.979,3.1,3.1,0,0,1-2.693-.177,2.427,2.427,0,0,1-1.4-2.023A.567.567,0,0,0,1904.972,1804.567Z" transform="translate(-1784.062 -1708.283)" fill="#d2ceed"/>
        <path id="Trazado_7322" data-name="Trazado 7322" d="M1881.363,1966.727a7.157,7.157,0,0,0,6.423,1.756,4.966,4.966,0,0,0,3.654-3.484c.158-.711-.936-1.014-1.094-.3a3.833,3.833,0,0,1-2.862,2.692,5.963,5.963,0,0,1-5.32-1.464c-.554-.467-1.36.331-.8.8Z" transform="translate(-1767.802 -1817.788)" fill="#d2ceed"/>
        <path id="Trazado_7323" data-name="Trazado 7323" d="M1854.9,1961.171a2.75,2.75,0,0,0-.055,3.158,2.17,2.17,0,0,0,1.391.868,2.449,2.449,0,0,0,1.7-.343,2.98,2.98,0,0,0,1.146-1.457.57.57,0,0,0-.4-.7.582.582,0,0,0-.7.4c-.025.063-.027.068-.007.016-.016.033-.032.066-.048.1-.025.048-.052.1-.08.143s-.059.092-.09.138-.042.06-.011.016c-.022.029-.046.057-.071.084a2.35,2.35,0,0,1-.235.227c.075-.063-.063.045-.083.057-.053.034-.109.066-.165.095,0,0-.156.065-.075.036a1.858,1.858,0,0,1-.2.06c-.022.005-.2.035-.109.026-.058.006-.117.009-.175.009a1.106,1.106,0,0,1-.575-.146c-.019-.011-.163-.114-.081-.048a1.335,1.335,0,0,1-.117-.107,1.473,1.473,0,0,1-.107-.117c.068.08-.055-.082-.066-.1-.028-.046-.051-.093-.078-.14-.061-.108.01.048-.027-.06a2.136,2.136,0,0,1-.1-.362c.018.122,0-.05,0-.076,0-.081,0-.161,0-.242,0-.111-.013.029.011-.09.011-.06.024-.119.04-.178a1.944,1.944,0,0,1,.325-.691.57.57,0,0,0-.2-.776.581.581,0,0,0-.775.2Z" transform="translate(-1749.486 -1815.467)" fill="#d2ceed"/>
        <path id="Trazado_7324" data-name="Trazado 7324" d="M1864.6,1968.626a2.852,2.852,0,0,0,3.081,2.312,3.893,3.893,0,0,0,1.852-.469,3.932,3.932,0,0,0,1.517-1.782c.334-.647-.644-1.221-.979-.572a3,3,0,0,1-1.017,1.322,2.235,2.235,0,0,1-.625.267,2.362,2.362,0,0,1-.631.1,4.052,4.052,0,0,1-.6-.021c-.076-.008.1.019-.01,0-.04-.008-.081-.014-.123-.023-.071-.016-.142-.035-.212-.056-.487-.153-1.065-.509-1.124-1.072a.583.583,0,0,0-.567-.566.57.57,0,0,0-.567.566Z" transform="translate(-1756.48 -1820.206)" fill="#d2ceed"/>
        <path id="Trazado_7325" data-name="Trazado 7325" d="M1932.528,1884.135a3.5,3.5,0,0,0,3.357,2.329A4.157,4.157,0,0,0,1939.6,1884a6.14,6.14,0,0,0,.612-2.783.567.567,0,0,0-1.133,0c.022,1.525-.652,3.354-2.187,3.947a2.516,2.516,0,0,1-3.275-1.33c-.212-.7-1.306-.4-1.093.3Z" transform="translate(-1802.87 -1760.654)" fill="#d2ceed"/>
        <path id="Trazado_7326" data-name="Trazado 7326" d="M1951.488,1887.135a2.935,2.935,0,0,0,5.07-2,.567.567,0,0,0-1.134,0c0,.059,0,.118-.008.177l-.005.058c.005-.044.005-.046,0-.005a2.548,2.548,0,0,1-.079.313.809.809,0,0,1-.076.19,2.4,2.4,0,0,1-.163.28,2.542,2.542,0,0,1-.358.39c-.122.11.066-.036-.071.055-.041.027-.081.054-.123.079s-.085.05-.127.073c0,0-.158.073-.079.04a1.909,1.909,0,0,1-.285.09c-.058.014-.117.026-.176.035.077-.012-.032,0-.058,0a2.44,2.44,0,0,1-.33,0,.787.787,0,0,1-.206-.032,1.783,1.783,0,0,1-.989-.546.566.566,0,0,0-.8.8Z" transform="translate(-1815.734 -1763.318)" fill="#d2ceed"/>
        <path id="Trazado_7327" data-name="Trazado 7327" d="M1848.723,1883.11a2.892,2.892,0,0,0,3.732,1.673c.052-.02.1-.041.155-.064a.57.57,0,0,0,.2-.776.582.582,0,0,0-.776-.2c-.122.057.119-.041-.008,0-.032.011-.061.023-.092.032a1.988,1.988,0,0,1-.206.055.613.613,0,0,1-.115.02c.009.01.139-.012.016,0-.071,0-.141.009-.212.008s-.142-.011-.213-.012.121.023.016,0c-.039-.007-.077-.013-.115-.022-.069-.015-.139-.034-.207-.054a.683.683,0,0,1-.2-.072c.041.035.087.04.01,0l-.088-.044c-.069-.036-.137-.075-.2-.118l-.081-.055c-.072-.049-.042-.008.006.007-.057-.018-.133-.114-.174-.155s-.09-.093-.132-.142l-.037-.045c-.026-.032-.016-.02.03.038-.021-.009-.044-.061-.056-.079a2.006,2.006,0,0,1-.108-.184.421.421,0,0,1-.05-.1l.026.063c-.009-.024-.018-.048-.027-.073a.567.567,0,1,0-1.093.3Z" transform="translate(-1745.617 -1761.832)" fill="#d2ceed"/>
        <path id="Trazado_7328" data-name="Trazado 7328" d="M1810.265,1612.147a7.452,7.452,0,0,1,.3-1.282c.033-.1.069-.2.106-.3.022-.057.044-.113.067-.17.044-.112-.041.089.013-.032.1-.208.192-.412.3-.612a.567.567,0,0,0-.979-.572,7.89,7.89,0,0,0-.9,2.665.619.619,0,0,0,.057.437.566.566,0,0,0,1.035-.135Z" transform="translate(-1718.595 -1574.971)" fill="#d2ceed"/>
        <path id="Trazado_7329" data-name="Trazado 7329" d="M1549.065,2011.253a4.133,4.133,0,0,0,1.094,4.3,4.037,4.037,0,0,0,6.208-1.172c.326-.651-.651-1.225-.979-.572a2.848,2.848,0,0,1-5.23-2.254.572.572,0,0,0-.4-.7.579.579,0,0,0-.7.4Z" transform="translate(-1540.748 -1849.592)" fill="#d2ceed"/>
        <path id="Trazado_7330" data-name="Trazado 7330" d="M1562.249,2027.826a4.334,4.334,0,0,0,2.221,2.872,4.378,4.378,0,0,0,3.99-.048c.647-.337.074-1.316-.572-.979a3.181,3.181,0,0,1-2.917.011,3.242,3.242,0,0,1-1.629-2.158c-.161-.711-1.254-.41-1.093.3Z" transform="translate(-1549.886 -1860.715)" fill="#d2ceed"/>
        <path id="Trazado_7331" data-name="Trazado 7331" d="M1603.987,1937.944a3.751,3.751,0,0,0,4.793,1.394,4.943,4.943,0,0,0,2.111-1.922c.507-.807,1.094-2.032.661-2.965a.57.57,0,0,0-.775-.2.581.581,0,0,0-.2.776c.064.134-.032.354-.067.483a5.554,5.554,0,0,1-.189.555,5.206,5.206,0,0,1-.484.906,3.726,3.726,0,0,1-1.6,1.382,2.606,2.606,0,0,1-3.265-.977c-.349-.641-1.329-.068-.979.57Z" transform="translate(-1578.364 -1797.208)" fill="#d2ceed"/>
        <path id="Trazado_7332" data-name="Trazado 7332" d="M1623.7,1938.308a4.054,4.054,0,0,0,3.716.169,4.012,4.012,0,0,0,2.144-2.611.567.567,0,0,0-1.093-.3,2.926,2.926,0,0,1-1.556,1.9,2.867,2.867,0,0,1-2.638-.138.568.568,0,0,0-.573.979Z" transform="translate(-1591.693 -1797.886)" fill="#d2ceed"/>
        <path id="Trazado_7333" data-name="Trazado 7333" d="M1605.552,2000.865a5.594,5.594,0,0,0,6.847,3.424c.689-.231.394-1.326-.3-1.094a4.448,4.448,0,0,1-5.453-2.633C1606.408,1999.878,1605.312,2000.172,1605.552,2000.865Z" transform="translate(-1579.46 -1842.305)" fill="#d2ceed"/>
        <path id="Trazado_7334" data-name="Trazado 7334" d="M1575.9,1856.976a3.85,3.85,0,0,0,1.211,3.228,2.709,2.709,0,0,0,3.526-.454,5.252,5.252,0,0,0,1.163-2.065.567.567,0,0,0-1.071-.371c-.349,1.08-1.155,2.454-2.459,2.208a1.313,1.313,0,0,1-.548-.275,1.611,1.611,0,0,1-.418-.6,3.608,3.608,0,0,1-.271-1.6c.024-.727-1.109-.806-1.131-.073Z" transform="translate(-1559.221 -1744.116)" fill="#d2ceed"/>
        <path id="Trazado_7335" data-name="Trazado 7335" d="M1588.832,1864.254a2.858,2.858,0,0,0,5.406-.907.571.571,0,0,0-.529-.6.579.579,0,0,0-.6.529c-.02.134.021-.053-.011.067-.014.053-.028.106-.045.158s-.036.1-.057.154c-.01.024-.071.152-.025.063a2.1,2.1,0,0,1-.174.28c-.032.045-.066.088-.1.131-.105.129.071-.061-.051.054a3.211,3.211,0,0,1-.249.217s-.143.1-.059.045c-.046.03-.1.057-.143.083a2.017,2.017,0,0,1-.3.132c.1-.031-.07.017-.073.017a1.459,1.459,0,0,1-.162.032,1.634,1.634,0,0,1-.565-.015c.1.016-.04-.01-.065-.017-.053-.014-.106-.032-.158-.048a1.445,1.445,0,0,1-.154-.059c-.021-.009-.163-.079-.063-.026a2.408,2.408,0,0,1-.281-.175c-.037-.028-.073-.055-.109-.084l-.063-.054c.035.032.038.032.009,0a2.408,2.408,0,0,1-.217-.246l-.049-.067c.024.038.025.04,0,.006-.034-.055-.063-.111-.093-.168a.567.567,0,1,0-1.02.494Z" transform="translate(-1568.022 -1748.408)" fill="#d2ceed"/>
        <path id="Trazado_7336" data-name="Trazado 7336" d="M1550.84,1922.67a3.461,3.461,0,0,0,5.993,1.079.585.585,0,0,0,0-.8.571.571,0,0,0-.8,0,2.439,2.439,0,0,1-2.256.948,2.4,2.4,0,0,1-1.842-1.527.582.582,0,0,0-.7-.4.573.573,0,0,0-.4.7Z" transform="translate(-1542.088 -1788.863)" fill="#d2ceed"/>
        <path id="Trazado_7337" data-name="Trazado 7337" d="M1601.923,1867.883a2.784,2.784,0,0,0,3.845.954.581.581,0,0,0,.263-.757.574.574,0,0,0-.757-.263,2.223,2.223,0,0,1-.346.182l-.091.035c.06-.02.06-.02,0,0a1.859,1.859,0,0,1-.19.047c-.064.013-.129.02-.193.032s-.065.006,0,0l-.1,0a2.4,2.4,0,0,1-.39-.033c.14.023-.071-.02-.1-.028-.067-.02-.131-.043-.2-.069-.032-.013-.063-.027-.095-.042.058.032.057.032,0,0s-.119-.07-.177-.108-.111-.082-.166-.124-.053-.044-.007,0c-.025-.024-.049-.047-.073-.073a2.03,2.03,0,0,1-.138-.155c-.013-.016-.132-.185-.07-.09a.583.583,0,0,0-.758-.262.572.572,0,0,0-.262.757Z" transform="translate(-1576.965 -1751.367)" fill="#d2ceed"/>
        <path id="Trazado_7338" data-name="Trazado 7338" d="M1544.621,2007.571s-.146.039-.089.032-.078,0-.092,0c.113.011-.182-.063-.1-.032a1.666,1.666,0,0,1-.285-.158c-.068-.043-.179-.12-.211-.146s-.137-.118-.19-.172c-.035-.035-.071-.071-.1-.108.007.006-.1-.123-.057-.066s-.036-.053-.042-.063c-.027-.042-.053-.085-.077-.127s-.032-.058-.046-.088-.058-.158-.022-.046a2.863,2.863,0,0,1-.127-.481c.012.083.005.03,0-.022s-.005-.083-.006-.125c0-.084,0-.166.009-.249.011-.158-.024.11.006-.047.006-.032.012-.065.019-.1a2.164,2.164,0,0,1,.076-.262c.009-.024.056-.127.008-.026.019-.037.036-.074.055-.112a2.2,2.2,0,0,1,.144-.232.57.57,0,0,0-.2-.775.581.581,0,0,0-.776.2,2.834,2.834,0,0,0-.206,2.754,2.943,2.943,0,0,0,1,1.151,1.808,1.808,0,0,0,1.615.393.567.567,0,0,0-.3-1.093Z" transform="translate(-1536.088 -1844.982)" fill="#d2ceed"/>
        <path id="Trazado_7339" data-name="Trazado 7339" d="M1547.91,2072.042a6.8,6.8,0,0,1-4.078-6.005.567.567,0,0,0-1.134,0,7.907,7.907,0,0,0,4.64,6.984.586.586,0,0,0,.775-.2.57.57,0,0,0-.2-.776Z" transform="translate(-1536.539 -1886.932)" fill="#d2ceed"/>
        <path id="Trazado_7340" data-name="Trazado 7340" d="M1604.4,2074.523a2.6,2.6,0,0,0,1.141.875,2.864,2.864,0,0,0,1.645-.056,2.767,2.767,0,0,0,1.815-2.476.567.567,0,0,0-.567-.567.583.583,0,0,0-.567.567c.01-.078-.007.03-.011.057-.01.049-.021.1-.032.146-.022.088-.048.173-.078.258-.005.011-.052.127-.023.058-.016.036-.033.073-.052.109-.041.079-.086.158-.135.233a1.558,1.558,0,0,1-.319.374.652.652,0,0,1-.13.085,1.769,1.769,0,0,1-.264.077,1.605,1.605,0,0,1-.982.042c.056.021.018.008-.014-.01s-.08-.043-.119-.068a1.116,1.116,0,0,1-.113-.078c.047.038.007,0-.016-.016a3.442,3.442,0,0,1-.379-.411.57.57,0,0,0-.8,0,.581.581,0,0,0,0,.8Z" transform="translate(-1578.588 -1891.585)" fill="#d2ceed"/>
        <path id="Trazado_7341" data-name="Trazado 7341" d="M1616.272,2070.835a1.315,1.315,0,0,0,.794.313,1.726,1.726,0,0,0,.663-.108,3.18,3.18,0,0,0,1.082-.655,3.225,3.225,0,0,0,1.029-2.193.569.569,0,0,0-.567-.567.58.58,0,0,0-.567.567c0,.038-.006.075-.008.113-.007.124.022-.114,0,0-.013.074-.027.148-.046.222s-.04.146-.066.217a1.078,1.078,0,0,0-.04.106c.028-.127.019-.043,0,0a2.785,2.785,0,0,1-.226.393c-.022.031-.048.06-.067.092.074-.122.019-.026-.006,0-.049.058-.1.113-.154.167a2.151,2.151,0,0,1-.167.152l-.029.024c-.047.039-.04.031.025-.019-.009.022-.074.053-.092.066q-.095.063-.192.119c-.036.019-.163.109-.2.1l.066-.028-.071.028c-.037.013-.073.025-.11.035s-.063.018-.095.024l-.058.011c.079-.01.1-.011.053-.007s-.076.006-.115,0c-.131,0,.048.019,0,.005a.538.538,0,0,1-.054-.013c-.047-.016-.047-.014,0,0s.045.02,0,0-.043-.024.022.024a.618.618,0,0,0-.4-.165.566.566,0,0,0-.4.967Z" transform="translate(-1586.695 -1888.39)" fill="#d2ceed"/>
        <path id="Trazado_7342" data-name="Trazado 7342" d="M1936.659,1735.545a5.052,5.052,0,0,0,6.02-4.723.567.567,0,0,0-1.134,0,3.912,3.912,0,0,1-4.585,3.63.582.582,0,0,0-.7.4.57.57,0,0,0,.4.7Z" transform="translate(-1805.427 -1657.884)" fill="#d2ceed"/>
        <path id="Trazado_7343" data-name="Trazado 7343" d="M1953.069,1736.344a3.4,3.4,0,0,0,4.013-2.071.569.569,0,0,0-.4-.7.582.582,0,0,0-.7.4c-.01.025-.074.147-.011.029-.018.034-.032.068-.049.1-.037.072-.078.143-.121.212-.02.032-.041.061-.063.092s-.084.1,0,.01c-.048.057-.095.114-.146.168s-.114.117-.175.17c-.027.025-.056.049-.084.073-.112.1.095-.063-.027.02a3.289,3.289,0,0,1-.4.244l-.1.048c-.1.047.056-.018-.009,0s-.153.057-.232.08-.144.041-.216.056c-.044.01-.088.018-.132.026-.109.021.068,0,0,0a3.172,3.172,0,0,1-.467.011l-.111-.009c-.071,0,.106.021,0,0-.087-.017-.175-.036-.261-.06a.567.567,0,1,0-.3,1.093Z" transform="translate(-1816.642 -1660.142)" fill="#d2ceed"/>
      </g>
    </g>
    <g id="Group_3397" data-name="Group 3397" transform="matrix(0.839, -0.545, 0.545, 0.839, 11029.006, 14240.875)">
      <g id="Grupo_1394" data-name="Grupo 1394" transform="translate(7.833 0)">
        <path id="Trazado_6019" data-name="Trazado 6019" d="M4.026,3.464A1.419,1.419,0,0,0,4.086.727L1.864.072A1.419,1.419,0,0,0,.974,2.766c.029.009.058.018.088.026l2.222.656A1.413,1.413,0,0,0,4.026,3.464Z" transform="translate(2.355 0)" fill="#6f3bed"/>
        <path id="Trazado_6021" data-name="Trazado 6021" d="M30.356,11.229a1.418,1.418,0,0,0,.06-2.736L1.859.071a1.419,1.419,0,0,0-.881,2.7l.078.023,28.557,8.422A1.41,1.41,0,0,0,30.356,11.229Z" transform="translate(0 7.977)" fill="#6f3bed"/>
      </g>
      <path id="Trazado_7517" data-name="Trazado 7517" d="M4.026,3.464A1.418,1.418,0,0,0,4.086.728L1.864.072A1.419,1.419,0,0,0,.973,2.766c.029.01.059.018.088.026l2.222.655A1.406,1.406,0,0,0,4.026,3.464Z" transform="translate(0 28.64)" fill="#6f3bed"/>
      <path id="Trazado_7518" data-name="Trazado 7518" d="M4.026,3.464A1.419,1.419,0,0,0,4.086.728L1.864.072A1.419,1.419,0,0,0,.974,2.766c.029.009.058.018.088.026l2.222.656A1.408,1.408,0,0,0,4.026,3.464Z" transform="translate(27.226 23.024)" fill="#6f3bed"/>
      <path id="Trazado_7519" data-name="Trazado 7519" d="M15.945,6.98A1.419,1.419,0,0,0,16,4.241L1.777.046a1.419,1.419,0,0,0-.8,2.72L15.2,6.963A1.412,1.412,0,0,0,15.945,6.98Z" transform="translate(6.419 16.896)" fill="#6f3bed"/>
    </g>
    <g id="Group_3396" data-name="Group 3396" transform="matrix(0.839, -0.545, 0.545, 0.839, 10836.34, 14294.67)">
      <g id="Grupo_1397" data-name="Grupo 1397" transform="translate(0 0)">
        <path id="Trazado_6019-2" data-name="Trazado 6019-2" d="M3.913,3.366A1.379,1.379,0,0,0,3.971.707L1.812.07A1.379,1.379,0,1,0,.946,2.688c.028.009.057.018.086.025l2.159.637A1.369,1.369,0,0,0,3.913,3.366Z" transform="translate(24.672 0)" fill="#6f3bed"/>
        <path id="Trazado_6021-2" data-name="Trazado 6021-2" d="M29.5,10.911a1.378,1.378,0,0,0,.058-2.659L1.807.069a1.378,1.378,0,1,0-.856,2.62l.075.023L28.776,10.9A1.371,1.371,0,0,0,29.5,10.911Z" transform="translate(0 0.594)" fill="#6f3bed"/>
      </g>
      <path id="Trazado_7524" data-name="Trazado 7524" d="M3.912,3.365A1.378,1.378,0,0,0,3.971.707L1.812.07A1.378,1.378,0,0,0,.946,2.688c.028.009.057.018.085.025L3.19,3.35A1.366,1.366,0,0,0,3.912,3.365Z" transform="translate(24.624 32.718)" fill="#6f3bed"/>
      <path id="Trazado_7522" data-name="Trazado 7522" d="M3.912,3.366A1.378,1.378,0,0,0,3.971.707L1.812.07A1.378,1.378,0,0,0,.946,2.688c.028.009.057.018.085.025L3.19,3.35A1.369,1.369,0,0,0,3.912,3.366Z" transform="translate(27.454 25.967)" fill="#6f3bed"/>
      <path id="Trazado_7523" data-name="Trazado 7523" d="M15.493,6.782a1.379,1.379,0,0,0,.058-2.661L1.726.045a1.379,1.379,0,0,0-.78,2.643L14.772,6.766A1.369,1.369,0,0,0,15.493,6.782Z" transform="translate(9.713 20.515)" fill="#6f3bed"/>
      <path id="Trazado_7525" data-name="Trazado 7525" d="M15.494,6.782a1.379,1.379,0,0,0,.058-2.661L1.726.045a1.379,1.379,0,0,0-.78,2.643L14.772,6.766A1.369,1.369,0,0,0,15.494,6.782Z" transform="translate(11.322 37.421)" fill="#6f3bed"/>
    </g>
    <g id="Grupo_1399" data-name="Grupo 1399" transform="translate(11066.268 14296.16)">
      <path id="Trazado_3713" data-name="Trazado 3713" d="M1439.219,1969.983l-5.11-1.37,1.377-5.135a1.341,1.341,0,0,0-2.591-.7l-1.377,5.135-4.968-1.332a1.341,1.341,0,0,0-.695,2.591l4.967,1.332-1.377,5.135a1.341,1.341,0,0,0,2.591.695h0l1.377-5.135,5.11,1.37a1.341,1.341,0,0,0,.695-2.591Z" transform="translate(-1423.751 -1960.86)" fill="#fff"/>
      <path id="Trazado_3714" data-name="Trazado 3714" d="M1427.06,1974.807a1.573,1.573,0,0,1-1.111-1.924l1.317-4.913-4.745-1.272a1.572,1.572,0,0,1,.814-3.036l4.745,1.272,1.317-4.913a1.571,1.571,0,0,1,3.035.814l-1.317,4.913,4.889,1.311a1.572,1.572,0,0,1-.814,3.036l-4.889-1.311-1.317,4.913A1.574,1.574,0,0,1,1427.06,1974.807Zm-3.844-10.7a1.111,1.111,0,0,0-.576,2.147l5.19,1.391-1.436,5.357a1.111,1.111,0,1,0,2.146.575l1.437-5.357,5.333,1.43a1.111,1.111,0,0,0,.576-2.147l-5.333-1.43,1.436-5.357a1.111,1.111,0,1,0-2.146-.575l-1.437,5.357Z" transform="translate(-1421.355 -1958.856)" fill="#6f3bed"/>
    </g>
    <path id="Trazado_7521" data-name="Trazado 7521" d="M2128.308,1618.446l-2.445.794-.8-2.457a.652.652,0,1,0-1.24.4h0l.8,2.457-2.377.773a.652.652,0,1,0,.4,1.24h0l2.377-.772.8,2.458a.652.652,0,0,0,1.24-.4h0l-.8-2.458,2.446-.795a.652.652,0,0,0-.4-1.24h0Z" transform="translate(8953.966 12574.756)" fill="#656d8e"/>
    <path id="Trazado_3131-2" data-name="Trazado 3131-2" d="M1445.111,1386.838l-1.017-4.787a.875.875,0,0,0-.585-.649l-4.656-1.513a.874.874,0,0,0-.856.182l-3.637,3.276a.873.873,0,0,0-.271.831l1.018,4.787a.873.873,0,0,0,.585.65l4.654,1.512a.874.874,0,0,0,.856-.182l3.638-3.275A.876.876,0,0,0,1445.111,1386.838Z" transform="translate(9420.059 12790.275)" fill="#f0f1f6"/>
    <g id="Grupo_1398" data-name="Grupo 1398" transform="translate(10831.147 14229.203)">
      <path id="Trazado_7380" data-name="Trazado 7380" d="M1428.6,1802.293a18.743,18.743,0,0,1-26.308,3.233l23.081-29.542A18.743,18.743,0,0,1,1428.6,1802.293Z" transform="translate(-1396.991 -1775.854)" fill="#5cffc4"/>
      <g id="Grupo_1312" data-name="Grupo 1312" transform="translate(0 0)">
        <path id="Trazado_3824" data-name="Trazado 3824" d="M1411.854,1801.88a18.743,18.743,0,0,1-26.308,3.233l23.081-29.542A18.743,18.743,0,0,1,1411.854,1801.88Z" transform="translate(-1385.547 -1775.571)" fill="none" stroke="#6f3bed" stroke-linecap="round" stroke-linejoin="round" stroke-width="2"/>
      </g>
    </g>
    <g id="Grupo_1395" data-name="Grupo 1395" transform="translate(10883.946 14148.259)">
      <g id="Grupo_1347" data-name="Grupo 1347">
        <g id="Grupo_1346" data-name="Grupo 1346">
          <path id="Trazado_7444" data-name="Trazado 7444" d="M1530.036,1433.069c.009.009.027.009.054.009a16.561,16.561,0,0,1,12.989,26.881l2.415,5.606a.9.9,0,0,1-.468,1.184h0a.918.918,0,0,1-.516.063l-8.855-1.555a15.964,15.964,0,0,1-5.518.959,16.575,16.575,0,0,1-.1-33.149Zm.091,31.349a14.518,14.518,0,0,0,5.11-.932.868.868,0,0,1,.479-.045l7.453,1.3-1.972-4.586a.909.909,0,0,1,.145-.95,14.467,14.467,0,0,0,2.515-4.178,14.768,14.768,0,1,0-28.518-5.463v.054A14.808,14.808,0,0,0,1530.127,1464.418Z" transform="translate(-1513.626 -1433.069)" fill="#5cffc4"/>
        </g>
      </g>
      <g id="Grupo_1349" data-name="Grupo 1349" transform="translate(16.212 12.051)">
        <g id="Grupo_1348" data-name="Grupo 1348">
          <path id="Trazado_7445" data-name="Trazado 7445" d="M1566.08,1471.115h6.763a1.252,1.252,0,0,1,0,2.5h-6.763a1.252,1.252,0,1,1-.04-2.5Z" transform="translate(-1564.807 -1471.115)" fill="#5cffc4"/>
        </g>
      </g>
      <g id="Grupo_1351" data-name="Grupo 1351" transform="translate(7.446 18.313)">
        <g id="Grupo_1350" data-name="Grupo 1350">
          <path id="Trazado_7446" data-name="Trazado 7446" d="M1538.405,1490.884h15.529a1.252,1.252,0,0,1,.04,2.5h-15.568a1.252,1.252,0,1,1-.04-2.5Z" transform="translate(-1537.133 -1490.883)" fill="#5cffc4"/>
        </g>
      </g>
    </g>
    <g id="like" transform="translate(11026.238 14166.387)">
      <path id="Trazado_7447" data-name="Trazado 7447" d="M2017.178,1540.954l-22.458-12.966a5.043,5.043,0,0,0-6.879,1.844l-8.457,14.647a5.043,5.043,0,0,0,1.842,6.882l.977.564a.527.527,0,0,0,.527-.913l-.977-.563a3.987,3.987,0,0,1-1.456-5.441l8.456-14.647a3.987,3.987,0,0,1,5.439-1.457l22.458,12.966a3.987,3.987,0,0,1,1.458,5.44l-8.456,14.646a3.987,3.987,0,0,1-5.44,1.458l-4.764-2.751a2.205,2.205,0,0,0-1.684-.222l-7.246,1.941a.837.837,0,0,1-1.025-.592h0l-1.94-7.245a2.2,2.2,0,0,0-1.034-1.347l-1.834-1.059a.527.527,0,0,0-.528.913l1.834,1.059a1.156,1.156,0,0,1,.543.707l1.942,7.246a1.893,1.893,0,0,0,2.317,1.338l7.245-1.942a1.156,1.156,0,0,1,.881.117l4.764,2.751a5.043,5.043,0,0,0,6.88-1.844l8.458-14.648A5.043,5.043,0,0,0,2017.178,1540.954Z" transform="translate(-1978.71 -1527.315)" fill="#6f3bed" stroke="#6f3bed" stroke-width="1"/>
      <path id="Trazado_7448" data-name="Trazado 7448" d="M2025.071,1560.017a4.628,4.628,0,0,1,2.218,3.1.527.527,0,0,0,.686.4,4.619,4.619,0,0,1,5.584,2.244.527.527,0,1,0,.946-.466l-.011-.021a132.469,132.469,0,0,1-13.4-6.681,5.676,5.676,0,0,0-3.26,2.6c-1.283,2.222-1.243,5.31.12,9.18a28.7,28.7,0,0,0,2.385,5.078.527.527,0,0,0,.431.249,28.7,28.7,0,0,0,5.589-.474c4.033-.754,6.727-2.264,8.01-4.485a5.684,5.684,0,0,0,.761-2.762.527.527,0,0,0-1.052-.069.513.513,0,0,0,0,.056,4.626,4.626,0,0,1-.62,2.248c-2.446,4.236-10.719,4.439-12.367,4.436-.827-1.426-4.788-8.693-2.343-12.929A4.632,4.632,0,0,1,2025.071,1560.017Z" transform="translate(-2004.807 -1548.511)" fill="#5cffc4" stroke="#5cffc4" stroke-width="0.5"/>
    </g>
  </g>
</svg>
