<svg xmlns="http://www.w3.org/2000/svg" width="226.55" height="205.848" viewBox="0 0 226.55 205.848">
  <g id="Group_3419" data-name="Group 3419" transform="translate(-214.974 -1288.793)">
    <ellipse id="Elipse_232" data-name="Elipse 232" cx="66.637" cy="66.637" rx="66.637" ry="66.637" transform="translate(296.181 1336.861)" fill="#c1c5db"/>
    <path id="Trazado_7509" data-name="Trazado 7509" d="M2811.853,1898.629l6.013-15.665a3.278,3.278,0,0,0-.511-3.228L2806.8,1866.7a3.278,3.278,0,0,0-3.052-1.171l-16.572,2.625a3.277,3.277,0,0,0-2.54,2.057l-6.013,15.665a3.278,3.278,0,0,0,.511,3.228l10.559,13.04a3.279,3.279,0,0,0,3.052,1.171l16.573-2.625A3.277,3.277,0,0,0,2811.853,1898.629Z" transform="translate(-2388.296 -419.196)" stroke="#6f3bed" stroke-width="2"/>
    <g id="Grupo_1384" data-name="Grupo 1384" transform="translate(397.245 1458.169)">
      <g id="Grupo_1183" data-name="Grupo 1183" transform="translate(0 0)">
        <path id="Trazado_6955" data-name="Trazado 6955" d="M2804.318,1930.6l6.38-4.9.276,1.561a.624.624,0,0,1-.031.34.725.725,0,0,1-.249.305l-2.929,2.219a2.934,2.934,0,0,1-.4.257q-.212.116-.459.223c.178.011.348.029.508.052a3.01,3.01,0,0,1,.462.106l3.514,1.09a.726.726,0,0,1,.338.2.625.625,0,0,1,.146.308l.276,1.562-7.676-2.432Z" transform="translate(-2804.318 -1920.994)" fill="#6f3bed"/>
        <path id="Trazado_6956" data-name="Trazado 6956" d="M2843.235,1922.736a1.321,1.321,0,0,1-.141.391,1.23,1.23,0,0,1-.24.3,1.36,1.36,0,0,1-.31.215,1.2,1.2,0,0,1-.336.115l-.922.163,2.84-14.171a1.265,1.265,0,0,1,.333-.649,1.172,1.172,0,0,1,.647-.321l.932-.165Z" transform="translate(-2831.104 -1908.618)" fill="#6f3bed"/>
        <path id="Trazado_6957" data-name="Trazado 6957" d="M2868.614,1926.913l-.276-1.562a.622.622,0,0,1,.031-.339.726.726,0,0,1,.247-.3l2.927-2.229a4.283,4.283,0,0,1,.857-.48c-.179-.011-.348-.028-.508-.052a2.951,2.951,0,0,1-.463-.105l-3.512-1.081a.726.726,0,0,1-.336-.2.623.623,0,0,1-.146-.308l-.276-1.561,7.674,2.421.157.887Z" transform="translate(-2849.851 -1915.915)" fill="#6f3bed"/>
      </g>
    </g>
    <path id="Trazado_7513" data-name="Trazado 7513" d="M2244.09,1522.4l8.57-9.859a2.551,2.551,0,0,0,.486-2.5l-4.253-12.352a2.552,2.552,0,0,0-1.921-1.669l-12.824-2.493a2.552,2.552,0,0,0-2.406.829l-8.57,9.859a2.551,2.551,0,0,0-.486,2.5l4.253,12.352a2.553,2.553,0,0,0,1.92,1.669l12.824,2.493A2.553,2.553,0,0,0,2244.09,1522.4Z" transform="translate(-1985.545 -149.653)" fill="none" stroke="#656d8e" stroke-width="2"/>
    <g id="Grupo_1390" data-name="Grupo 1390" transform="translate(239.922 1355.128)">
      <g id="Grupo_1181" data-name="Grupo 1181" transform="translate(0 0)">
        <path id="Trazado_6950" data-name="Trazado 6950" d="M2236.025,1539.947l-2.882-2.573.126-.716,3.588-1.42-.183,1.033-2.468.922,2,1.721Z" transform="translate(-2233.143 -1535.04)" fill="#656d8e"/>
        <path id="Trazado_6951" data-name="Trazado 6951" d="M2259.3,1535.667a.957.957,0,0,0-.958.479,4.091,4.091,0,0,0-.62,1.694q-.412,2.332.8,2.546a2.255,2.255,0,0,0,1.177-.142l-.2,1.111a2.266,2.266,0,0,1-1.315.1,2.005,2.005,0,0,1-1.583-1.209,4.576,4.576,0,0,1-.16-2.643,4.528,4.528,0,0,1,1.076-2.437,2.028,2.028,0,0,1,1.9-.606,2.477,2.477,0,0,1,.688.226,2.86,2.86,0,0,1,.66.48l-.593.942a3.688,3.688,0,0,0-.4-.337A1.137,1.137,0,0,0,2259.3,1535.667Z" transform="translate(-2249.952 -1534.52)" fill="#656d8e"/>
        <path id="Trazado_6952" data-name="Trazado 6952" d="M2273.915,1542.183a2.047,2.047,0,0,1-.73,1.357,1.828,1.828,0,0,1-1.458.258,3.058,3.058,0,0,1-1.431-.608l.218-1.235a2.621,2.621,0,0,0,1.295.735.707.707,0,0,0,.574-.1.775.775,0,0,0,.276-.505.989.989,0,0,0-.108-.651,3.247,3.247,0,0,0-.6-.743,3.206,3.206,0,0,1-.553-.687,2.09,2.09,0,0,1-.236-.674,2.372,2.372,0,0,1,.017-.812,1.933,1.933,0,0,1,.722-1.282,1.717,1.717,0,0,1,1.377-.277,2.862,2.862,0,0,1,1.406.693l-.59.927a4.043,4.043,0,0,0-.421-.311,1.355,1.355,0,0,0-.5-.192.576.576,0,0,0-.5.118.847.847,0,0,0-.259.514.953.953,0,0,0,.091.627,2.928,2.928,0,0,0,.58.695,2.878,2.878,0,0,1,.757,1.061A2.128,2.128,0,0,1,2273.915,1542.183Z" transform="translate(-2260.063 -1536.256)" fill="#656d8e"/>
        <path id="Trazado_6953" data-name="Trazado 6953" d="M2288.012,1544.674a2.046,2.046,0,0,1-.73,1.357,1.828,1.828,0,0,1-1.458.258,3.055,3.055,0,0,1-1.432-.608l.218-1.235a2.618,2.618,0,0,0,1.295.735.707.707,0,0,0,.574-.1.776.776,0,0,0,.276-.5,1,1,0,0,0-.107-.651,3.268,3.268,0,0,0-.6-.743,3.2,3.2,0,0,1-.553-.687,2.092,2.092,0,0,1-.236-.674,2.37,2.37,0,0,1,.017-.811,1.933,1.933,0,0,1,.722-1.283,1.718,1.718,0,0,1,1.376-.277,2.86,2.86,0,0,1,1.406.693l-.59.928a3.97,3.97,0,0,0-.421-.311,1.342,1.342,0,0,0-.5-.192.576.576,0,0,0-.5.118.852.852,0,0,0-.259.514.956.956,0,0,0,.091.626,2.929,2.929,0,0,0,.58.695,2.882,2.882,0,0,1,.757,1.061A2.122,2.122,0,0,1,2288.012,1544.674Z" transform="translate(-2270.277 -1538.061)" fill="#656d8e"/>
        <path id="Trazado_6954" data-name="Trazado 6954" d="M2308.19,1550.291l2.483-.929-2.016-1.714.183-1.033,2.884,2.563-.127.716-3.589,1.43Z" transform="translate(-2287.387 -1543.284)" fill="#656d8e"/>
      </g>
    </g>
    <path id="Trazado_7510" data-name="Trazado 7510" d="M2890.277,1692.336l-7.406,5.381-5.382-7.406-5.809,4.22,5.38,7.406-7.406,5.382,4.22,5.808,7.406-5.38,5.38,7.406,5.811-4.22-5.381-7.406,7.406-5.38Z" transform="translate(-2454.414 -292.272)"/>
    <path id="Trazado_7511" data-name="Trazado 7511" d="M2890.063,1674.27l-7.406,5.381-5.382-7.406-5.809,4.22,5.381,7.406-7.406,5.382,4.22,5.809,7.406-5.38,5.381,7.406,5.81-4.22-5.38-7.406,7.406-5.38Z" transform="translate(-2454.259 -279.182)" fill="none" stroke="#5cffc4" stroke-linecap="round" stroke-linejoin="round" stroke-width="3"/>
    <path id="Trazado_7512" data-name="Trazado 7512" d="M2179.56,1668.422l4.479-15.62a3.176,3.176,0,0,0-.766-3.072l-11.288-11.689a3.175,3.175,0,0,0-3.043-.872l-15.768,3.931a3.175,3.175,0,0,0-2.277,2.2l-4.479,15.621a3.173,3.173,0,0,0,.766,3.071l11.288,11.689a3.175,3.175,0,0,0,3.043.872l15.768-3.931A3.175,3.175,0,0,0,2179.56,1668.422Z" transform="translate(-1930.294 -253.699)" fill="none" stroke="#6f3bed" stroke-width="2"/>
    <g id="Grupo_1388" data-name="Grupo 1388" transform="translate(220.316 1396.265)">
      <g id="Grupo_1179" data-name="Grupo 1179" transform="translate(0)">
        <path id="Trazado_6944" data-name="Trazado 6944" d="M2161.964,1709.874l3.145-2.787.2.8a.323.323,0,0,1,0,.178.38.38,0,0,1-.118.167l-1.445,1.262a1.568,1.568,0,0,1-.2.148q-.107.068-.231.133c.094,0,.183,0,.266.009a1.536,1.536,0,0,1,.245.038l1.87.44a.381.381,0,0,1,.183.093.322.322,0,0,1,.087.155l.2.8-4.086-.988Z" transform="translate(-2161.964 -1700.692)" fill="#6f3bed"/>
        <path id="Trazado_6945" data-name="Trazado 6945" d="M2179.613,1705.855l-1.691-6.783,1.127-.281.65,2.606a2.465,2.465,0,0,1,.5-.57,1.8,1.8,0,0,1,.731-.353,1.732,1.732,0,0,1,.711-.038,1.388,1.388,0,0,1,.586.242,1.65,1.65,0,0,1,.441.486,2.432,2.432,0,0,1,.282.693l.743,2.981-1.126.281-.743-2.981a1.033,1.033,0,0,0-.364-.614.76.76,0,0,0-.655-.087,1.209,1.209,0,0,0-.514.27,2.039,2.039,0,0,0-.394.481l.844,3.386Z" transform="translate(-2173.527 -1694.682)" fill="#6f3bed"/>
        <path id="Trazado_6946" data-name="Trazado 6946" d="M2200.377,1702.419a1.266,1.266,0,0,1-1.021-.112,1.363,1.363,0,0,1-.566-.87l-.652-2.615-.475.118a.224.224,0,0,1-.283-.181l-.111-.448.723-.311-.082-1.337a.235.235,0,0,1,.05-.163.275.275,0,0,1,.154-.092l.584-.146.367,1.474,1.233-.307.2.8-1.233.308.633,2.539a.513.513,0,0,0,.2.314.381.381,0,0,0,.323.05.55.55,0,0,0,.169-.068,1.051,1.051,0,0,0,.11-.084c.03-.027.057-.052.08-.077a.161.161,0,0,1,.076-.045.134.134,0,0,1,.088,0,.411.411,0,0,1,.087.058l.474.464a1.749,1.749,0,0,1-.489.452A2.169,2.169,0,0,1,2200.377,1702.419Z" transform="translate(-2187.545 -1692.85)" fill="#6f3bed"/>
        <path id="Trazado_6947" data-name="Trazado 6947" d="M2212.659,1700.6l-1.168-4.684.689-.172a.285.285,0,0,1,.339.134l.16.329a2.729,2.729,0,0,1,.2-.315,1.736,1.736,0,0,1,.239-.268,1.618,1.618,0,0,1,.3-.212,1.489,1.489,0,0,1,.374-.144,1.125,1.125,0,0,1,.788.059.411.411,0,1,0,.761.062,1.55,1.55,0,0,1,.292-.362,1.736,1.736,0,0,1,.379-.259,2.071,2.071,0,0,1,.432-.161,1.925,1.925,0,0,1,.719-.053,1.368,1.368,0,0,1,.594.221,1.572,1.572,0,0,1,.452.479,2.5,2.5,0,0,1,.295.726l.743,2.981-1.128.281-.743-2.982a1.03,1.03,0,0,0-.364-.624.743.743,0,0,0-.632-.083.884.884,0,0,0-.306.139.79.79,0,0,0-.218.236.806.806,0,0,0-.106.324,1.126,1.126,0,0,0,.033.4l.743,2.982-1.132.282-.743-2.982a1.053,1.053,0,0,0-.36-.637.729.729,0,0,0-.613-.074.934.934,0,0,0-.424.234,1.591,1.591,0,0,0-.313.429l.855,3.429Z" transform="translate(-2197.849 -1691.604)" fill="#6f3bed"/>
        <path id="Trazado_6948" data-name="Trazado 6948" d="M2238.89,1683.871l1.691,6.783-1.127.281-1.691-6.783Z" transform="translate(-2216.885 -1683.871)" fill="#6f3bed"/>
        <path id="Trazado_6949" data-name="Trazado 6949" d="M2250.584,1692.332l-.2-.8a.322.322,0,0,1,0-.179.378.378,0,0,1,.118-.167l1.444-1.267a2.249,2.249,0,0,1,.429-.281c-.094,0-.184,0-.267-.009a1.577,1.577,0,0,1-.245-.038l-1.868-.436a.38.38,0,0,1-.183-.093.326.326,0,0,1-.087-.155l-.2-.8,4.085.984.114.456Z" transform="translate(-2225.41 -1686.936)" fill="#6f3bed"/>
      </g>
    </g>
    <g id="Grupo_1387" data-name="Grupo 1387" transform="translate(249.405 1433.097)">
      <g id="Grupo_1332" data-name="Grupo 1332" transform="translate(0 0)">
        <path id="Trazado_6019" data-name="Trazado 6019" d="M.98,3.137A1.29,1.29,0,0,1,.925.649l2.02-.6a1.289,1.289,0,1,1,.73,2.474l-2.02.6A1.282,1.282,0,0,1,.98,3.137Z" transform="translate(19.993)" fill="#6f3bed"/>
        <path id="Trazado_6021" data-name="Trazado 6021" d="M.979,10.2A1.29,1.29,0,0,1,.925,7.711L26.884.057a1.29,1.29,0,1,1,.754,2.466l-.024.007L1.654,10.185A1.281,1.281,0,0,1,.979,10.2Z" transform="translate(0 7.503)" fill="#6f3bed"/>
      </g>
      <path id="Trazado_6017" data-name="Trazado 6017" d="M.979,3.137A1.29,1.29,0,0,1,.925.648l2.02-.6a1.289,1.289,0,1,1,.73,2.473l-2.02.6A1.283,1.283,0,0,1,.979,3.137Z" transform="translate(29.183 21.2)" fill="#6f3bed"/>
      <path id="Trazado_6020" data-name="Trazado 6020" d="M.979,3.137A1.29,1.29,0,0,1,.925.648l2.02-.6a1.289,1.289,0,0,1,.729,2.474l-2.02.6A1.284,1.284,0,0,1,.979,3.137Z" transform="translate(10.189 18.9)" fill="#6f3bed"/>
      <path id="Trazado_6022" data-name="Trazado 6022" d="M.979,6.356A1.29,1.29,0,0,1,.925,3.866L13.858.053a1.29,1.29,0,0,1,.73,2.474L1.654,6.341A1.285,1.285,0,0,1,.979,6.356Z" transform="translate(18.269 13.308)" fill="#6f3bed"/>
      <path id="Trazado_6452" data-name="Trazado 6452" d="M.979,6.356A1.29,1.29,0,0,1,.925,3.866L13.858.053a1.29,1.29,0,0,1,.73,2.474L1.655,6.341A1.286,1.286,0,0,1,.979,6.356Z" transform="translate(21.154 28.174)" fill="#6f3bed"/>
    </g>
    <g id="Grupo_1385" data-name="Grupo 1385" transform="translate(387.258 1357.377)">
      <g id="Grupo_1332-2" data-name="Grupo 1332-2" transform="translate(0 0)">
        <path id="Trazado_6019-2" data-name="Trazado 6019-2" d="M2786.341,1544.769a1.237,1.237,0,0,0-1.256-2.03l-1.935.576a1.237,1.237,0,1,0,.705,2.371l1.935-.576A1.229,1.229,0,0,0,2786.341,1544.769Z" transform="translate(-2778.352 -1542.688)" fill="#6f3bed"/>
        <path id="Trazado_6021-2" data-name="Trazado 6021-2" d="M2795.087,1556.45a1.237,1.237,0,0,0-1.257-2.03l-24.876,7.406a1.237,1.237,0,1,0,.682,2.378l.023-.007,24.876-7.407A1.225,1.225,0,0,0,2795.087,1556.45Z" transform="translate(-2768.059 -1551.152)" fill="#6f3bed"/>
      </g>
      <path id="Trazado_6017-2" data-name="Trazado 6017-2" d="M2791.367,1632.121a1.237,1.237,0,0,0-1.257-2.03l-1.935.576a1.237,1.237,0,1,0,.705,2.371l1.936-.576A1.23,1.23,0,0,0,2791.367,1632.121Z" transform="translate(-2781.994 -1605.98)" fill="#6f3bed"/>
      <path id="Trazado_6020-2" data-name="Trazado 6020-2" d="M2870,1584.238a1.237,1.237,0,0,0-1.256-2.03l-1.936.576a1.237,1.237,0,0,0,.706,2.371l1.935-.576A1.226,1.226,0,0,0,2870,1584.238Z" transform="translate(-2838.968 -1571.286)" fill="#6f3bed"/>
      <path id="Trazado_6022-2" data-name="Trazado 6022-2" d="M2814.394,1592.632a1.237,1.237,0,0,0-1.257-2.03l-12.393,3.69a1.237,1.237,0,0,0,.706,2.371h0l12.393-3.689A1.23,1.23,0,0,0,2814.394,1592.632Z" transform="translate(-2791.101 -1577.367)" fill="#6f3bed"/>
      <path id="Trazado_6452-2" data-name="Trazado 6452-2" d="M2797.178,1644.789a1.237,1.237,0,0,0-1.257-2.03l-12.394,3.69a1.237,1.237,0,0,0,.706,2.371h0l12.393-3.689A1.233,1.233,0,0,0,2797.178,1644.789Z" transform="translate(-2778.627 -1615.158)" fill="#6f3bed"/>
    </g>
    <path id="Trazado_7514" data-name="Trazado 7514" d="M2163.044,1434.6l-4.632-3.009a1.079,1.079,0,0,0-1.075-.056l-4.923,2.508a1.079,1.079,0,0,0-.586.9l-.289,5.517a1.079,1.079,0,0,0,.489.959l4.634,3.009a1.079,1.079,0,0,0,1.074.056l4.922-2.508a1.08,1.08,0,0,0,.586-.9l.289-5.518A1.079,1.079,0,0,0,2163.044,1434.6Z" transform="translate(-1880.093 -141.601)" fill="none" stroke="#5cffc4" stroke-width="2"/>
    <g id="Grupo_1389" data-name="Grupo 1389" transform="translate(373.528 1320.32)">
      <g id="Grupo_1192" data-name="Grupo 1192" transform="translate(0 0)">
        <g id="Grupo_1191" data-name="Grupo 1191">
          <path id="Trazado_6970" data-name="Trazado 6970" d="M2718.382,1425.551a.232.232,0,0,0,.167.212l2.717.788a12.317,12.317,0,0,0,1.708,3.608l-1.111,2.6a.233.233,0,0,0,.058.264l2.516,2.276a.232.232,0,0,0,.268.031l2.476-1.363a12.318,12.318,0,0,0,3.76,1.341l1.054,2.625a.233.233,0,0,0,.228.146l3.388-.169a.232.232,0,0,0,.212-.167l.79-2.717a12.315,12.315,0,0,0,3.607-1.706l2.6,1.11a.232.232,0,0,0,.263-.058l2.278-2.516a.233.233,0,0,0,.031-.268l-1.363-2.476a12.31,12.31,0,0,0,1.341-3.76L2748,1424.3a.232.232,0,0,0,.145-.227l-.168-3.39a.232.232,0,0,0-.167-.212l-2.718-.788a12.329,12.329,0,0,0-1.706-3.608l1.111-2.6a.234.234,0,0,0-.058-.264l-2.516-2.277a.233.233,0,0,0-.269-.031l-2.476,1.363a12.327,12.327,0,0,0-3.76-1.341l-1.054-2.625a.232.232,0,0,0-.228-.145l-3.389.168a.232.232,0,0,0-.212.168l-.788,2.717a12.32,12.32,0,0,0-3.608,1.708l-2.6-1.11a.233.233,0,0,0-.264.059l-2.276,2.514a.232.232,0,0,0-.031.268l1.363,2.476a12.33,12.33,0,0,0-1.341,3.76l-2.626,1.056a.233.233,0,0,0-.146.227Z" transform="translate(-2718.213 -1408.151)" stroke="#4c18b2" stroke-miterlimit="4.002" stroke-width="2"/>
        </g>
      </g>
    </g>
    <g id="Grupo_1386" data-name="Grupo 1386" transform="translate(273.441 1330.563)">
      <path id="Trazado_7251" data-name="Trazado 7251" d="M2468.782,1582.844a38.869,38.869,0,0,0-.865-6.016c-.095-.514-.217-1.013-.323-1.522a2.56,2.56,0,0,1-.044-.278c-.022-.031-.046-.067-.077-.113-.046-.084-.1-.163-.153-.244-.2-.145-.629-.471-.379-.339-.457-.266-.925-.505-1.4-.73-.1-.008-.2-.014-.3-.027a5.89,5.89,0,0,1-2.532-.986c-.095-.064-.185-.131-.275-.2-.055.041-.107.086-.164.126-.169.139-.339.279-.517.419a5.315,5.315,0,0,1-2.423.7l-1.127-.132a3.326,3.326,0,0,1-1.521-.751,2.211,2.211,0,0,1-.836-.8,3.369,3.369,0,0,1-.843-1.558q-.081-.567-.163-1.138a4.975,4.975,0,0,1,1.223-3.113,14.452,14.452,0,0,1,2.363-1.824,4.308,4.308,0,0,1,1.963-.6,4.036,4.036,0,0,1-1.08-2.806c.007-.17.023-.34.037-.508a4.842,4.842,0,0,1-.476-3.078c.112-.718.258-1.426.42-2.131a6.05,6.05,0,0,1-.41-1.666,29.754,29.754,0,0,1,1.171-10.241c-.648-1.543-1.317-3.078-1.923-4.637a50.51,50.51,0,0,1-7.283-10.32l-.156-.082c-2.083-1.09-4.2-2.11-6.276-3.216a41.315,41.315,0,0,1-7.525-4.974c-2.338-.579-4.673-1.16-7-1.769-11.269,1.318-22.489-1.278-33.46-2.263a34.823,34.823,0,0,1-3.8.569q-.646.382-1.289.777-1.743,2.177-3.638,4.217a45.83,45.83,0,0,1-5.942,5.543c-.49,1.252-1.036,2.48-1.6,3.677a45.074,45.074,0,0,1-3.463,6.071c-.878,5.105-2.465,10.041-3.354,15.155-.569,3.276-1.122,6.948-2.864,9.837a3.869,3.869,0,0,1,1.04,2.789c-.01.181-.021.363-.03.545a5.417,5.417,0,0,1-.237,1.3,4.584,4.584,0,0,1,4.081,3.251,4.525,4.525,0,0,1-3.081,5.467,6.775,6.775,0,0,1-3.546.318c-.432.108-.868.194-1.3.311-.07.018-.124.033-.17.044,0,.015-.016.043-.083.094-.118.091-.5.372-.51.368-.256.214-.5.442-.75.668a5.4,5.4,0,0,1-.429.385,3.014,3.014,0,0,1-.218.427c-.079.231-.154.464-.234.695-.224.639-.468,1.27-.684,1.911-.13.382-.256.771-.366,1.16a3.844,3.844,0,0,1,.266.736c.131.651.282,1.3.439,1.939q.232.509.45,1.023a21.19,21.19,0,0,1,.789,2.034,3.889,3.889,0,0,1,.167,1.512c.038.135.079.269.113.4l0,.009a3.084,3.084,0,0,1,.325.544c.267.577.528,1.157.765,1.745.272.559.505,1.1.73,1.625.076.132.153.265.228.4a4,4,0,0,1,.3.429,24.026,24.026,0,0,1,1.467,3.292,3.13,3.13,0,0,1,.186.685,12.829,12.829,0,0,1,.534,1.288c.321.713.613,1.438.895,2.167.007.018.01.035.017.053a11.959,11.959,0,0,1,.568,1.364,19.3,19.3,0,0,1,1.344,1.809,5.121,5.121,0,0,1,.347.434c2.243.116,4.418,1.669,4.211,4.271a15.417,15.417,0,0,1-.328,2.372,23.1,23.1,0,0,1,.787,4.626,3.608,3.608,0,0,1-.05.89c.084.46.163.922.231,1.385.02.134.034.268.046.4q.128.412.246.827c.349.738.7,1.473,1.058,2.207,1.257,2.61,2.556,5.193,3.7,7.857.227.53.452,1.055.668,1.579.91,1.3,1.851,2.573,2.662,3.937a4.569,4.569,0,0,1,4.109,3.053,4.5,4.5,0,0,1,3.916,4.315c.371,3.3-.134,6.623-.073,9.933.031,1.655.077,3.293.068,4.926.42-.008.838-.014,1.251-.021,5.446-.088,10.37,1.471,15.654,2.482a16.54,16.54,0,0,0,2.678.362c1.076.087,2.156.136,3.235.14,1.172,0,2.345-.043,3.512-.155.233-.023.466-.046.7-.074-.1.012-.486.077.02,0,.537-.082,1.073-.188,1.6-.307a21.613,21.613,0,0,0,3.3-1.011c.268-.127.537-.258.8-.4q.71-.379,1.382-.822c2.14-1.412,4.177-2.966,6.373-4.3a28.235,28.235,0,0,1,7.678-3.458,37.4,37.4,0,0,1,4.954-.787c-.093-.572-.19-1.144-.3-1.714l-.041-.218c0-.007,0-.013,0-.021-.018-.086-.031-.175-.049-.261a5.785,5.785,0,0,1-.086-.637l0-.016c-.258-1.283-.52-2.565-.745-3.853-.163-.7-.286-1.413-.4-2.125a22.255,22.255,0,0,1-.75-3.644,3.346,3.346,0,0,1,.479-2.116,10.644,10.644,0,0,1,.84-3.62,3.534,3.534,0,0,1,1.31-1.637,4.507,4.507,0,0,1,1.358-2.493,4.275,4.275,0,0,1,2.241-3.369,10.361,10.361,0,0,1,1.112-4.944,4.508,4.508,0,0,1-.151-2.552,18.663,18.663,0,0,1,.61-1.953,5.239,5.239,0,0,1-.066-.794,6.616,6.616,0,0,1-.27-.629,5.579,5.579,0,0,1-.261-1.031c-.012-.037-.024-.073-.036-.109-.868-2.587.942-4.782,3.229-5.4.138-.11.275-.224.415-.334a6.24,6.24,0,0,1,1.764-.717c-.017,0,0,0,.072-.019l-.072.019c.088-.012,1.222-.252,1.53-.272.213-.126.569-.328.787-.467a5.625,5.625,0,0,1,.514-.549c.035-.087.239-.421.244-.434a30.847,30.847,0,0,0,1.021-3.324,41.68,41.68,0,0,1,4.352-9.871,2.857,2.857,0,0,1,.1-.352l.251-.682c.179-.531.385-1.055.608-1.571q.259-.629.559-1.239A15.536,15.536,0,0,0,2468.782,1582.844Z" transform="translate(-2361.449 -1496.552)" fill="#fff"/>
      <g id="Grupo_1304" data-name="Grupo 1304" transform="translate(0 0)">
        <path id="Trazado_7252" data-name="Trazado 7252" d="M2409.048,1500.523a2.676,2.676,0,0,1,.037.848,3,3,0,0,1-3.247,2.521c-6.939-.044-14.689-.181-21.4,1.961a2.9,2.9,0,0,1-.567,1.112q-.672.838-1.348,1.672c-2.2,2.778-4.291,5.648-6.221,8.624,0,.1,0,.206-.008.312a18.157,18.157,0,0,1-1.3,4.659c-.615,1.707-1.231,3.414-1.876,5.109-.456,1.2-.9,2.4-1.34,3.6-.092.62-.178,1.244-.262,1.867a24.213,24.213,0,0,1-.864,7.2c-.088.933-.155,1.862-.235,2.788.071.164.136.327.2.492a2.57,2.57,0,0,1,.941,1.824,38.971,38.971,0,0,1-.176,6.883l.1.27a2.706,2.706,0,0,1,.523.745,28.294,28.294,0,0,1,1.279,4.015,3.348,3.348,0,0,1,.1,1.557c.009.073.016.146.025.22.036.073.076.143.106.222.073.2.139.394.2.592.456.416.078,1,.173,1.712.191,1.457-.234,3.181-1.8,3.246-1.413.059-2.82-.009-4.22.094l-.006,0a.375.375,0,0,1-.44.206l-.256.045c-.1.081-.194.165-.288.249a16.734,16.734,0,0,1-1.236,1.5,4.584,4.584,0,0,1-.2.771.412.412,0,0,1,0,.046,10.392,10.392,0,0,1-.328,1.737,4.9,4.9,0,0,1,.078,1.29.309.309,0,0,1,.038.07,8.285,8.285,0,0,1,.238,1.208c.243.785.4,1.595.606,2.392a.438.438,0,0,1,.013.139c.057.156.116.312.168.47a3.6,3.6,0,0,1,.15.636c.27.519.506,1.053.758,1.583a2.492,2.492,0,0,1,.437.733c.2.529.379,1.061.558,1.6a3.445,3.445,0,0,1,.174,1.137.507.507,0,0,1,.094.121,22.864,22.864,0,0,1,1.377,2.848,16.806,16.806,0,0,1,.786,1.748,9.427,9.427,0,0,1,.411,1.077.386.386,0,0,1,.1.1,4.864,4.864,0,0,1,.612,1.693c.027.071.058.14.084.21a.311.311,0,0,1,.052.1c.019.064.042.127.063.191.033.088.061.177.093.267a.419.419,0,0,1,.149.183,7.736,7.736,0,0,1,.33,1.051c0,.009,0,.017,0,.026.167.452.357.9.518,1.352a.359.359,0,0,1,.121.116c.1.153.19.3.276.461q.259.43.549.84c.14.142.281.284.431.415.259.124.515.254.774.379.011,0,.021,0,.032,0a4.562,4.562,0,0,1,.848.2,11.451,11.451,0,0,1-2.462-5.707,38.541,38.541,0,0,0-2.56-7.244.87.87,0,0,1-.224-.36c-.02-.058-.041-.119-.061-.178-.008-.018-.018-.032-.026-.051-.064-.174-.128-.348-.192-.522a.988.988,0,0,1-.11-.208c-.127-.335-.257-.668-.387-1-.065-.133-.13-.267-.191-.4-.182-.364-.354-.731-.5-1.113l-.516-1.37a.916.916,0,0,1-.06-.386,10.421,10.421,0,0,1-.582-6.284,3.934,3.934,0,0,1,2.711-2.882,3.239,3.239,0,0,1,3.7.745.832.832,0,0,1,.1.917,4.375,4.375,0,0,1,.985,2.06.774.774,0,0,1-.339.841,5.5,5.5,0,0,1,.487,1.95.968.968,0,0,1-.912,1c.033.883.032,1.772.133,2.653.2,1.779.346,3.562.715,5.317a.812.812,0,0,1-.087.617,7.308,7.308,0,0,1,.322,1.352c.612,1.242,1.23,2.48,1.78,3.759a.878.878,0,0,1,.073.451c.807.636-.249,1.951-1.213,1.387-.044-.026-.083-.057-.125-.084l.04.113a.831.831,0,0,1,.342.4,6.717,6.717,0,0,1,.275.869.823.823,0,0,1,.009.422c.008.041.016.082.025.122a.785.785,0,0,1-.385.864,5.376,5.376,0,0,0,.747.894,1.024,1.024,0,0,1-.3,1.656.464.464,0,0,1,0,.25.409.409,0,0,1,.093.208c.007.046.013.092.019.138a5.3,5.3,0,0,1,.159.725,3.481,3.481,0,0,1,.126,1.05.082.082,0,0,1,0,.016.458.458,0,0,1,.153.268c.018.086.031.175.05.263q.081.3.149.6c.407,1.6.738,3.214,1.075,4.827.727,2.172,1.177,4.425,1.7,6.653a.4.4,0,0,1,0,.194l.111.4c.087.171.166.344.242.52.009.012.019.023.028.037.021.035.041.071.061.106h0v0a45.817,45.817,0,0,1,2.342,5.377.517.517,0,0,1,.557-.174c.436.142.7.652.9,1.023.036.068.069.136.1.2a9.117,9.117,0,0,1,.882,1.944c.379.9.9,1.72,1.287,2.61.149.263.287.533.411.809a3.774,3.774,0,0,1,1.18,1.526l.259.443.064.089c.089-.3.416-.54.693-.269a10.164,10.164,0,0,1,1.916,3.023,17.046,17.046,0,0,0,.795,1.542,2.664,2.664,0,0,1,1.471,2.028,3.988,3.988,0,0,1,.273,1.475c0,.205,0,.409,0,.615a3.584,3.584,0,0,1,.107,1.02c-.166,4.168-.042,8.361-.336,12.52a.477.477,0,0,1,.359.486c0,.127-.008.253-.012.38q.336.016.674.026a.506.506,0,0,1,.283-.076c.233,0,4.8.146,5.239.187a106.954,106.954,0,0,0-.68-11.691c-.206-.074,1.329-.265,1.232-.544-1.847-5.384-2.886-11.015-4.878-16.351-1.814-4.856,1.423-.408-2.77-3.342-12.878-9.01-20.08-47.091-14.527-71.03,2.729-11.77,13.973-29.429,22.956-25.551,13,5.612,17.079.194,18.584-1.31l.343-16.941Z" transform="translate(-2362.286 -1485.323)" fill="#d2ceed"/>
        <path id="Trazado_7253" data-name="Trazado 7253" d="M2507.248,1869.471l7.917.118,3.959.059a15.832,15.832,0,0,0,3.826-.263,6.007,6.007,0,0,0,3.156-1.769.785.785,0,0,0,.021-1.082.771.771,0,0,0-1.082-.022,5.119,5.119,0,0,1-3.357,1.544,37.044,37.044,0,0,1-4.666.029l-9.745-.146a.765.765,0,0,0-.03,1.529Z" transform="translate(-2464.744 -1750.352)" fill="#d2ceed"/>
        <path id="Trazado_7254" data-name="Trazado 7254" d="M2711.7,1743.274c.5-2.462-.091-5.264-2.387-6.634a4.01,4.01,0,0,0-5.777,1.717.769.769,0,0,0,.922.959,7.382,7.382,0,0,0,1.376-.78,1.957,1.957,0,0,1,.865-.291,2.651,2.651,0,0,1,1.888.66c1.308,1.147,1.155,3.18.379,4.6l1.321.027a2.366,2.366,0,0,1-.1-1.085,7.179,7.179,0,0,0-.032-1.32,3.577,3.577,0,0,0-1.126-2.088,3.661,3.661,0,0,0-4.713-.128l1.06,1.1a1.451,1.451,0,0,1,1.461-.1,2.522,2.522,0,0,1,1.18,1.293c.311.656.348,1.4.621,2.07a2.168,2.168,0,0,0,1.787,1.419.763.763,0,0,0,.668-.365,2.815,2.815,0,0,0,.377-2.406c-.285-.939-1.77-.57-1.483.375a1.336,1.336,0,0,1-.2,1.231l.668-.367c-.512-.058-.61-1.244-.711-1.634a5.18,5.18,0,0,0-1.106-2.145,3.149,3.149,0,0,0-4.321-.475.773.773,0,0,0-.022,1.082.785.785,0,0,0,1.082.021,2.1,2.1,0,0,1,2.9.463,2.358,2.358,0,0,1,.4,1.522,4.869,4.869,0,0,0,.28,2.278.771.771,0,0,0,1.321.027c1.075-1.969,1.244-4.738-.511-6.394a4.328,4.328,0,0,0-2.752-1.2,3.519,3.519,0,0,0-1.566.3c-.484.212-.865.642-1.361.816l.922.96a2.271,2.271,0,0,1,1.563-1.182,2.7,2.7,0,0,1,2.126.447,4.573,4.573,0,0,1,1.542,4.781.787.787,0,0,0,.515.952.772.772,0,0,0,.952-.515Z" transform="translate(-2607.461 -1655.97)" fill="#d2ceed"/>
        <path id="Trazado_7255" data-name="Trazado 7255" d="M2520.184,1717.343c1.256-1.513,1.251-3.706,1.441-5.568a.771.771,0,0,0-.749-.781.785.785,0,0,0-.781.75l-.571,3.973,1.529.03q-.017-8.6.614-17.193.181-2.457.416-4.91l-1.506.174a6.416,6.416,0,0,1,.047,1.926.772.772,0,0,0,.749.78.781.781,0,0,0,.78-.749,7.806,7.806,0,0,0-.093-2.335.76.76,0,0,0-.828-.564.772.772,0,0,0-.68.737q-.816,8.567-.987,17.177-.048,2.463-.042,4.927a.765.765,0,1,0,1.529.031l.571-3.972-1.53-.032c-.081.79-.128,1.586-.258,2.369a8.832,8.832,0,0,1-.289,1.237,4.454,4.454,0,0,1-.17.453,3.622,3.622,0,0,1-.256.437.789.789,0,0,0-.021,1.082.769.769,0,0,0,1.082.022Z" transform="translate(-2473.71 -1624.69)" fill="#d2ceed"/>
        <path id="Trazado_7256" data-name="Trazado 7256" d="M2513.918,1773.329a4.56,4.56,0,0,0,1.225.842.864.864,0,0,0,.588.087l.184-.073a.576.576,0,0,0,.219-.192.381.381,0,0,0,.1-.167.574.574,0,0,0,.072-.293.808.808,0,0,0-.213-.546,10.7,10.7,0,0,0-1.084-1.012.863.863,0,0,0-.537-.235.782.782,0,0,0-.545.214.771.771,0,0,0-.234.537l.023.2a.756.756,0,0,0,.19.341,10.887,10.887,0,0,1,1.084,1.011l.95-1.182a3.923,3.923,0,0,1-.839-.514l.152.123q-.12-.1-.233-.2a.806.806,0,0,0-.537-.235.781.781,0,0,0-.544.212.764.764,0,0,0-.023,1.081Z" transform="translate(-2469.939 -1681.837)" fill="#d2ceed"/>
        <path id="Trazado_7257" data-name="Trazado 7257" d="M2515.445,1774.21l.838.112a.765.765,0,0,0,.683-1.137,6.514,6.514,0,0,0-2.121-1.925.8.8,0,0,0-.588-.088.765.765,0,0,0-.211,1.394,5.885,5.885,0,0,1,.811.547l-.153-.123a5.818,5.818,0,0,1,1,1.046l-.117-.157.038.051.683-1.137-.838-.113a.766.766,0,0,0-.566,1.3l.153.123a.756.756,0,0,0,.384.112Z" transform="translate(-2469.933 -1681.409)" fill="#d2ceed"/>
        <path id="Trazado_7258" data-name="Trazado 7258" d="M2520.678,1703.719q.137,3.774-.008,7.55l1.529.031,0-7.446a.765.765,0,0,0-1.53-.031l0,7.446a.765.765,0,0,0,1.529.031q.145-3.773.007-7.551C2522.171,1702.77,2520.642,1702.733,2520.678,1703.719Z" transform="translate(-2474.99 -1632.028)" fill="#d2ceed"/>
        <path id="Trazado_7259" data-name="Trazado 7259" d="M2514.526,1725.665a3.033,3.033,0,0,0,1.771.837.77.77,0,0,0,.757-.953,1.692,1.692,0,0,0-1.545-1.278.772.772,0,0,0-.683,1.137,2.308,2.308,0,0,0,2.036,1.271.777.777,0,0,0,.78-.749l.392-9.434-1.53-.03q.1,3.777,0,7.557l1.53.031-.1-16.019a.766.766,0,0,0-1.53-.032l-.983,13.695a.771.771,0,0,0,.75.78.784.784,0,0,0,.78-.749,68.4,68.4,0,0,0,.274-11.8c-.02-.982-1.551-1.018-1.53-.031a68.5,68.5,0,0,1-.274,11.8l1.53.031.984-13.693-1.53-.032.1,16.02a.766.766,0,0,0,1.53.031q.1-3.777,0-7.557a.766.766,0,0,0-1.53-.03l-.393,9.433.779-.75a.78.78,0,0,1-.73-.486l-.684,1.137c.066.007.072.041.094.125l.757-.953a1.3,1.3,0,0,1-.7-.367c-.711-.679-1.816.378-1.1,1.06Z" transform="translate(-2470.375 -1635.131)" fill="#d2ceed"/>
        <path id="Trazado_7260" data-name="Trazado 7260" d="M2515.279,1768.748a3.544,3.544,0,0,0,1.293-.256l.185-.073a.59.59,0,0,0,.218-.193.384.384,0,0,0,.1-.166.573.573,0,0,0,.071-.294.9.9,0,0,0-.1-.388.788.788,0,0,0-.45-.36,3.276,3.276,0,0,0-.488-.122,4.744,4.744,0,0,0-.685-.078.786.786,0,0,0-.545.213.851.851,0,0,0-.235.536.773.773,0,0,0,.214.545.8.8,0,0,0,.537.235,3.472,3.472,0,0,1,.43.039l-.2-.033a3.315,3.315,0,0,1,.538.131l.031-1.474a3.342,3.342,0,0,1-.83.217l.2-.023a2.392,2.392,0,0,1-.259.013.793.793,0,0,0-.546.215.842.842,0,0,0-.234.535.772.772,0,0,0,.213.545A.789.789,0,0,0,2515.279,1768.748Z" transform="translate(-2470.545 -1678.269)" fill="#d2ceed"/>
        <path id="Trazado_7261" data-name="Trazado 7261" d="M2515.77,1736.873c-.108,1.186-.242,2.368-.392,3.548a.766.766,0,0,0,.749.78.785.785,0,0,0,.781-.749c.15-1.181.284-2.364.394-3.548a.769.769,0,0,0-.751-.781A.783.783,0,0,0,2515.77,1736.873Z" transform="translate(-2471.159 -1656.03)" fill="#d2ceed"/>
        <path id="Trazado_7262" data-name="Trazado 7262" d="M2517.1,1730.038q-.041.628-.093,1.256a.765.765,0,0,0,1.294.567l.123-.152a.768.768,0,0,0,.112-.384q.052-.627.093-1.255a.765.765,0,0,0-1.295-.567A.828.828,0,0,0,2517.1,1730.038Z" transform="translate(-2472.34 -1651.078)" fill="#d2ceed"/>
        <path id="Trazado_7263" data-name="Trazado 7263" d="M2518.188,1699.213c-.166,4.455.33,8.971-.506,13.38l1.5.233a119.176,119.176,0,0,0,1.145-18.021.765.765,0,0,0-1.528-.032l-.3,14.391,1.529.03c.052-4.726.1-9.451.1-14.178a.766.766,0,0,0-1.53-.031c0,4.726-.049,9.452-.1,14.179a.765.765,0,0,0,1.529.03l.3-14.388-1.529-.032a119.454,119.454,0,0,1-1.145,18.022c-.1.848,1.338,1.082,1.5.234.863-4.559.4-9.183.568-13.787A.765.765,0,0,0,2518.188,1699.213Z" transform="translate(-2472.803 -1625.546)" fill="#d2ceed"/>
        <path id="Trazado_7264" data-name="Trazado 7264" d="M2520.921,1711.835l.105-1.275a.765.765,0,0,0-1.295-.568l-.122.152a.757.757,0,0,0-.112.384l-.105,1.275a.764.764,0,0,0,.747.78h0a.769.769,0,0,0,.545-.213l.123-.152A.757.757,0,0,0,2520.921,1711.835Z" transform="translate(-2474.068 -1636.942)" fill="#d2ceed"/>
        <path id="Trazado_7265" data-name="Trazado 7265" d="M2516.435,1720.6l-.421,7.025c-.059.987,1.449,1.006,1.53.03l.894-10.841c.081-.982-1.45-1.009-1.53-.031l-.894,10.842,1.53.03.42-7.024c.059-.983-1.471-1.014-1.529-.031Z" transform="translate(-2471.619 -1641.494)" fill="#d2ceed"/>
        <path id="Trazado_7266" data-name="Trazado 7266" d="M2515.422,1765.375c.187-.057.377-.111.564-.166l-.377-1.483a3.34,3.34,0,0,0-.466.182,1.944,1.944,0,0,0-.271.157.851.851,0,0,0-.361.45.583.583,0,0,0-.02.3.573.573,0,0,0,.084.286l.117.157a.766.766,0,0,0,.333.2l.2.031a.767.767,0,0,0,.388-.1,1.972,1.972,0,0,1,.384-.206l-.184.073c.056-.022.111-.042.169-.06a.587.587,0,0,0,.263-.13.594.594,0,0,0,.2-.211.863.863,0,0,0,.087-.588l-.071-.185a.759.759,0,0,0-.268-.28l-.181-.081a.773.773,0,0,0-.406-.008c-.188.056-.377.11-.564.166a.847.847,0,0,0-.464.343.562.562,0,0,0-.1.283.581.581,0,0,0,.006.3l.074.184a.765.765,0,0,0,.269.28l.181.081a.767.767,0,0,0,.406.008Z" transform="translate(-2470.5 -1676.013)" fill="#d2ceed"/>
        <path id="Trazado_7267" data-name="Trazado 7267" d="M2515.5,1766.073a4.428,4.428,0,0,0,.5-.073,2.644,2.644,0,0,0,.3-.089l.185-.073a.586.586,0,0,0,.218-.192.389.389,0,0,0,.1-.167.571.571,0,0,0,.072-.294l-.023-.2-.073-.184a.576.576,0,0,0-.192-.219.569.569,0,0,0-.258-.142,1.659,1.659,0,0,0-.268-.074,3.052,3.052,0,0,0-.469-.058.579.579,0,0,0-.3.06.566.566,0,0,0-.249.153.577.577,0,0,0-.163.243.585.585,0,0,0-.072.292l.024.2a.764.764,0,0,0,.19.341l.152.122a.764.764,0,0,0,.384.113,1.5,1.5,0,0,1,.222.019l-.2-.032a1.559,1.559,0,0,1,.312.081l.03-1.475a2.612,2.612,0,0,1-.585.136l.2-.023h-.011a.578.578,0,0,0-.3.06.785.785,0,0,0-.485.689l.023.2a.773.773,0,0,0,.19.341l.153.122a.755.755,0,0,0,.383.112Z" transform="translate(-2470.701 -1676.449)" fill="#d2ceed"/>
        <path id="Trazado_7268" data-name="Trazado 7268" d="M2516.475,1743.406a15.975,15.975,0,0,1,.474-1.761l-1.5-.233a29.687,29.687,0,0,1-.175,6,.769.769,0,0,0,.749.78.783.783,0,0,0,.781-.749,21.576,21.576,0,0,0,.173-4.858l-1.506.173a12.356,12.356,0,0,1,.356,4.848l1.529.031q.1-1.943.055-3.886a.765.765,0,0,0-1.529-.03,20.185,20.185,0,0,1-.446,4.106l1.133-.434c-.22-.153-.438-.31-.661-.46-.818-.553-1.612.754-.8,1.3.222.151.441.307.661.461a.77.77,0,0,0,1.133-.435,22.209,22.209,0,0,0,.508-4.512l-1.529-.03q.048,1.945-.056,3.886a.765.765,0,1,0,1.529.031,13.51,13.51,0,0,0-.4-5.257.765.765,0,0,0-.827-.565.755.755,0,0,0-.678.737,21.539,21.539,0,0,1-.174,4.858l1.53.031a29.747,29.747,0,0,0,.174-6,.766.766,0,0,0-1.5-.233,16.206,16.206,0,0,0-.475,1.761.787.787,0,0,0,.515.952A.772.772,0,0,0,2516.475,1743.406Z" transform="translate(-2470.72 -1659.325)" fill="#d2ceed"/>
        <path id="Trazado_7269" data-name="Trazado 7269" d="M2515.564,1723.764q-.318,4.944-1.013,9.854a.77.77,0,0,0,.749.78.784.784,0,0,0,.78-.75q.7-4.906,1.013-9.854C2517.156,1722.812,2515.627,1722.783,2515.564,1723.764Z" transform="translate(-2470.557 -1646.552)" fill="#d2ceed"/>
        <path id="Trazado_7270" data-name="Trazado 7270" d="M2517.052,1711.064q.1-.617.217-1.233l-1.5-.234-.751,8.1a.769.769,0,0,0,1.416.414c2.5-5.23,1.5-11.017,2.018-16.592a.771.771,0,0,0-.749-.78.786.786,0,0,0-.781.75q-1.133,7.495-1.629,15.064l1.529.031.383-7.208c.052-.984-1.476-1.014-1.529-.031l-.383,7.208c-.052.986,1.465,1.011,1.529.031q.5-7.563,1.63-15.065l-1.53-.03c-.489,5.244.562,10.905-1.792,15.825l1.416.415.754-8.1c.079-.848-1.341-1.086-1.5-.234q-.114.615-.217,1.233a.79.79,0,0,0,.515.952.77.77,0,0,0,.951-.516Z" transform="translate(-2470.898 -1630.394)" fill="#d2ceed"/>
        <path id="Trazado_7271" data-name="Trazado 7271" d="M2516.973,1739.409q.13-1.047.291-2.092l-.031.2c.02-.129.041-.259.061-.388a.843.843,0,0,0-.065-.591.764.764,0,0,0-1.04-.3.733.733,0,0,0-.361.45q-.216,1.339-.385,2.683a.765.765,0,0,0,1.3.567.875.875,0,0,0,.235-.536Z" transform="translate(-2471.206 -1656.049)" fill="#d2ceed"/>
        <path id="Trazado_7272" data-name="Trazado 7272" d="M2522.512,1696.625q.166-.929.344-1.857a.829.829,0,0,0-.065-.591.778.778,0,0,0-.45-.36.769.769,0,0,0-.59.065.872.872,0,0,0-.362.45q-.179.445-.326.9a.773.773,0,0,0,.515.952.781.781,0,0,0,.951-.515c.1-.3.205-.6.326-.9l-1.467-.437q-.179.927-.344,1.856a.838.838,0,0,0,.064.593.785.785,0,0,0,.45.361.775.775,0,0,0,.591-.065.742.742,0,0,0,.361-.45Z" transform="translate(-2475.246 -1625.353)" fill="#d2ceed"/>
        <path id="Trazado_7273" data-name="Trazado 7273" d="M2516.91,1742.347q.075-1.258.178-2.512a.771.771,0,0,0-.749-.78.783.783,0,0,0-.781.749q-.1,1.256-.177,2.512a.771.771,0,0,0,.749.781.782.782,0,0,0,.78-.749Z" transform="translate(-2471.162 -1658.154)" fill="#d2ceed"/>
        <path id="Trazado_7274" data-name="Trazado 7274" d="M2515.278,1736.4l-.449,6.805,1.53.031q.029-.944.073-1.888a.765.765,0,0,0-1.529-.031q-.044.944-.073,1.888a.766.766,0,0,0,1.53.031l.448-6.806a.764.764,0,1,0-1.529-.03Z" transform="translate(-2470.761 -1655.688)" fill="#d2ceed"/>
        <path id="Trazado_7275" data-name="Trazado 7275" d="M2454.184,1715.868a2.359,2.359,0,0,0,1.178-.343.787.787,0,0,0,.37-.857.765.765,0,0,0-.726-.575,1.4,1.4,0,0,0-1.165.691c-.259.454.027,1.222.637,1.164a3.537,3.537,0,0,0,1.8-.633.777.777,0,0,0,.333-.948.758.758,0,0,0-.894-.462,1.226,1.226,0,0,0-.888.925.776.776,0,0,0,.718.983,2.419,2.419,0,0,0,1.6-.646l-1.058-1.1-.638.657c-.5.52-.046,1.531.718,1.293a7.143,7.143,0,0,0,2.006-.969l-.9-1.221-.577.559a.771.771,0,0,0,.718,1.293,10.433,10.433,0,0,0,1.692-.636l-.9-1.22-.791.69c-.672.586.149,1.608.9,1.219a14.677,14.677,0,0,1,2.08-.882l-.561-1.409a2.539,2.539,0,0,0-.855.614c-.474.518-.061,1.556.718,1.294q1-.339,2.025-.631l-.841-1.141-.216.305a.769.769,0,0,0,.637,1.164,9.334,9.334,0,0,0,2.142-.4l-.841-1.141-.278.375a.772.772,0,0,0,.841,1.141,8.564,8.564,0,0,1,1.631-.364l-.922-.96c0,.016-.006.066-.027.074a.789.789,0,0,0-.552.93.776.776,0,0,0,.931.554l.979-.238a.766.766,0,0,0-.375-1.484l-.982.238.379,1.484a1.766,1.766,0,0,0,1.116-1.121c.209-.61-.384-1.025-.922-.96a8.619,8.619,0,0,0-1.63.363l.841,1.141.278-.375a.772.772,0,0,0-.841-1.141,7.611,7.611,0,0,1-1.736.349l.637,1.164.216-.305a.772.772,0,0,0-.84-1.141q-1.02.292-2.026.632l.719,1.292a1.478,1.478,0,0,1,.541-.382c.788-.344.261-1.685-.561-1.41a17.266,17.266,0,0,0-2.449,1.029l.9,1.219.792-.69c.683-.6-.15-1.579-.9-1.22a8.046,8.046,0,0,1-1.323.49l.719,1.293.577-.559a.766.766,0,0,0-.9-1.22,5.8,5.8,0,0,1-1.637.823l.717,1.293.637-.658a.765.765,0,0,0-1.06-1.1.761.761,0,0,1-.506.218l.717.983q.075-.277-.2.122l-.56-1.409a2.1,2.1,0,0,1-1.027.44l.637,1.164c-.005-.072-.062-.058-.17.039l-.357-1.433a.793.793,0,0,1-.4.15.782.782,0,0,0-.78.749.771.771,0,0,0,.749.78Z" transform="translate(-2426.278 -1639.375)" fill="#d2ceed"/>
        <path id="Trazado_7276" data-name="Trazado 7276" d="M2582.937,1716.17c.105-.186.136-.237.094-.154a1.705,1.705,0,0,1-.189.11.77.77,0,0,0,.357,1.433,9.853,9.853,0,0,0,2.423-.442l-.562-1.409a1.593,1.593,0,0,0-.716.651.77.77,0,0,0,.636,1.163,5.633,5.633,0,0,0,2.025-.552l-1.025-1.065-.287.418a.759.759,0,0,0,.042.851.8.8,0,0,0,.8.29q.962-.118,1.92-.253l-.841-1.141a1.037,1.037,0,0,0,.091,1.233,1.3,1.3,0,0,0,1.153.4c.9-.084,1.79-.213,2.683-.318l-.718-1.294a1.321,1.321,0,0,0-.457.694.775.775,0,0,0,.54.954.765.765,0,0,0,.179.027,9.052,9.052,0,0,1,1.654.322l.234-1.5-1.442.1-.031,1.53a9.9,9.9,0,0,0,1.81-.3.766.766,0,0,0-.377-1.483,7.624,7.624,0,0,1-1.4.255.785.785,0,0,0-.78.75.769.769,0,0,0,.749.78l1.442-.1a.768.768,0,0,0,.234-1.5,11.317,11.317,0,0,0-2.06-.384l.718.983c-.069.065-.052.056.05-.027a.769.769,0,0,0,.138-.925.8.8,0,0,0-.858-.369l-1.386.167-.656.079c-.1.011-.195.027-.292.035a.9.9,0,0,1-.133.009q-.289-.013.253.242l-.008.407-.025.036a.774.774,0,0,0-.841-1.14q-.959.134-1.919.252l.841,1.141.287-.421c.458-.669-.381-1.382-1.025-1.067a3.591,3.591,0,0,1-1.249.359l.637,1.164c.069-.114.036-.06.156-.114.79-.345.263-1.674-.561-1.409a8.263,8.263,0,0,1-2.014.4l.358,1.433a1.424,1.424,0,0,0,.88-1.261.782.782,0,0,0-.749-.78A.771.771,0,0,0,2582.937,1716.17Z" transform="translate(-2519.771 -1641.03)" fill="#d2ceed"/>
        <path id="Trazado_7277" data-name="Trazado 7277" d="M2400.819,1741.836l-1.147-.45,0,.12a.819.819,0,0,1,.026.846l.2,6.36,1.525.372s-.13-2.644-.142-3.789A27.171,27.171,0,0,0,2400.819,1741.836Z" transform="translate(-2387.323 -1659.843)" fill="#d2ceed"/>
        <path id="Trazado_7278" data-name="Trazado 7278" d="M2406.74,1805.495a18.247,18.247,0,0,0-2.193-1.959c-.018.043.307,3.413.457,4.955.033.1.067.192.1.288a.836.836,0,0,1,.343.4,6.842,6.842,0,0,1,.275.869.827.827,0,0,1,.009.423c.008.041.016.081.025.122a.816.816,0,0,1,0,.344c.04.077.073.125.09.124.114,0,1.811-1.516,1.811-1.516S2406.758,1805.722,2406.74,1805.495Z" transform="translate(-2390.855 -1704.874)" fill="#d2ceed"/>
        <path id="Trazado_7279" data-name="Trazado 7279" d="M2423.472,1607.552a10.988,10.988,0,0,0,1.578,4.25.3.3,0,0,0,.528-.237c-.78-3.278.454-6.619,1.9-9.781,2.06-4.51-2.8,3.548-2.8,3.548Z" transform="translate(-2404.568 -1557.699)" fill="#d2ceed"/>
        <path id="Trazado_7280" data-name="Trazado 7280" d="M2519.512,1794.343a10.665,10.665,0,0,0-3.813-.424,23.346,23.346,0,0,1-3.658.409,18.712,18.712,0,0,1-3.468-.846,17.408,17.408,0,0,0-1.786-.4,4.582,4.582,0,0,0-2.012-.066.765.765,0,0,0,.375,1.483,3.683,3.683,0,0,1,1.615.125c.576.114,1.143.262,1.708.426a17.772,17.772,0,0,0,3.535.812,19.865,19.865,0,0,0,3.518-.4,9.341,9.341,0,0,1,3.548.35A.765.765,0,0,0,2519.512,1794.343Z" transform="translate(-2463.078 -1697.182)" fill="#4c18b2"/>
        <path id="Trazado_7281" data-name="Trazado 7281" d="M2468.211,1510.246c-3.814-4.485-3.109-10.864-4.855-16.164a15.613,15.613,0,0,0-.891-2.171,6.242,6.242,0,0,0-.36-.666c-.06-.211-.122-.421-.184-.631a17.556,17.556,0,0,0,2.064.316,16.826,16.826,0,0,0,4.236-.156c.2-.034.165-.306.008-.369a17.593,17.593,0,0,1-4.1-2.242,14.965,14.965,0,0,1-2.974-3.1c-1.6-2.18-2.82-4.618-4.442-6.787a13.55,13.55,0,0,0-6.644-4.942,13.022,13.022,0,0,0-2.144-.5c-.262-3.175.389-6.606,3.052-8.642.156-.118-.005-.372-.179-.323a15.246,15.246,0,0,0-6.131,2.8,16.2,16.2,0,0,0-1.879-4.781,15.546,15.546,0,0,0-4.6-4.951c-2.3-1.57-5.051-2.3-7.4-3.79-2.6-1.653-4.8-4.36-4.524-7.609a.193.193,0,0,0-.324-.142,9.744,9.744,0,0,0-2.514,8.115,25.033,25.033,0,0,0-11.882-5.528,30.094,30.094,0,0,0-9.047-.175,45.5,45.5,0,0,0-9.029,2.358c-3.289,1.131-7.747,1.771-11.193.673a.033.033,0,0,1-.012,0l-.019-.005h0a.221.221,0,0,0-.061-.009l-.029,0a.165.165,0,0,0-.156.174.167.167,0,0,0,.01.049c0,.01.007.018.011.027a.125.125,0,0,0,.012.03,9.879,9.879,0,0,0,3.812,5c-3.963,1.9-8.241,3.224-12.13,5.277-5.577,2.944-10.487,7.864-12.462,13.958a14.887,14.887,0,0,0-.66,6.7,25.63,25.63,0,0,0-2.444,6.407,25.155,25.155,0,0,0-.66,6.523c.08,2.525.79,5.022.628,7.553a11.093,11.093,0,0,1-3.219,7.073.193.193,0,0,0,.128.329,9.9,9.9,0,0,0,8.567-4.871,47.924,47.924,0,0,1-1.76,8.541,11.589,11.589,0,0,1-3.418,5.24.193.193,0,0,0,.129.329,8.687,8.687,0,0,0,4.85-2.316,24.444,24.444,0,0,1-1.638,6.79,4.52,4.52,0,0,0-.832.178,5.1,5.1,0,0,0-3.044,2.573,8.478,8.478,0,0,0-.732,4.413c.272,3.083,1.644,5.976,2.872,8.775a92.9,92.9,0,0,1,3.883,8.886c.511,1.6.9,3.374,2.018,4.683a4.728,4.728,0,0,0,3.614,1.671l.014.072,0,1.415a1.019,1.019,0,0,0,.261.549c.021.141-.077.379-.057.521a.766.766,0,0,0,.1.24c.124.622.093,1.253.216,1.874q.085,1.006.17,2.013a.917.917,0,0,0,.026.158q.082,1.032.165,2.064a.9.9,0,0,0,.264.58c.017.148.035.3.052.443q.056,1.881.265,3.756a.848.848,0,0,0,.485.724q.137.784.274,1.568a.63.63,0,0,0,.335.459c.03.154.058.309.087.464a.648.648,0,0,0,.443.516l.16,1.131a.618.618,0,0,0,.432.511q.083.4.167.8c.028.156.06.312.1.467a.685.685,0,0,0,.419.5q.1.589.208,1.177a.628.628,0,0,0,.171.334q.082.483.163.967a.644.644,0,0,0,.285.421q.088.407.177.814a.691.691,0,0,0,.582.541q.1.322.209.645a.844.844,0,0,0,.356.462c.053.237.105.474.159.712a.725.725,0,0,0,.362.47l.084.342q.131.809.263,1.618a.666.666,0,0,0,.641.552l.3.982a.794.794,0,0,0,.546.547c.04.109.081.219.125.327l0,.016h0c.024.062.045.125.07.186a.681.681,0,0,0,.573.378l.184.5a.971.971,0,0,0,.16.283,14.087,14.087,0,0,0,.869,1.841.71.71,0,0,0,.38.324l.049.128a.84.84,0,0,0,.657.569c.064.151.129.3.194.453a.623.623,0,0,0,.366.36l.1.28a.761.761,0,0,0,.563.52q.224.566.447,1.133a.8.8,0,0,0,.846.566l.185.339a.716.716,0,0,0,.86.346l.1.181a.718.718,0,0,0,.2.232,9.626,9.626,0,0,0,.678,1.2.8.8,0,0,0,.717.358c0,.049,0,.1-.007.146a1.748,1.748,0,0,1,.312.122,87.316,87.316,0,0,0-.513,9.853c.015.736,1.162.764,1.147.024a82.72,82.72,0,0,1,.452-9.191,2.9,2.9,0,0,1,.35.308c0-.019,0-.039,0-.059a.715.715,0,0,0,.486.044h0l.007.008a.741.741,0,0,0,.714.2l.026.031a.651.651,0,0,0,.749.2l.184.223a.634.634,0,0,0,.661.223c.031.032.065.061.1.093a2.729,2.729,0,0,0,1.193.872.631.631,0,0,0,.427,0l.482.466a.753.753,0,0,0,.836.161,2.832,2.832,0,0,0,1.167.548,1.128,1.128,0,0,0,.7-.132,1.3,1.3,0,0,0,.659.257,1,1,0,0,0,.409-.058.781.781,0,0,0,.576.117l.1.084a.785.785,0,0,0,1.082.022.739.739,0,0,0,.18-.292l.041-.037c.045.03.089.062.134.091a.713.713,0,0,0,.557.1c.123.071.245.14.374.2a.849.849,0,0,0,.835-.047,4.534,4.534,0,0,0,.473.2.694.694,0,0,0,.107.026.725.725,0,0,0,.3.182,5.958,5.958,0,0,0,1.077.524,33.762,33.762,0,0,1,1.095-.2.8.8,0,0,0,.679-.062.713.713,0,0,0,.6-.016.77.77,0,0,0,.577.01.671.671,0,0,0,.676-.042c.05.018.1.041.147.057a.674.674,0,0,0,.658-.111,3.483,3.483,0,0,0,.473.1.553.553,0,0,0,.281-.042.234.234,0,0,0,.034.014,1.7,1.7,0,0,0,1,.287.884.884,0,0,0,.479-.211l0,0a.824.824,0,0,0,.859-.059.764.764,0,0,0,.884.1.855.855,0,0,0,.495,0,.734.734,0,0,0,.9-.31l0,0a.839.839,0,0,0,.3.012.8.8,0,0,0,.5.113l.015,0a.834.834,0,0,0,.925.027.757.757,0,0,0,1.375-.4.742.742,0,0,0,.129-.123.908.908,0,0,0,.2-.039.727.727,0,0,0,.69.088.835.835,0,0,0,.8.118.733.733,0,0,0,.75-.335.743.743,0,0,0,.761-.243.908.908,0,0,0,.175-.018.8.8,0,0,0,.741.1.691.691,0,0,0,.343.039.751.751,0,0,0,.542-.331.825.825,0,0,0,.558-.257l1.143-.411a.761.761,0,0,0,.813-.459.794.794,0,0,0,.1-.064.732.732,0,0,0,.207.063.771.771,0,0,0,.831-.472.693.693,0,0,0,.266-.31.682.682,0,0,0,.705-.532v-.005a.773.773,0,0,0,.281-.173.753.753,0,0,0,.478-.294.767.767,0,0,0,.863-.134,2.743,2.743,0,0,0,.4-.554.631.631,0,0,0,.35-.212.771.771,0,0,0,.317-.064.7.7,0,0,0,.53-.406.664.664,0,0,0,.844-.411.677.677,0,0,0,.023-.087.79.79,0,0,0,.727-.745l0-.019a.676.676,0,0,0,.59-.506.684.684,0,0,0,.13,0,.779.779,0,0,0,.677-.732.24.24,0,0,1,.344-.123.755.755,0,0,0,.851-.531c.02-.13.04-.261.061-.392a.632.632,0,0,0,.4-.476l.15-.714a.662.662,0,0,1,.916-.29.766.766,0,0,0,.839-.494.791.791,0,0,0,.717-.744c.033-.216.065-.432.1-.647a.731.731,0,0,0,.511-.379.787.787,0,0,0,.563-.714q.037-.289.074-.58a.717.717,0,0,0,.6-.5.825.825,0,0,0,.206-.061c0-.008.005-.017.009-.025a1.983,1.983,0,0,1,.437-.662q.757,5.957,2.008,11.836c.153.722,1.266.44,1.111-.283q-1.377-6.467-2.154-13.042a1.787,1.787,0,0,1,.662-.587.805.805,0,0,0,.238-.507l.019-.17a.828.828,0,0,0,.636-.709l.01-.094q.505-.622,1.07-1.191l.088-.628a.8.8,0,0,0,.614-.735l.006-.041a.7.7,0,0,0,.686-.53c.046-.211.086-.424.128-.635a.774.774,0,0,0,.5-.672l.031-.269a.9.9,0,0,0,.343-.619c.027-.191.052-.385.077-.577a.719.719,0,0,0,.644-.716c.017-.425.044-.85.076-1.275a.683.683,0,0,0,.562-.7v-.123a.8.8,0,0,0,.116-.192.875.875,0,0,0,.161-.438q.049-.587.1-1.174.09-.659.179-1.318a.75.75,0,0,0,.515-.651.839.839,0,0,0,.185-.467c.008-.09.019-.182.027-.272a.709.709,0,0,0,.188-.488q.009-.609.02-1.216a.879.879,0,0,0,.187-.467l.033-.319a.676.676,0,0,0,.215-.537l0-.139a.956.956,0,0,0,.074-.28c.019-.179.039-.358.057-.537a.684.684,0,0,0,.131-.291.589.589,0,0,0,.014-.119.761.761,0,0,0,.037-.264c0-.084,0-.171,0-.256a.745.745,0,0,0,.114-.389c0-.157.006-.314.009-.471a.6.6,0,0,0,.019-.217l-.013-.106,0-.133a.828.828,0,0,0,.167-.447c0-.011,0-.023,0-.035a.626.626,0,0,0,.011-.08v-.023a.842.842,0,0,0,.086-.171.684.684,0,0,0,.18-.441.7.7,0,0,0,.1-.353v-.079a.711.711,0,0,0,.042-.221q.015-.815.03-1.63a1.035,1.035,0,0,0,.021-.122c0-.017,0-.034,0-.051a.627.627,0,0,0,.186-.494q-.034-.6-.069-1.206a.746.746,0,0,0,.051-.271l0-.182a.727.727,0,0,0,.156-.646q-.083-.4-.167-.79a.186.186,0,0,1,.109-.3l.081-.181a.757.757,0,0,0,.027-.25,5.345,5.345,0,0,0-.125-.6,1.093,1.093,0,0,1-.057-.119,3.423,3.423,0,0,0,2.1.244c2.038-.376,3.287-2.184,4.063-3.955.89-2.034,1.378-4.209,2.074-6.31a35.121,35.121,0,0,1,2.651-5.691,24.963,24.963,0,0,0,2.394-5.449,14.172,14.172,0,0,0,.146-6.3,9.721,9.721,0,0,0-.822-2.613,7.069,7.069,0,0,0-1.015-1.4,6.668,6.668,0,0,0-1.9-1.494,5.847,5.847,0,0,0-2.186-.572,27.939,27.939,0,0,1,.494-7.109,17.107,17.107,0,0,0,3.116,3.735.193.193,0,0,0,.3-.226c-1.027-2.01-.712-4.323-.173-6.426.409-1.593.911-3.158,1.359-4.738a16.209,16.209,0,0,0,2.65,2.21,15.357,15.357,0,0,0,3.418,1.7C2468.211,1510.63,2468.328,1510.382,2468.211,1510.246Zm-14.232,11.347a11.212,11.212,0,0,0-1.111.276c.094-.655.2-1.319.283-1.969C2453.411,1520.473,2453.689,1521.036,2453.98,1521.593Zm-89.6,2.422c-.182-.072-.365-.136-.549-.191q.327-.459.61-.944A5.047,5.047,0,0,1,2364.38,1524.015Zm2.331,28.283a10.535,10.535,0,0,1-1.577-3.74,62.1,62.1,0,0,0-3.413-8.011c-.6-1.284-1.164-2.587-1.712-3.895a27.27,27.27,0,0,1-1.386-3.992c-.575-2.334-.715-5.637,1.5-7.2a3.928,3.928,0,0,1,1.139-.553q-.272.689-.551,1.369c-.139.34-.063.825,1.255-.421.279-.264.559-.526.828-.8a8.183,8.183,0,0,1,1.275.116c.083.017.167.034.251.054a.407.407,0,0,0,.094.048c.048.017.1.038.143.06l.088.044a5.459,5.459,0,0,1,.924.68,3.377,3.377,0,0,1,.882,1.014q.136,1.634.257,3.269c.3,3.964.569,7.934.9,11.9.12,1.422.365,2.841.575,4.251q.491,3.289,1.042,6.567c.034.206.07.41.105.615A3.7,3.7,0,0,1,2366.711,1552.3Zm58.089,16.944a3.1,3.1,0,0,0-.131,1.458,2.48,2.48,0,0,0-.213,1.035,2.062,2.062,0,0,0-.314,2.467,1.429,1.429,0,0,0-.069.21,3.2,3.2,0,0,0-.077,1.015.74.74,0,0,0-.082.383h0a.775.775,0,0,0-.775.688.762.762,0,0,0-.746.174,1.1,1.1,0,0,0-.28.44l-.02-.089a.769.769,0,0,0-1.507.173l-.011.208a.809.809,0,0,0-.211-.079.206.206,0,0,0,0-.025.386.386,0,0,0-.709-.208c-.052.089-.1.181-.149.272a.817.817,0,0,0-1.131.045.4.4,0,0,0-.563.088c-.106.144-.205.293-.3.443a13.08,13.08,0,0,0-1.556.445.84.84,0,0,0-.036.078c-.149-.82-1.427-.669-1.5.119a.712.712,0,0,0-.166.04.925.925,0,0,0-.081-.185.848.848,0,0,0-.094-.125l.027-.189a2.849,2.849,0,0,1-1.976-1.284c-.049-.29-.1-.579-.167-.866a.758.758,0,0,0-.772-.566c0-.042,0-.084-.007-.127a.877.877,0,0,0-.328-.637q.126-.733.187-1.48a.716.716,0,0,0-.224-.55c.009-.042.017-.083.025-.126a.157.157,0,0,1-.164-.024h-.042l0-.106a.489.489,0,0,0-.062-.249,4.474,4.474,0,0,0-.179-.733.653.653,0,0,0-.209-.3,2.339,2.339,0,0,0-.365-.9.656.656,0,0,0-.386-.273,1.767,1.767,0,0,0-.144-.239.588.588,0,0,0-.808-.2l-.025.016a.52.52,0,0,0-.418.052,2.266,2.266,0,0,0-.481.391c0-.017-.007-.033-.01-.05a.543.543,0,0,0-.644-.418.523.523,0,0,0-.072.02.787.787,0,0,0-1.032.221,1.073,1.073,0,0,0-.638-.038,1.115,1.115,0,0,0-.161.052.76.76,0,0,0-.155,0,.962.962,0,0,0-.7.5,1.23,1.23,0,0,0-.961.612.193.193,0,0,1-.012.02.577.577,0,0,0-.254.444l-.011.11a.546.546,0,0,0-.3.327.565.565,0,0,0-.849.608l.027.154a.57.57,0,0,0,0,.306q.068.269.136.538c-.013.017-.028.034-.04.05a1.681,1.681,0,0,0-.235,1.751c.011.159.02.318.031.477q-.5,1.633-1,3.266a.836.836,0,0,0-.174.1c-.189-.8-1.592-.656-1.5.2.016.141.031.284.047.426a.786.786,0,0,0-.757.148.8.8,0,0,0-.619-.092c0-.021-.005-.042-.009-.064-.113-.721-1.353-.768-1.475-.029-.013.079-.024.158-.036.237a.794.794,0,0,0-1.247.574,1.531,1.531,0,0,1-1.4.031l-.006-.043c-.071-.576-.771-.685-1.191-.427-.005-.039-.008-.08-.014-.12a.686.686,0,0,0-.794-.557l-.032.006a.876.876,0,0,0-.406-.474,1.015,1.015,0,0,0-.858-1.122,1.044,1.044,0,0,0-.014-1.476c-.024-.023-.049-.045-.075-.066a.847.847,0,0,0-.463-.244,1.346,1.346,0,0,0-.408-1.652q.072-.63.09-1.264a.285.285,0,0,0,0-.032c.008-.261.01-.522,0-.782a.358.358,0,0,0-.343-.373h0a1.21,1.21,0,0,0,0-.3,6.516,6.516,0,0,0-.558-1.932.611.611,0,0,0-.068-.111,3.494,3.494,0,0,0-.144-.954,1.308,1.308,0,0,0,.137-.288,2.49,2.49,0,0,0,0-1.072,1.566,1.566,0,0,1,.192-.627,1.5,1.5,0,0,0,.056-1.044,1.119,1.119,0,0,0-.084-.17,4.3,4.3,0,0,0,.013-2.231,1.393,1.393,0,0,0,.1-.205,1.077,1.077,0,0,0,.358-.344,1.185,1.185,0,0,0,.162-.617,1.029,1.029,0,0,0,.458-.754.423.423,0,0,0,.127-.069c.042-.033.081-.068.124-.1a1.491,1.491,0,0,0,.6-.435,1.845,1.845,0,0,0,.125-.177q1.3-1.11,2.483-2.338a.917.917,0,0,0,1.149-.2c.032-.01.064-.022.1-.035a3.935,3.935,0,0,0,1.411-1.157,1.207,1.207,0,0,0,.669.112,1.318,1.318,0,0,0,.984-.7.415.415,0,0,0,.042-.032,3.524,3.524,0,0,0,.573-.742,1.087,1.087,0,0,0,.382-.026,1.321,1.321,0,0,0,.778-.62.856.856,0,0,0,.39-.307h0a.756.756,0,0,0,.625.09.778.778,0,0,0,1.2-.132c.057-.072.1-.149.155-.225a1.146,1.146,0,0,0,1.066.134c.063.1.128.2.2.29a.768.768,0,0,0,1.2-.13l0-.007a.778.778,0,0,0,.592-.113.768.768,0,0,0,1.217-.1c.054-.083.1-.171.153-.257a.768.768,0,0,0,.906.213.874.874,0,0,0,.091.075l.012.01a.776.776,0,0,0,.093.055l.008,0a.789.789,0,0,0,.99-.282,4.209,4.209,0,0,0,.251-.413,1.878,1.878,0,0,0,.9.984.806.806,0,0,0,.929-.1c.028-.024.052-.052.079-.078.053.06.107.119.162.176a.769.769,0,0,0,1.243-.233,1.857,1.857,0,0,0,.495-.272,1.821,1.821,0,0,0,1.432.806,1.5,1.5,0,0,0,.424-.052l.763.82a.359.359,0,0,0,.619-.156,1.949,1.949,0,0,0,.7.382,1.6,1.6,0,0,0,1.449-.245,1.375,1.375,0,0,0,.756.311l.089.08a1.8,1.8,0,0,0,1.2,1.265c.049.015.1.025.146.035l.015.019a.647.647,0,0,0,.516.232l.145.108a1.454,1.454,0,0,0,.493.369l.05.036a.318.318,0,0,0,.217.06c.053.014.106.025.159.033q.908,1.457,1.771,2.939a4.614,4.614,0,0,0,.339.766,1.1,1.1,0,0,0,.216,1.063,3.9,3.9,0,0,0,.388,1.3,1.785,1.785,0,0,0,.367,1.209,1.35,1.35,0,0,0,.264.613,5.139,5.139,0,0,1,.088.544.71.71,0,0,0-.13.88l.151.279a2.393,2.393,0,0,0,.086,1.409C2424.835,1569.143,2424.817,1569.193,2424.8,1569.242Zm22.787-17.75a.725.725,0,0,0-.238.512l-.027.886c0,.024-.011.048-.015.073-.026.2-.05.406-.068.61-.019.028-.038.057-.059.083-.008.055-.015.107-.021.161a1.517,1.517,0,0,1,0,.367c-.039.279-.068.557-.093.836-.038.236-.076.473-.114.709a.611.611,0,0,0-.39.472c-.029.163-.054.324-.079.487a.812.812,0,0,0-.268.522q-.031.274-.063.547a.955.955,0,0,0-.316.637,1.517,1.517,0,0,1-.121.2c-.294.405-.634.751-.912,1.126a.72.72,0,0,0-.686.528c-.029.1-.064.206-.1.309a.936.936,0,0,0-.372.443l-.443,1a.75.75,0,0,0-.337.4q-.3.858-.6,1.717a.825.825,0,0,0-.5.477,8.559,8.559,0,0,1-.39.77.777.777,0,0,0-.657.52l-.15.517a.766.766,0,0,0-.5.491l-.665,1.927a.671.671,0,0,0-.79.524v0c-.032.187-.064.374-.1.562a.872.872,0,0,0-.4.63.8.8,0,0,0-.84.731c-.01.116-.024.229-.036.344a.777.777,0,0,0-.952.547.765.765,0,0,0-.026.163c0,.142-.014.284-.022.426a.739.739,0,0,0-.573.394.692.692,0,0,0-.531.312.775.775,0,0,0-.834.537c-.024.082-.044.164-.067.246a.807.807,0,0,0-.875.51c-.016.047-.03.1-.046.143a.813.813,0,0,0-.528.453.682.682,0,0,0-.667.366.8.8,0,0,0-.493.348c-.016,0-.032,0-.049,0a7.287,7.287,0,0,1-1.1-.065.807.807,0,0,0-.63-.211.748.748,0,0,0-.389.164,4.327,4.327,0,0,0-.336-.425,4.119,4.119,0,0,0-.435-.424,2.609,2.609,0,0,0-.4-1.814q-.086-.544-.181-1.087a.581.581,0,0,0,.049-.146,4.376,4.376,0,0,0,.072-.941,2.205,2.205,0,0,0-.035-1.606,3.281,3.281,0,0,0-.016-.633.931.931,0,0,0,.149-.418,2.9,2.9,0,0,0-.216-1.369,2.072,2.072,0,0,0-.476-2.085,1.985,1.985,0,0,0-.191-1.561,2.562,2.562,0,0,0-.295-1.317,3.867,3.867,0,0,0-.311-1.263,5.127,5.127,0,0,0-.792-1.926c-.015-.023-.033-.039-.049-.06-.111-.286-.226-.571-.351-.851a.342.342,0,0,0-.585-.067c-.017-.018-.031-.039-.05-.056a2.425,2.425,0,0,0-.889-1.463,3.077,3.077,0,0,0-.577-.643.9.9,0,0,0-.636-.222,3.4,3.4,0,0,0-.274-.278.853.853,0,0,0-.262-.158c-.09-.2-.183-.394-.287-.585a3.6,3.6,0,0,0-1.047-1.736.9.9,0,0,0-.686-.208c-.083-.064-.165-.127-.252-.182a.735.735,0,0,0-.594-.08,4.09,4.09,0,0,0-.438-.523.871.871,0,0,0-.9-.157.664.664,0,0,0-.521-.06c-.035.012-.069.027-.1.041a1.927,1.927,0,0,0-.464-.29,3.134,3.134,0,0,0-.813-.865.635.635,0,0,0-.385-.126,2.812,2.812,0,0,0-.378-.306.683.683,0,0,0-.521-.1,1.038,1.038,0,0,0-1.19-.354c-.024.008-.045.02-.068.03a3.373,3.373,0,0,0-.353-.316.624.624,0,0,0-.147-.082,1.558,1.558,0,0,0-1.426-.474c-.046.01-.091.025-.135.039a4.553,4.553,0,0,0-.239-.423.9.9,0,0,0-.617-.375.743.743,0,0,0-.789-.279,2.229,2.229,0,0,0-.269.129.32.32,0,0,0-.24.038.693.693,0,0,0-.491-.174,1.4,1.4,0,0,0-.031-.232.771.771,0,0,0-1.271-.363c-.022.023-.043.047-.066.071l-.043-.037a.749.749,0,0,0-.966.144c0-.009-.008-.017-.011-.026a.389.389,0,0,0-.718.161h0a1.793,1.793,0,0,0-.181.015v-.01a.383.383,0,0,0-.765-.016c-.011.1-.022.2-.034.3a1.5,1.5,0,0,0-.526-.026c0-.186,0-.372,0-.559a.386.386,0,0,0-.66-.265.369.369,0,0,0-.65.121c-.081.276-.167.55-.255.825-.043.005-.085.013-.128.021l.075-.367a.386.386,0,0,0-.634-.377.964.964,0,0,0-1.3-.295,1.3,1.3,0,0,0-.214.15,2.642,2.642,0,0,0-.716.145,2.73,2.73,0,0,0-1.336.98,1.645,1.645,0,0,0-.252.041,1.72,1.72,0,0,0-.932.573,1.65,1.65,0,0,0-.686.377c-.036.006-.071.008-.108.017a1.854,1.854,0,0,0-.768.4,1.8,1.8,0,0,0-1.013-.012,1.49,1.49,0,0,0-.771.521,1.525,1.525,0,0,0-.548.2,1.83,1.83,0,0,0-.775.976,1.783,1.783,0,0,0-.89.694,1.476,1.476,0,0,0-.739.458,1.671,1.671,0,0,0-.829.359,2.305,2.305,0,0,0-.688,1.282,1.527,1.527,0,0,0-.44.629c-.018.049-.026.1-.039.148a1.489,1.489,0,0,0-.742,1.505,1.516,1.516,0,0,0-.158.184,1.621,1.621,0,0,0-.528.234.366.366,0,0,0-.465.228c0,.005,0,.011-.005.016-.021.073-.038.148-.059.221a.741.741,0,0,0-.27.168,2.4,2.4,0,0,0-.717,2.076.842.842,0,0,0-.27.358.9.9,0,0,0-.066.324.763.763,0,0,0-.3.793c.019.082.042.163.062.245a.657.657,0,0,0-.187.476,4.531,4.531,0,0,0,.229,1.174,1.216,1.216,0,0,0-.365.376,1.282,1.282,0,0,0-.069,1.179,1.657,1.657,0,0,0-.095.181.649.649,0,0,0,.164.72q-.177.566-.318,1.142a.828.828,0,0,0,0,.431,4.2,4.2,0,0,0-.112,1.284,3.262,3.262,0,0,0,.143,1.735,2.989,2.989,0,0,0,.178.394,2.4,2.4,0,0,0,.1,1.355,2.026,2.026,0,0,0,.124,1.225,1.609,1.609,0,0,0-.2.747,2.736,2.736,0,0,0-.471,1.547.705.705,0,0,0-.121.07,1.942,1.942,0,0,0-.242.188c-.019.019-.036.04-.054.06a.665.665,0,0,0-.113.016,1.455,1.455,0,0,0-.23.088.408.408,0,0,0-.056.029c-.022.013-.039.029-.06.043a1.229,1.229,0,0,0-.608-.333c0-.047,0-.094,0-.142a.773.773,0,0,0-.749-.781.84.84,0,0,0-.144.016.738.738,0,0,0-.5-.4.755.755,0,0,0-.355-.366l-.01-.062a.671.671,0,0,0-.648-.556c0-.01,0-.018,0-.026a.8.8,0,0,0-.545-.75.73.73,0,0,0-.191-.027l-.032-.121a.709.709,0,0,0-.643-.553l-.007-.023a.816.816,0,0,0-.609-.552l-.042-.191a.774.774,0,0,0-.8-.56c-.053-.1-.106-.195-.165-.288a.754.754,0,0,0-.141-.161,9.181,9.181,0,0,0-.325-.9.672.672,0,0,0-.463-.359c-.063-.166-.125-.332-.189-.5a.887.887,0,0,0-.231-.345.977.977,0,0,0-.107-.551.964.964,0,0,0-.652-.508c-.022-.086-.042-.174-.067-.261a1.437,1.437,0,0,1-.274-.472c-.18-.5-.353-1-.527-1.5a1.262,1.262,0,0,1-.25-.425c0-.012-.006-.023-.01-.034a1.46,1.46,0,0,1-.119-.286c-.093-.324-.19-.647-.287-.969a1.248,1.248,0,0,1-.1-.217c-.024-.072-.044-.145-.066-.218a1.126,1.126,0,0,1-.238-.423l-.006-.02a1.2,1.2,0,0,1-.167-.344c-.08-.276-.157-.552-.232-.83a1.436,1.436,0,0,1-.38-.7l-.13-.57a1.488,1.488,0,0,1-.3-.618q-.131-.571-.257-1.144a1.545,1.545,0,0,1-.078-.222q-.066-.245-.129-.491l0-.008a.729.729,0,0,1-.029-.068c-.072-.191-.133-.383-.19-.577-.113-.344-.222-.69-.323-1.036a1.5,1.5,0,0,1-.18-.464c-.019-.09-.038-.181-.056-.271a1.524,1.524,0,0,1-.287-.643c-.047-.232-.089-.465-.132-.7a1.566,1.566,0,0,1-.119-.4c-.031-.206-.067-.412-.1-.618q-.075-.279-.146-.559a1.336,1.336,0,0,1-.347-.739c-.029-.188-.22-.693-.3-.983q-.22-1.382-.431-2.766-.215-1.409-.414-2.82-.076-.538-.146-1.075c-.018-.133-.035-.266-.051-.4l-.01-.09c0-.029-.013-.106-.015-.132-.349-3.637-.555-7.292-.832-10.937-.12-1.575-.237-3.153-.37-4.728a.481.481,0,0,0-.021-.256q-.081-.944-.171-1.885c-.016-.382-.037-.763-.068-1.144-.058-.708-.156-1.408-.283-2.1-.03-.244-.064-.488-.1-.732-.035-.367-.08-.734-.13-1.1a3.307,3.307,0,0,1,.052-.478,11.27,11.27,0,0,0,.933,1.277c.131.153.36-.005.323-.18a39.389,39.389,0,0,1,2.077-22.523,61.873,61.873,0,0,1,3.732-6.989,20.036,20.036,0,0,0,.451,4.161c.049.222.355.161.376-.044a25.687,25.687,0,0,1,4.421-12.224,20.051,20.051,0,0,1,9.25-7.232c2.046-.756,5.624-1.437,7.573-.1h0a17.68,17.68,0,0,0,8.653,3.833,21.148,21.148,0,0,0,7.782-.686.087.087,0,0,1,.011-.005c9.7,5.368,20.277,1.034,22.983-.577-.022.047-.042.094-.064.141-.016.121-.034.243-.048.365-.041.377-.029.755-.061,1.132-.013.145-.05.286-.066.43-.011.106-.025.208-.043.31a6.794,6.794,0,0,0,1.227,4.79,9.77,9.77,0,0,0,2.925,2.2,3.891,3.891,0,0,1,2,3.431.193.193,0,0,0,.324.141,4.97,4.97,0,0,0,.96-1.231,20.507,20.507,0,0,1,5.255,10.738c.111.582.2,1.166.279,1.751q.273,5.164.268,10.336c-.039,1.073-.084,2.143-.124,3.211-.108,2.966-.719,9.414-.827,12.38a.166.166,0,0,0,0,.027c-.035,1.031.046,2.078.1,3.094.1,2.037.247,4.072.352,6.109.107,2.071.191,4.148.132,6.221-.039,1.322-.163,2.64-.235,3.96-.046.856-.07,1.713-.083,2.57-.015.014-.03.029-.045.042q-.024.783-.069,1.564Zm11.916-27.815a5.853,5.853,0,0,1,1.841,2.825,13.4,13.4,0,0,1,.436,5.77,16.11,16.11,0,0,1-1.8,5.019c-.841,1.631-1.786,3.21-2.544,4.883a46,46,0,0,0-1.939,5.7c-.576,1.9-1.209,4.253-2.846,5.537a2.905,2.905,0,0,1-2.526.629,1.9,1.9,0,0,1-1.258-1.184c0-.173-.015-.346-.019-.519-.057-2.783.164-5.534.293-8.31a121.31,121.31,0,0,0-.424-12.337,27.548,27.548,0,0,1-.066-4.644,5.494,5.494,0,0,1,2.344-3.085,9.709,9.709,0,0,1,3.554-1.325,32.508,32.508,0,0,0,3.438,4.932c.149.176.389-.04.3-.226a16.817,16.817,0,0,1-1.323-4.757,4.644,4.644,0,0,1,2.537,1.092Z" transform="translate(-2354.84 -1445.338)" fill="#4c18b2"/>
        <path id="Trazado_7282" data-name="Trazado 7282" d="M2707.749,1737.45a4.5,4.5,0,0,0-3.581,1.773.576.576,0,0,0,.189.789.591.591,0,0,0,.789-.189l.01-.013.063-.075c.047-.053.1-.105.146-.156a3.9,3.9,0,0,1,.3-.27c.027-.022.055-.043.083-.065l.007,0c.058-.04.117-.08.177-.118a4.081,4.081,0,0,1,.373-.207c.057-.028.114-.053.171-.079l.033-.013.072-.026a3.973,3.973,0,0,1,.409-.12c.07-.016.139-.03.209-.042.031,0,.062-.011.094-.015l.027,0,.079-.008.094-.006c.079,0,.158-.006.237,0a.573.573,0,1,0,.022-1.146Zm-2.589,2.355.583-.558.764-.423" transform="translate(-2607.889 -1656.991)" fill="#4c18b2"/>
        <path id="Trazado_7283" data-name="Trazado 7283" d="M2594.734,1668.108a26.062,26.062,0,0,0-4.142-2.283,14.718,14.718,0,0,0-9.247-1.045,4.9,4.9,0,0,0-2.231.947,1.591,1.591,0,0,0-.41.682.652.652,0,0,0-.173.562c.177,1.407,1.749,1.884,2.955,1.767.724-.07,1.437-.218,2.162-.282a19.119,19.119,0,0,1,9.945,1.815c.715.348,1.384.763,2.069,1.163a3.432,3.432,0,0,0,2.317.571.579.579,0,0,0,.273-.954A18.052,18.052,0,0,0,2594.734,1668.108Zm.17,1.557c.008-.01.017-.018.024-.028.064.047.126.094.191.142-.07-.039-.144-.075-.215-.113Z" transform="translate(-2516.911 -1604.088)" fill="#4c18b2"/>
        <path id="Trazado_7284" data-name="Trazado 7284" d="M2449.079,1662.2a16.109,16.109,0,0,0-8.75.356,22.688,22.688,0,0,0-8.114,4.781.509.509,0,0,0-.187.4.593.593,0,0,0,.032.762.586.586,0,0,0,.811.015,17.628,17.628,0,0,1,7.242-3.344,13.094,13.094,0,0,1,4-.169c1.454.166,2.8.75,4.241,1a3.555,3.555,0,0,0,2.1-.132,1.911,1.911,0,0,0,1.1-1.388C2451.8,1663.023,2450.189,1662.479,2449.079,1662.2Zm-9.832,2-.045.011.049-.021A.056.056,0,0,1,2439.247,1664.195Z" transform="translate(-2410.679 -1602.147)" fill="#4c18b2"/>
        <path id="Trazado_7285" data-name="Trazado 7285" d="M2593.768,1700.487a1.934,1.934,0,0,0-.3-.055,1.7,1.7,0,0,0-1.537.752.573.573,0,0,0-.437.539,7.817,7.817,0,0,0,.037,1.121c0,.017,0,.032,0,.049a2.107,2.107,0,0,0,.294.981,2.456,2.456,0,0,0,.212.353,2.278,2.278,0,0,0,1.811.876.375.375,0,0,0,.152,0c.108,0,.216-.008.323-.019a1.37,1.37,0,0,0,.921-.194,1.466,1.466,0,0,0,.656-1.1,2.738,2.738,0,0,0,.09-.364,2.582,2.582,0,0,0-.642-2.295A2.316,2.316,0,0,0,2593.768,1700.487Z" transform="translate(-2526.307 -1630.166)" fill="#4c18b2"/>
        <path id="Trazado_7286" data-name="Trazado 7286" d="M2472.333,1697.084l-.021-.021a2.132,2.132,0,0,0-.123-.226,2.038,2.038,0,0,0-1.053-.834c-.037-.023-.07-.048-.108-.068a1.44,1.44,0,0,0-.965-.152,1.774,1.774,0,0,0-.867-.048,1.551,1.551,0,0,0-.931.657,3.126,3.126,0,0,0-.439.96,2.707,2.707,0,0,0-.142,1.063,1.689,1.689,0,0,0,.049.824,1.844,1.844,0,0,0,.363.619c0,.007.008.016.013.024a2.12,2.12,0,0,0,1.163.829,2.577,2.577,0,0,0,.815.22,1.962,1.962,0,0,0,1.549-.563,1.276,1.276,0,0,0,.414-.483,1.787,1.787,0,0,0,.657-.76,1.829,1.829,0,0,0,0-1.474A1.81,1.81,0,0,0,2472.333,1697.084Z" transform="translate(-2436.58 -1626.741)" fill="#4c18b2"/>
        <path id="Trazado_7287" data-name="Trazado 7287" d="M2525.086,1865.819c-4.58,1.605-9.487,1.646-14.281,1.816l-4.361.152c-.735.026-.763,1.172-.022,1.148,2.566-.09,5.134-.169,7.7-.275a53.65,53.65,0,0,0,7.243-.689,25.967,25.967,0,0,0,4.005-1.038C2526.059,1866.689,2525.785,1865.574,2525.086,1865.819Z" transform="translate(-2464.277 -1749.977)" fill="#4c18b2"/>
        <path id="Trazado_7288" data-name="Trazado 7288" d="M2375.319,1741.022c-2.213,2.174-1.511,5.423-.744,8.064.207.706,1.319.43,1.112-.282-.639-2.2-1.452-5.109.426-6.955C2376.64,1741.332,2375.846,1740.5,2375.319,1741.022Z" transform="translate(-2368.598 -1659.46)" fill="#4c18b2"/>
        <path id="Trazado_7289" data-name="Trazado 7289" d="M2505.73,1533.644a21.729,21.729,0,0,1-15.179-3.711,20.689,20.689,0,0,1-3.387-2.946c-.5-.542-1.33.253-.828.8a22.913,22.913,0,0,0,14.889,7.129,22.13,22.13,0,0,0,4.787-.155.578.578,0,0,0,.416-.7.589.589,0,0,0-.7-.415Z" transform="translate(-2450.003 -1504.366)" fill="#d2ceed"/>
        <path id="Trazado_7290" data-name="Trazado 7290" d="M2571.108,1531.629c-6.464.731-13.37.366-18.985-3.252a17.275,17.275,0,0,1-3.76-3.261c-.481-.562-1.307.235-.827.794,4.31,5.011,11,7.031,17.423,7.177a45.2,45.2,0,0,0,6.126-.312.591.591,0,0,0,.584-.561.576.576,0,0,0-.562-.585Z" transform="translate(-2494.355 -1503.002)" fill="#d2ceed"/>
        <path id="Trazado_7291" data-name="Trazado 7291" d="M2656.591,1562.837a3.374,3.374,0,0,0-.194,3.334,7.842,7.842,0,0,0,2.347,2.7.592.592,0,0,0,.811.017.578.578,0,0,0,.016-.811,7.853,7.853,0,0,1-2.069-2.245,2.267,2.267,0,0,1,.068-2.393.578.578,0,0,0-.19-.789A.587.587,0,0,0,2656.591,1562.837Z" transform="translate(-2573.087 -1530.278)" fill="#d2ceed"/>
        <path id="Trazado_7292" data-name="Trazado 7292" d="M2714.575,1608.586a5.752,5.752,0,0,0,.345,3.522,15.765,15.765,0,0,0,1.418,2.994,39.129,39.129,0,0,0,4.18,5.4c.487.557,1.313-.24.827-.795a38.44,38.44,0,0,1-3.871-4.946,14.929,14.929,0,0,1-1.356-2.7,5.122,5.122,0,0,1-.444-3.15A.574.574,0,0,0,2714.575,1608.586Z" transform="translate(-2615.377 -1563.337)" fill="#d2ceed"/>
        <path id="Trazado_7293" data-name="Trazado 7293" d="M2713.989,1648.315a18.6,18.6,0,0,0,3.583,8.35.577.577,0,0,0,.811.017.588.588,0,0,0,.016-.812,17.452,17.452,0,0,1-3.3-7.838C2714.988,1647.3,2713.876,1647.589,2713.989,1648.315Z" transform="translate(-2615.059 -1591.895)" fill="#d2ceed"/>
        <path id="Trazado_7294" data-name="Trazado 7294" d="M2387.931,1612.262a20.713,20.713,0,0,0,1.642-9.9.59.59,0,0,0-.562-.585.578.578,0,0,0-.585.561,19.966,19.966,0,0,1-1.595,9.6.578.578,0,0,0,.386.713.587.587,0,0,0,.713-.386Z" transform="translate(-2378.003 -1558.685)" fill="#d2ceed"/>
      </g>
    </g>
    <g id="Grupo_1391" data-name="Grupo 1391" transform="translate(371.104 1309.255)">
      <path id="Trazado_6958" data-name="Trazado 6958" d="M2709.573,1377.167a.556.556,0,0,1-.045-.743c.39-.493.808-.976,1.239-1.437a.557.557,0,0,1,.787-.025h0l.008.008a.557.557,0,0,1,.016.779c-.411.437-.808.9-1.179,1.365a.556.556,0,0,1-.781.091h0A.529.529,0,0,1,2709.573,1377.167Zm3.416-3.442a.557.557,0,0,1-.01-.788.481.481,0,0,1,.048-.044c.492-.4,1-.776,1.525-1.128a.556.556,0,0,1,.651.9l-.028.019c-.495.334-.982.695-1.449,1.072A.557.557,0,0,1,2712.99,1373.725Zm4.087-2.6a.557.557,0,0,1,.145-.9c.566-.277,1.15-.533,1.739-.76a.557.557,0,1,1,.4,1.038h0c-.558.216-1.114.458-1.651.721A.557.557,0,0,1,2717.076,1371.12Zm4.568-1.626a.557.557,0,0,1,.263-.939c.614-.143,1.242-.261,1.865-.352a.557.557,0,0,1,.159,1.1c-.592.086-1.189.2-1.773.333a.557.557,0,0,1-.515-.143Zm4.816-.566a.557.557,0,0,1,.386-.955c.629,0,1.267.02,1.9.071a.556.556,0,0,1-.088,1.109c-.6-.048-1.2-.07-1.8-.067A.554.554,0,0,1,2726.46,1368.928Zm4.821.513a.556.556,0,0,1,.51-.943c.615.136,1.232.3,1.833.489a.556.556,0,1,1-.332,1.062h0c-.572-.178-1.157-.334-1.742-.463A.554.554,0,0,1,2731.281,1369.441Zm15.511,13.306a.553.553,0,0,1-.13-.2c-.216-.557-.46-1.112-.724-1.651a.557.557,0,0,1,1-.49c.278.567.535,1.152.763,1.738a.557.557,0,0,1-.908.6Zm-10.926-11.738a.556.556,0,0,1,.627-.9c.57.268,1.134.568,1.678.884a.557.557,0,0,1-.561.962c-.516-.3-1.053-.584-1.594-.84A.548.548,0,0,1,2735.866,1371.009Zm8.673,7.446a.561.561,0,0,1-.072-.086c-.336-.5-.7-.982-1.075-1.448a.557.557,0,0,1,.865-.7c.4.49.778,1,1.132,1.524a.556.556,0,0,1-.849.711Zm-4.554-4.893a.556.556,0,0,1,.734-.835c.494.39.978.806,1.438,1.237l.009.008a.557.557,0,1,1-.77.8h0c-.438-.409-.9-.8-1.367-1.175Z" transform="translate(-2709.407 -1367.973)" fill="#5cffc4"/>
      <path id="Trazado_6959" data-name="Trazado 6959" d="M2848.124,1430.449a.556.556,0,0,1-.157-.292c-.054-.282-.115-.567-.18-.848a.557.557,0,0,1,1.083-.255c.069.3.134.6.19.892a.557.557,0,0,1-.936.5Z" transform="translate(-2809.661 -1411.92)" fill="#5cffc4"/>
    </g>
    <ellipse id="Elipse_233" data-name="Elipse 233" cx="3.38" cy="3.38" rx="3.38" ry="3.38" transform="translate(364.768 1351.959)" fill="#c1c5db"/>
    <ellipse id="Elipse_234" data-name="Elipse 234" cx="2.849" cy="2.849" rx="2.849" ry="2.849" transform="translate(385.646 1332.418)" fill="#5cffc4"/>
  </g>
</svg>
