<svg id="Grupo_109" data-name="Grupo 109" xmlns="http://www.w3.org/2000/svg" width="49.287" height="58.269" viewBox="0 0 49.287 58.269">
  <g id="Grupo_108" data-name="Grupo 108">
    <g id="Grupo_107" data-name="Grupo 107">
      <path id="Trazado_469" data-name="Trazado 469" d="M283.217,154.044a.762.762,0,0,0,.536-1.3c-9.659-9.555-10.132-17.975-7.355-22.669a.761.761,0,0,0-1.311-.775c-3.069,5.188-2.687,14.356,7.595,24.526A.759.759,0,0,0,283.217,154.044Z" transform="translate(-261.209 -106.721)" fill="#6f3bed"/>
      <path id="Trazado_470" data-name="Trazado 470" d="M337.139,136.539h-.013a.761.761,0,0,0-.748.774c.093,5.493-2.942,8.2-5.568,8.848a.761.761,0,1,0,.365,1.479c3.421-.845,6.828-4.375,6.726-10.352A.761.761,0,0,0,337.139,136.539Z" transform="translate(-288.615 -110.395)" fill="#6f3bed"/>
      <path id="Trazado_471" data-name="Trazado 471" d="M310.114,147.566c-4.128.482-7.353-.259-9.585-2.2a10.538,10.538,0,0,1-3.26-6.994.76.76,0,0,0-.761-.745h-.015a.761.761,0,0,0-.747.775h0a11.905,11.905,0,0,0,3.768,8.1,12.137,12.137,0,0,0,8.258,2.73,21.75,21.75,0,0,0,2.517-.153.762.762,0,0,0-.176-1.513Z" transform="translate(-271.983 -110.919)" fill="#6f3bed"/>
      <path id="Trazado_472" data-name="Trazado 472" d="M294.141,117a12.35,12.35,0,0,0-13.59,3.138.762.762,0,0,0,1.113,1.041,10.71,10.71,0,0,1,11.921-2.76,9.9,9.9,0,0,1,6.412,9.34.762.762,0,0,0,.762.759h0a.762.762,0,0,0,.759-.764A11.4,11.4,0,0,0,294.141,117Z" transform="translate(-264.558 -100.557)" fill="#6f3bed"/>
      <path id="Trazado_473" data-name="Trazado 473" d="M309.413,132.853a.761.761,0,1,0-1.514.159,4.787,4.787,0,0,1-4.381,5.192c-2.3.289-5.209-.9-5.84-5.19a5.933,5.933,0,0,0-6.765-5.347,6.366,6.366,0,0,0-5.9,6.835c.54,14.184,16.383,15.79,16.542,15.805.024,0,.047,0,.07,0a.762.762,0,0,0,.068-1.52c-.147-.013-14.669-1.484-15.16-14.368a4.887,4.887,0,0,1,4.543-5.241,4.437,4.437,0,0,1,5.1,4.054c.74,5.039,4.318,6.887,7.537,6.481A6.283,6.283,0,0,0,309.413,132.853Z" transform="translate(-266.798 -106.096)" fill="#6f3bed"/>
      <path id="Trazado_474" data-name="Trazado 474" d="M284.9,106.625c5.743,1.341,9.771,5.623,11.339,12.057a.762.762,0,0,0,1.48-.361c-1.712-7.019-6.141-11.7-12.471-13.178a19.938,19.938,0,0,0-19.325,6.636c-2.907,3.464-7.041,11.01-2.07,22.64a.762.762,0,1,0,1.4-.6c-3.447-8.064-2.8-15.544,1.836-21.061A18.379,18.379,0,0,1,284.9,106.625Z" transform="translate(-255.482 -95.029)" fill="#6f3bed"/>
      <path id="Trazado_475" data-name="Trazado 475" d="M291.535,129.312a17.347,17.347,0,0,1-3.337-.128.761.761,0,0,0-.21,1.508c.139.019.736.1,1.5.146l-8.705,5.05a4.328,4.328,0,0,0-2.156,3.743v1.538a.479.479,0,0,1-.719.416L255.211,128.54a7.715,7.715,0,0,1-3.832-6.653V104.112a7.714,7.714,0,0,1,3.832-6.653l15.259-8.852a7.707,7.707,0,0,1,7.719,0l7.379,4.281L289,94.88c3.8,2.421,5.9,4.828,7.035,7.407a17.737,17.737,0,0,1,1.269,7.1.845.845,0,0,0,.845.832h.01a.9.9,0,0,0,.881-1.007c-.025-.677-.07-1.342-.141-2a15.663,15.663,0,0,0-6.438-11.882,59.909,59.909,0,0,0-6.095-3.75l-7.41-4.3a9.249,9.249,0,0,0-9.259,0l-15.259,8.852a9.252,9.252,0,0,0-4.6,7.981v17.775a9.255,9.255,0,0,0,4.6,7.981l25,14.374a.477.477,0,0,0,.715-.414v-4.193a2.808,2.808,0,0,1,1.4-2.421l10.813-6.34A.927.927,0,0,0,291.535,129.312Z" transform="translate(-249.845 -86.038)" fill="#6f3bed"/>
    </g>
  </g>
</svg>
