<svg xmlns="http://www.w3.org/2000/svg" width="222.808" height="200.298" viewBox="0 0 222.808 200.298">
  <g id="Group_3395" data-name="Group 3395" transform="translate(0.519 1.5)">
    <circle id="Elipse_236" data-name="Elipse 236" cx="54.064" cy="54.064" r="54.064" transform="translate(100.076 71.645)" fill="#c1c5db" stroke="rgba(0,0,0,0)" stroke-width="1"/>
    <g id="Grupo_1408" data-name="Grupo 1408" transform="translate(11.633 0)">
      <path id="Trazado_4020" data-name="Trazado 4020" d="M1480.484,1399.388a17.385,17.385,0,1,0,9.21-22.8,17.385,17.385,0,0,0-9.21,22.8Z" transform="translate(-1456.58 -1369.989)" fill="#5cffc4" stroke="rgba(0,0,0,0)" stroke-width="1"/>
      <circle id="Elipse_67" data-name="Elipse 67" cx="20.4" cy="20.4" r="20.4" transform="translate(0)" fill="none" stroke="#6f3bed" stroke-linecap="round" stroke-linejoin="round" stroke-width="3"/>
      <circle id="Elipse_68" data-name="Elipse 68" cx="9.842" cy="9.842" r="9.842" transform="matrix(0.921, -0.391, 0.391, 0.921, 7.501, 15.179)" fill="none" stroke="#6f3bed" stroke-linecap="round" stroke-linejoin="round" stroke-width="3"/>
    </g>
    <g id="Grupo_1410" data-name="Grupo 1410" transform="translate(0 51.885)">
      <path id="Trazado_3110" data-name="Trazado 3110" d="M1383.005,1541.721l-5.424-6.7a1.683,1.683,0,0,0-1.568-.6l-8.513,1.349a1.684,1.684,0,0,0-1.305,1.057l-3.089,8.046a1.684,1.684,0,0,0,.263,1.658l5.424,6.7a1.684,1.684,0,0,0,1.568.6l8.513-1.348a1.684,1.684,0,0,0,1.3-1.057l3.089-8.047A1.684,1.684,0,0,0,1383.005,1541.721Z" transform="translate(-1362.929 -1534.334)" fill="#6f3bed" stroke="rgba(0,0,0,0)" stroke-width="1"/>
      <path id="Trazado_3111" data-name="Trazado 3111" d="M1382.9,1541.518l-5.424-6.7a1.75,1.75,0,0,0-1.63-.626l-8.513,1.349a1.751,1.751,0,0,0-1.357,1.1l-3.089,8.047a1.751,1.751,0,0,0,.273,1.724l5.424,6.7a1.751,1.751,0,0,0,1.63.626l8.513-1.349a1.751,1.751,0,0,0,1.357-1.1l3.089-8.047A1.751,1.751,0,0,0,1382.9,1541.518Zm-2.878,9.747a1.684,1.684,0,0,1-1.3,1.057l-8.514,1.348a1.683,1.683,0,0,1-1.568-.6l-5.425-6.7a1.683,1.683,0,0,1-.263-1.658l3.089-8.047a1.685,1.685,0,0,1,1.305-1.057l8.513-1.348a1.683,1.683,0,0,1,1.567.6l5.425,6.7a1.685,1.685,0,0,1,.262,1.658Z" transform="translate(-1362.769 -1534.173)" fill="#6f3bed" stroke="rgba(0,0,0,0)" stroke-width="1"/>
    </g>
    <g id="Grupo_1407" data-name="Grupo 1407" transform="translate(24.921 124.212)">
      <g id="Grupo_1332" data-name="Grupo 1332" transform="translate(0)">
        <path id="Trazado_6019" data-name="Trazado 6019" d="M1523.055,1783.758a1.321,1.321,0,0,1-.055-2.551l2.071-.611a1.322,1.322,0,1,1,.748,2.536h0l-2.071.611A1.312,1.312,0,0,1,1523.055,1783.758Z" transform="translate(-1500.209 -1780.542)" fill="#6f3bed" stroke="rgba(0,0,0,0)" stroke-width="1"/>
        <path id="Trazado_6021" data-name="Trazado 6021" d="M1448.664,1819.895a1.321,1.321,0,0,1-.055-2.552l26.616-7.848a1.322,1.322,0,0,1,.749,2.536l-26.617,7.848A1.318,1.318,0,0,1,1448.664,1819.895Z" transform="translate(-1447.657 -1800.957)" fill="#6f3bed" stroke="rgba(0,0,0,0)" stroke-width="1"/>
      </g>
      <path id="Trazado_6017" data-name="Trazado 6017" d="M1566.645,1851.449a1.321,1.321,0,0,1-.056-2.552l2.071-.611a1.322,1.322,0,1,1,.748,2.536h0l-2.071.611A1.317,1.317,0,0,1,1566.645,1851.449Z" transform="translate(-1531.002 -1828.361)" fill="#6f3bed" stroke="rgba(0,0,0,0)" stroke-width="1"/>
      <path id="Trazado_6020" data-name="Trazado 6020" d="M1491.323,1851.449a1.321,1.321,0,0,1-.056-2.552l2.071-.611a1.322,1.322,0,1,1,.748,2.536h0l-2.071.611A1.318,1.318,0,0,1,1491.323,1851.449Z" transform="translate(-1477.793 -1828.361)" fill="#6f3bed" stroke="rgba(0,0,0,0)" stroke-width="1"/>
      <path id="Trazado_6022" data-name="Trazado 6022" d="M1519.551,1835.218a1.323,1.323,0,0,1-.055-2.552l13.26-3.91a1.322,1.322,0,0,1,.748,2.536h0l-13.26,3.91A1.32,1.32,0,0,1,1519.551,1835.218Z" transform="translate(-1497.736 -1814.563)" fill="#6f3bed" stroke="rgba(0,0,0,0)" stroke-width="1"/>
      <path id="Trazado_6452" data-name="Trazado 6452" d="M1542.829,1874.342a1.323,1.323,0,0,1-.055-2.552l13.26-3.91a1.322,1.322,0,0,1,.748,2.536h0l-13.26,3.911A1.319,1.319,0,0,1,1542.829,1874.342Z" transform="translate(-1514.18 -1842.202)" fill="#6f3bed" stroke="rgba(0,0,0,0)" stroke-width="1"/>
    </g>
    <path id="Trazado_7527" data-name="Trazado 7527" d="M1462.87,1609.678a7.513,7.513,0,0,1,4.721,4.736,1.34,1.34,0,0,0,2.543,0,7.513,7.513,0,0,1,4.721-4.736,1.34,1.34,0,0,0,0-2.542,7.513,7.513,0,0,1-4.721-4.736,1.34,1.34,0,0,0-2.543,0,7.512,7.512,0,0,1-4.721,4.736,1.34,1.34,0,0,0,0,2.542Zm5.993-3.883a10.258,10.258,0,0,0,2.607,2.613,10.267,10.267,0,0,0-2.607,2.613,10.261,10.261,0,0,0-2.607-2.613A10.252,10.252,0,0,0,1468.864,1605.8Z" transform="translate(-1432.837 -1529.838)" fill="#5cffc4" stroke="rgba(0,0,0,0)" stroke-width="1"/>
    <g id="Grupo_1409" data-name="Grupo 1409" transform="translate(169.851 135.68)">
      <path id="Trazado_3110-2" data-name="Trazado 3110-2" d="M1951.636,1820.3l-5.7-.538a1.1,1.1,0,0,0-1.006.47l-3.246,4.714a1.136,1.136,0,0,0-.089,1.121l2.452,5.251a1.136,1.136,0,0,0,.917.651l5.7.538a1.1,1.1,0,0,0,1.006-.47l3.246-4.714a1.135,1.135,0,0,0,.089-1.121l-2.452-5.251A1.136,1.136,0,0,0,1951.636,1820.3Z" transform="translate(-1941.445 -1819.714)" fill="none" stroke="#fff" stroke-width="3"/>
      <path id="Trazado_3111-2" data-name="Trazado 3111-2" d="M1951.533,1820.15l-5.7-.538a1.141,1.141,0,0,0-1.046.488l-3.246,4.714a1.18,1.18,0,0,0-.093,1.165l2.452,5.251a1.181,1.181,0,0,0,.953.677l5.7.537a1.142,1.142,0,0,0,1.046-.489l3.246-4.714a1.18,1.18,0,0,0,.093-1.165l-2.452-5.251A1.181,1.181,0,0,0,1951.533,1820.15Zm3.365,5.947a1.136,1.136,0,0,1-.089,1.121l-3.247,4.714a1.1,1.1,0,0,1-1.006.47l-5.7-.538a1.136,1.136,0,0,1-.917-.651l-2.452-5.251a1.136,1.136,0,0,1,.089-1.121l3.246-4.714a1.1,1.1,0,0,1,1.006-.47l5.7.538a1.137,1.137,0,0,1,.917.651Z" transform="translate(-1941.338 -1819.608)" fill="none" stroke="#fff" stroke-width="3"/>
    </g>
    <g id="Grupo_1403" data-name="Grupo 1403" transform="translate(190.335 89.99)">
      <path id="Trazado_3869" data-name="Trazado 3869" d="M2037.027,1687.677l-9.307,4.742-4.742-9.307-7.3,3.719,4.742,9.307-9.307,4.742,3.719,7.3,9.307-4.742,4.742,9.307,7.3-3.719-4.742-9.307,9.307-4.742Z" transform="translate(-2011.113 -1677.492)" stroke="rgba(0,0,0,0)" stroke-width="1"/>
      <path id="Trazado_3870" data-name="Trazado 3870" d="M2039.823,1668.535l-9.307,4.742-4.742-9.307-7.3,3.719,4.742,9.307-9.307,4.742,3.719,7.3,9.307-4.742,4.742,9.307,7.3-3.719-4.742-9.307,9.307-4.742Z" transform="translate(-2013.089 -1663.97)" fill="none" stroke="#5cffc4" stroke-linecap="round" stroke-linejoin="round" stroke-width="3"/>
    </g>
    <g id="Grupo_1404" data-name="Grupo 1404" transform="translate(168.857 161.283)">
      <path id="Trazado_3110-3" data-name="Trazado 3110-3" d="M1974.849,1919.9l-10.882-11.67a3.115,3.115,0,0,0-2.972-.909l-15.548,3.589a3.118,3.118,0,0,0-2.273,2.12l-4.665,15.26a3.117,3.117,0,0,0,.7,3.029l10.883,11.67a3.117,3.117,0,0,0,2.973.909l15.548-3.589a3.117,3.117,0,0,0,2.273-2.12l4.665-15.26A3.117,3.117,0,0,0,1974.849,1919.9Z" transform="translate(-1938.249 -1907.115)" fill="#6f3bed" stroke="rgba(0,0,0,0)" stroke-width="1"/>
      <path id="Trazado_3111-3" data-name="Trazado 3111-3" d="M1974.642,1919.515l-10.882-11.67a3.24,3.24,0,0,0-3.091-.945l-15.549,3.589a3.24,3.24,0,0,0-2.362,2.2l-4.665,15.26a3.239,3.239,0,0,0,.726,3.148l10.883,11.67a3.239,3.239,0,0,0,3.091.945l15.548-3.59a3.24,3.24,0,0,0,2.362-2.2l4.666-15.26A3.24,3.24,0,0,0,1974.642,1919.515Zm-4.056,18.373a3.116,3.116,0,0,1-2.273,2.12l-15.547,3.589a3.116,3.116,0,0,1-2.973-.909l-10.882-11.671a3.117,3.117,0,0,1-.7-3.027l4.666-15.26a3.116,3.116,0,0,1,2.273-2.12l15.548-3.589a3.116,3.116,0,0,1,2.972.909l10.883,11.67a3.116,3.116,0,0,1,.7,3.029Z" transform="translate(-1937.952 -1906.818)" fill="#6f3bed" stroke="rgba(0,0,0,0)" stroke-width="1"/>
    </g>
    <g id="Grupo_1405" data-name="Grupo 1405" transform="translate(176.726 168.556)">
      <path id="Trazado_2629" data-name="Trazado 2629" d="M1982.273,1970.778a.458.458,0,0,0,.39-.752c-5.282-6.224-5.124-11.288-3.216-13.952a.458.458,0,0,0-.744-.533c-2.109,2.944-2.36,8.452,3.261,15.077A.458.458,0,0,0,1982.273,1970.778Z" transform="translate(-1973.632 -1948.381)" fill="#fff" stroke="rgba(0,0,0,0)" stroke-width="1"/>
      <path id="Trazado_2631" data-name="Trazado 2631" d="M2009.409,1972.962c-2.5.073-4.387-.54-5.621-1.818a6.338,6.338,0,0,1-1.584-4.357.457.457,0,0,0-.417-.486h-.009a.457.457,0,0,0-.487.426,7.151,7.151,0,0,0,1.831,5.045,7.291,7.291,0,0,0,4.8,2.066,12.959,12.959,0,0,0,1.515.041.458.458,0,0,0-.026-.916h0Z" transform="translate(-1990.56 -1956.11)" fill="#fff" stroke="rgba(0,0,0,0)" stroke-width="1"/>
      <path id="Trazado_2632" data-name="Trazado 2632" d="M1994.807,1944.416a7.418,7.418,0,0,0-8.3,1.165.458.458,0,1,0,.612.682,6.434,6.434,0,0,1,7.278-1.028,5.951,5.951,0,0,1,3.348,5.926.458.458,0,0,0,.415.494h0a.459.459,0,0,0,.494-.418A6.849,6.849,0,0,0,1994.807,1944.416Z" transform="translate(-1980.016 -1940.105)" fill="#fff" stroke="rgba(0,0,0,0)" stroke-width="1"/>
      <path id="Trazado_2633" data-name="Trazado 2633" d="M2004.484,1959.831a.458.458,0,0,0-.915.016h0a2.876,2.876,0,0,1-2.894,2.879c-1.389.052-3.071-.809-3.223-3.413a3.565,3.565,0,0,0-3.769-3.556,3.826,3.826,0,0,0-3.891,3.782c-.418,8.518,8.978,10.308,9.074,10.325l.041.005a.457.457,0,0,0,.12-.905c-.087-.016-8.7-1.657-8.321-9.394a2.935,2.935,0,0,1,2.994-2.9,2.665,2.665,0,0,1,2.838,2.694c.18,3.053,2.224,4.347,4.172,4.272A3.774,3.774,0,0,0,2004.484,1959.831Z" transform="translate(-1982.432 -1948.662)" fill="#fff" stroke="rgba(0,0,0,0)" stroke-width="1"/>
      <path id="Trazado_2634" data-name="Trazado 2634" d="M1979.7,1933c3.367,1.1,5.555,3.877,6.153,7.809a.458.458,0,0,0,.9-.139c-.656-4.291-3.061-7.323-6.773-8.54a11.979,11.979,0,0,0-11.913,2.96c-1.921,1.921-4.79,6.221-2.425,13.441a.458.458,0,0,0,.87-.284c-1.641-5.006-.859-9.45,2.2-12.509A11.045,11.045,0,0,1,1979.7,1933Z" transform="translate(-1964.755 -1931.592)" fill="#fff" stroke="rgba(0,0,0,0)" stroke-width="1"/>
    </g>
    <g id="Grupo_1406" data-name="Grupo 1406" transform="translate(160.015 43.957)">
      <g id="Grupo_1332-2" data-name="Grupo 1332-2" transform="translate(3.772 7.697)">
        <path id="Trazado_6019-2" data-name="Trazado 6019-2" d="M1957.214,1576.263a1.321,1.321,0,0,1,.055,2.551l-2.071.611a1.322,1.322,0,1,1-.748-2.536h0l2.071-.611A1.314,1.314,0,0,1,1957.214,1576.263Z" transform="translate(-1943.867 -1563.648)" fill="#6f3bed" stroke="rgba(0,0,0,0)" stroke-width="1"/>
        <path id="Trazado_6021-2" data-name="Trazado 6021-2" d="M1948.94,1533.425a1.321,1.321,0,0,1,.056,2.551l-26.617,7.848a1.322,1.322,0,1,1-.749-2.536l26.618-7.848A1.317,1.317,0,0,1,1948.94,1533.425Z" transform="translate(-1920.682 -1533.386)" fill="#6f3bed" stroke="rgba(0,0,0,0)" stroke-width="1"/>
      </g>
      <path id="Trazado_6017-2" data-name="Trazado 6017-2" d="M1911.544,1507.208a1.321,1.321,0,0,1,.055,2.551l-2.071.611a1.322,1.322,0,1,1-.748-2.536h0l2.071-.611A1.314,1.314,0,0,1,1911.544,1507.208Z" transform="translate(-1907.832 -1507.168)" fill="#6f3bed" stroke="rgba(0,0,0,0)" stroke-width="1"/>
      <path id="Trazado_7468" data-name="Trazado 7468" d="M2044.931,1549.062a1.321,1.321,0,0,1,.056,2.551l-2.07.611a1.322,1.322,0,1,1-.748-2.536h0l2.071-.611A1.315,1.315,0,0,1,2044.931,1549.062Z" transform="translate(-2002.061 -1536.735)" fill="#6f3bed" stroke="rgba(0,0,0,0)" stroke-width="1"/>
      <path id="Trazado_6020-2" data-name="Trazado 6020-2" d="M1985.675,1510.95a1.321,1.321,0,0,1,.056,2.551l-2.071.611a1.322,1.322,0,1,1-.748-2.536h0l2.071-.611A1.318,1.318,0,0,1,1985.675,1510.95Z" transform="translate(-1960.2 -1509.812)" fill="#6f3bed" stroke="rgba(0,0,0,0)" stroke-width="1"/>
      <path id="Trazado_6022-2" data-name="Trazado 6022-2" d="M1930.529,1520.428a1.323,1.323,0,0,1,.055,2.552l-13.26,3.91a1.322,1.322,0,1,1-.748-2.536h0l13.26-3.911A1.318,1.318,0,0,1,1930.529,1520.428Z" transform="translate(-1913.339 -1516.508)" fill="#6f3bed" stroke="rgba(0,0,0,0)" stroke-width="1"/>
      <path id="Trazado_6452-2" data-name="Trazado 6452-2" d="M2001.628,1578.661a1.323,1.323,0,0,1,.055,2.552l-13.26,3.91a1.322,1.322,0,0,1-.748-2.536h0l13.26-3.911A1.315,1.315,0,0,1,2001.628,1578.661Z" transform="translate(-1963.566 -1557.646)" fill="#6f3bed" stroke="rgba(0,0,0,0)" stroke-width="1"/>
    </g>
    <path id="Trazado_7528" data-name="Trazado 7528" d="M1914.187,1393.609a7.514,7.514,0,0,1,4.722,4.736,1.34,1.34,0,0,0,2.543,0,7.514,7.514,0,0,1,4.721-4.736,1.34,1.34,0,0,0,0-2.542,7.513,7.513,0,0,1-4.721-4.736,1.34,1.34,0,0,0-2.543,0,7.512,7.512,0,0,1-4.722,4.736,1.34,1.34,0,0,0,0,2.542Zm5.993-3.883a10.264,10.264,0,0,0,2.607,2.613,2.607,2.607,0,1,1-5.213,0A10.253,10.253,0,0,0,1920.18,1389.726Z" transform="translate(-1751.66 -1377.2)" fill="#5cffc4" stroke="rgba(0,0,0,0)" stroke-width="1"/>
    <path id="Trazado_7526" data-name="Trazado 7526" d="M1881.717,1996.237l-4.143-.656.659-4.163a1.065,1.065,0,0,0-2.1-.333l-.659,4.164-4.028-.638a1.064,1.064,0,1,0-.333,2.1l4.028.638-.659,4.164a1.065,1.065,0,0,0,2.1.333l.659-4.163,4.143.656a1.064,1.064,0,1,0,.333-2.1Z" transform="translate(-1721.241 -1804.441)" fill="#6f3bed" stroke="rgba(0,0,0,0)" stroke-width="1"/>
    <g id="Grupo_1402" data-name="Grupo 1402" transform="translate(53.31 24.233)">
      <path id="Trazado_7344" data-name="Trazado 7344" d="M1657.186,1532.537l-.012-.022c-.621-.423-1.3-.75-1.915-1.166l-.048-.035c-.074,0-.146-.006-.221-.011a3.164,3.164,0,0,1-1.26.333,2.447,2.447,0,0,1-.756-.085.923.923,0,0,1-1.2-.063.629.629,0,0,1-.042-.05.906.906,0,0,1-.458-.471.917.917,0,0,1-.028-.647,2.49,2.49,0,0,1-.475-1.564,11.938,11.938,0,0,1,.174-1.427,4.05,4.05,0,0,1,.675-2.849c.007-.022.015-.045.021-.067.048-.179.092-.359.136-.539,0-.143-.011-.285-.021-.428,0-.041,0-.082,0-.123a19.069,19.069,0,0,1,.182-4.584c-.619-3.085-.023-6.208-.064-9.336a3.209,3.209,0,0,1,.065-.62c-.029-.5-.046-.993-.04-1.488-.253-1.692-.463-3.392-.683-5.09-.095-.3-.189-.6-.286-.895a4.358,4.358,0,0,1-.566-1.2q-.514-1.733-1.007-3.472c-.522-1.653-1.089-3.292-1.655-4.932-.485-.886-.964-1.777-1.423-2.676-1.526-2.034-2.891-4.179-4.365-6.26a2.608,2.608,0,0,1-.347-.69c-1.659-1.659-3.332-3.306-4.993-4.965a35.888,35.888,0,0,1-4.546-3.856,16.2,16.2,0,0,0-5.092-3.705,19.69,19.69,0,0,0-6.778-1.531c-4.832-.249-9.025,1.827-13.671,2.75a46.229,46.229,0,0,1-14.71.523,31.791,31.791,0,0,0-13.756,1.042c-.469.322-.942.636-1.43.931a4.346,4.346,0,0,1-2.162.647,18.688,18.688,0,0,0-2.768,1.891c-3.239,2.67-5.643,6.571-7.781,10.128a67.7,67.7,0,0,0-4.576,8.923,29.473,29.473,0,0,1-1.514,4.248c-1.139,4.07-1.135,8.194-1.6,12.4-.508,4.618-.71,9.386.525,13.906a2.661,2.661,0,0,1-.722,2.751,3.167,3.167,0,0,1,.392,3.433,2.909,2.909,0,0,1-3.523,1.3l-.149.109a.7.7,0,0,1-.06.042c-.02.024-.061.069-.143.153-.186.192-.366.385-.541.586-.618.714-1.144,1.5-1.736,2.231a10.227,10.227,0,0,0,.572,3.306,2.9,2.9,0,0,1,.079,1.368c.219.417.428.839.6,1.274a35.773,35.773,0,0,1,2.133,7.411c.423,2.517.436,5.075.743,7.6a19.972,19.972,0,0,0,.63,3.354,12.852,12.852,0,0,1,1.34,2.608c.065.158.129.322.2.488a.985.985,0,0,1,.276.145c.7.529,1.325,1.5,2.2,1.737a12.838,12.838,0,0,0,1.822.106c1.029.118,2.061.542,2.113,1.674a4.546,4.546,0,0,1,.636.621,4.354,4.354,0,0,1,.886,1.937,5.555,5.555,0,0,1,.713,1.522,3.985,3.985,0,0,1,1.5,1.474,4.782,4.782,0,0,1,1.058,1.141c.993,1.509,1.821,3.11,2.722,4.671.965,1.481,1.8,3.034,2.627,4.6a4.789,4.789,0,0,1,.322.759c.535.956,1.072,1.913,1.619,2.865.206.337.4.679.594,1.027a4.611,4.611,0,0,1,.18,4.1,4.1,4.1,0,0,1-1,2.642,18.413,18.413,0,0,1-.192,2.449,1,1,0,0,1-.052.2c-.052.493-.1.985-.152,1.48,0,.075,0,.151,0,.227a.91.91,0,0,1,.357.67,33.577,33.577,0,0,1-.317,6.046.954.954,0,0,1,.119.374,28.232,28.232,0,0,1-.213,6.045,40.523,40.523,0,0,1-.285,5.377,20.8,20.8,0,0,1-.617,5.356c.5.129,1.015.249,1.536.364a11.682,11.682,0,0,0,1.816-.113,12.2,12.2,0,0,1,4.656.339,28.266,28.266,0,0,0,7.82.8c5.332-.06,10.628-1.017,15.92-1.595,5.277-.576,10.557-1.156,15.8-1.977,5.316-.831,10.323-2.761,15.536-4,.823-.2,1.674-.371,2.534-.541-.3-2.062-.312-4.169-.613-6.242a53.164,53.164,0,0,1-.742-6.636,26.11,26.11,0,0,0-.109-3.109c-.148-1.088-.41-2.156-.537-3.25a31.136,31.136,0,0,1-.267-4.191,2.8,2.8,0,0,1,.1-1.527c.03-.253.066-.506.113-.755a2.607,2.607,0,0,1,.927-1.635,2.939,2.939,0,0,1,.886-.841c.078-.207.16-.417.254-.628a3.245,3.245,0,0,1,.671-.962q.194-.449.407-.889c.074-.543.171-1.078.294-1.608a13.794,13.794,0,0,1,.753-4.067,11.253,11.253,0,0,1,1.467-3.906c.046-.061.095-.12.143-.18a3.5,3.5,0,0,1-.6-2.548,10.519,10.519,0,0,1,1.405-3.66c.276-.509.548-1.013.788-1.539.063-.139.318-1.046.306-.66a3.04,3.04,0,0,1,1.967-2.8,1.459,1.459,0,0,1,.182-.128c.448-.266.8-.1,1.246.011l.014,0c.024,0,.048.009.071.015a4.215,4.215,0,0,1,2.581.165,3.516,3.516,0,0,0,.367-.036,7.35,7.35,0,0,1,1.139-.425,7.6,7.6,0,0,0,1.817-2.042v0h0c.049-.067.1-.135.147-.2a.846.846,0,0,1,.057-.064c.015-.045.029-.091.043-.137,0-.005,0-.01,0-.015.024-.081.042-.163.064-.245a.938.938,0,0,1-.009-.449,13.952,13.952,0,0,0,.4-2.893.833.833,0,0,1-.143-.337c-.084-.425-.155-.851-.221-1.278a5.88,5.88,0,0,1-.119-.754.79.79,0,0,1,0-.081q-.059-.446-.113-.892a.954.954,0,0,1-.082-.287,16.139,16.139,0,0,1,.135-3.239c.026-.365.055-.731.082-1.1a.863.863,0,0,1,.017-.1,1.067,1.067,0,0,1-.028-.451,12.041,12.041,0,0,1,.67-2.557.832.832,0,0,1,.031-.415,24.109,24.109,0,0,1,.891-2.311,9.391,9.391,0,0,1,.709-1.761.624.624,0,0,1,.037-.056.78.78,0,0,1,.043-.245c.208-.584.438-1.15.689-1.716a.837.837,0,0,1,.082-.141q.136-.352.269-.7c.079-.549.185-1.093.288-1.638a.29.29,0,0,1-.006-.038,6.222,6.222,0,0,1,.12-1.782c0-.05,0-.1-.007-.149a6.671,6.671,0,0,1-.2-.865C1657.712,1534.153,1657.442,1533.348,1657.186,1532.537Z" transform="translate(-1548.504 -1459.777)" fill="#fff" stroke="rgba(0,0,0,0)" stroke-width="1"/>
      <g id="Grupo_1309" data-name="Grupo 1309" transform="translate(0 0)">
        <path id="Trazado_7345" data-name="Trazado 7345" d="M1798.24,1671.775a2.256,2.256,0,0,0-.292-.129.451.451,0,0,0-.382.043.6.6,0,0,0-.584.129c-.358-.163-.91.053-.852.527l0,.026a.587.587,0,0,0-.793.247l0,.006a.642.642,0,0,0-.182.083.56.56,0,0,0-.785-.1.567.567,0,0,0-.114.121.617.617,0,0,0-.805.171.573.573,0,0,0-1.044-.227.54.54,0,0,0-.208-.06.72.72,0,0,1-.577.048,2.647,2.647,0,0,0-1.507-.01.478.478,0,0,0-.451-.023.622.622,0,0,0-.4-.156.534.534,0,0,0-.606-.115.564.564,0,0,0-.722-.338l-.012,0c-.306-.288-.888-.276-.956.243-.017.126-.034.252-.051.378a.656.656,0,0,0-.162,1.089.707.707,0,0,0,.381.18.657.657,0,0,0,.574.352,2.139,2.139,0,0,0,.01.25.577.577,0,0,0,.847.47.464.464,0,0,0,.278.282c.029.063.058.126.087.191.184.408.823.6,1.056.1l.174-.366a.585.585,0,0,0,.1-.028.975.975,0,0,0,.329.116l.011.07c.084.581.962.795,1.124.157a.548.548,0,0,0,.764-.132.56.56,0,0,0,.054-.1.531.531,0,0,0,.052-.026.653.653,0,0,0,.147.106c.03.1.061.2.084.3a.576.576,0,0,0,.9.279.475.475,0,0,0,.38-.256h0a.581.581,0,0,0,1.064-.325c0-.03,0-.06,0-.09a.581.581,0,0,0,1.038.06c.016-.032.028-.067.044-.1a.662.662,0,0,0,.25-.2c.271.452,1.1.348,1.081-.234a.5.5,0,0,0,.493-.29c.079-.175.151-.351.217-.53a.589.589,0,0,0,.337-.188.61.61,0,0,0,.139,0,.584.584,0,0,0,.481-.583v-.025a.6.6,0,0,0,.07-.308c-.005-.282-.01-.563-.015-.845A.571.571,0,0,0,1798.24,1671.775Z" transform="translate(-1715.441 -1603.524)" fill="#d2ceed" stroke="rgba(0,0,0,0)" stroke-width="1"/>
        <path id="Trazado_7346" data-name="Trazado 7346" d="M1654.359,1667.683a.66.66,0,0,0-.35.136,2.141,2.141,0,0,0-.125-.218.583.583,0,0,0-1.048.172c-.009.037-.018.075-.026.111a.524.524,0,0,0-.278.407.594.594,0,0,0-.1.2.577.577,0,0,0-.131.066v-.007a.564.564,0,0,0-1.062-.046.545.545,0,0,0-.687.351.562.562,0,0,0-.015.055l-.005.023a.507.507,0,0,0-.262.344c-.027.146-.052.292-.079.438-.013,0-.028,0-.043-.008-.007-.033-.013-.066-.021-.1a.529.529,0,0,0-.64-.385.511.511,0,0,0-.114.043.565.565,0,0,0-.9,0,.591.591,0,0,0-.963.226.525.525,0,0,0-.706.226.541.541,0,0,0-.039.1.678.678,0,0,0-.23,0,.7.7,0,0,0-.286-.167.549.549,0,0,0-.754-.161c-.025-.1-.053-.2-.085-.307a.585.585,0,0,0-.569-.4.693.693,0,0,0-.306.106.516.516,0,0,0-.432.288c-.016.032-.029.064-.045.1l-.011-.009a1.49,1.49,0,0,0-.611-.93.571.571,0,0,0-.581.018.525.525,0,0,0-.146.142.477.477,0,0,0-.2-.028.562.562,0,0,0-.119.022.579.579,0,0,0-.574-.431.593.593,0,0,0-.557.594c0,.013,0,.026,0,.039a.534.534,0,0,0-.049.112,2.515,2.515,0,0,0,.121,1.579.633.633,0,0,0,.409.381,1.394,1.394,0,0,0,.358.712.492.492,0,0,0,.34.149.511.511,0,0,0,.422.174.588.588,0,0,0,.316-.113.569.569,0,0,0,.2.068.58.58,0,0,0,.515.534.572.572,0,0,0,.618-.434c.005-.022.009-.044.013-.067a.567.567,0,0,0,.376.194.551.551,0,0,0,.69.359.571.571,0,0,0,.106-.047.7.7,0,0,0,.131.039,1.652,1.652,0,0,0,1.644-.083.6.6,0,0,0,.749-.222.579.579,0,0,0,1.136.177l.039-.153a.672.672,0,0,0,.188-.082l.017.009q.134.23.269.461a.558.558,0,0,0,.575.252.551.551,0,0,0,.616-.427c.03-.169.064-.337.1-.5a.077.077,0,0,0,.009.014.579.579,0,0,0,.583.256.6.6,0,0,0,.342-.2.579.579,0,0,0,.642-.429c.006,0,.012,0,.018,0a.43.43,0,0,0,.058-.009.612.612,0,0,0,.383.2.564.564,0,0,0,.564-.294,6.641,6.641,0,0,0,.319-1.036.478.478,0,0,0,.126.01.628.628,0,0,0,.186-.045.569.569,0,0,0,.7-.573,5.126,5.126,0,0,0-.142-1.566A.579.579,0,0,0,1654.359,1667.683Z" transform="translate(-1612.719 -1600.596)" fill="#d2ceed" stroke="rgba(0,0,0,0)" stroke-width="1"/>
        <path id="Trazado_7347" data-name="Trazado 7347" d="M1899.569,1698.538c.016-.073.035-.147.056-.221a.574.574,0,0,0-.174-.557c.01-.134.021-.268.031-.4a.467.467,0,0,0-.29-.474c-.017-.018-.036-.035-.055-.051-.008-.128-.011-.256-.011-.384a.572.572,0,0,0-.37-.515.566.566,0,0,0-.155-.032.592.592,0,0,0-.786-.291l-.046.023a1,1,0,0,0-.114.073.589.589,0,0,0-.389-.129.467.467,0,0,0-.525.173,2.494,2.494,0,0,0-.519,1.574l-.031.109a.583.583,0,0,0,.447.692.677.677,0,0,0,.085.011.545.545,0,0,0,.131.1.52.52,0,0,0,.1.041.587.587,0,0,0,.683.472.575.575,0,0,0,.147-.048c.012,0,.023.009.036.012a.62.62,0,0,0,.1.144.836.836,0,0,0-.039.4l-.156.352a.609.609,0,0,0,.115.677c-.055.085-.1.173-.163.256a.577.577,0,0,0,.112.7.533.533,0,0,0,.284.138.6.6,0,0,0,1.072.117l.569-.911a.54.54,0,0,0,.011-.516q.118-.421.235-.844A.607.607,0,0,0,1899.569,1698.538Z" transform="translate(-1792.895 -1620.525)" fill="#d2ceed" stroke="rgba(0,0,0,0)" stroke-width="1"/>
        <path id="Trazado_7348" data-name="Trazado 7348" d="M1719.519,1805.156a.57.57,0,0,0-.261.025l-.343.114c-1.138.292-2.29.526-3.434.793q-.246.058-.493.122c-1.167.16-2.343.252-3.508.426a14.384,14.384,0,0,1-4.378-.054c-1.492-.228-2.994-.486-4.464-.832-1.315-.308-2.612-.643-3.941-.882a.642.642,0,0,0-.11-.009c-.661-.044-.885.991-.185,1.129,2.385.47,4.655,1.373,7.037,1.828a.46.46,0,0,0,.054.02,21.768,21.768,0,0,0,5.521.469,14.714,14.714,0,0,0,3.106-.321c.917-.2,1.822-.461,2.719-.742.832-.261,1.643-.574,2.467-.856.139-.035.278-.067.416-.106C1720.385,1806.1,1720.135,1805.13,1719.519,1805.156Z" transform="translate(-1652.876 -1697.74)" fill="#d2ceed" stroke="rgba(0,0,0,0)" stroke-width="1"/>
        <path id="Trazado_7349" data-name="Trazado 7349" d="M1630.349,1905.454c.022-.525.044-1.05.073-1.575.048-.855-1.4-1.016-1.515-.154-.015.119-.219-.782-.234-.663-.043-.035-.354-.593-.4-.617-.013-.108-.1-.6-.111-.713-.119-.865-.706.941-.994,1.783-.778,2.275-.371,4.79-.184,7.13q.25,3.159.5,6.317-.015.328-.03.659a.813.813,0,0,0-.5.545,10.769,10.769,0,0,0-.33,4.463c-.076.325-.153.648-.224.966-.385,1.725-1.089,3.011-.485,4.721.266.751,1.9.938,2.224.837.793-.245,1.951.11,2.268-.653.484-1.166.212-1.942.224-3.205a.757.757,0,0,0,.4-.677q.051-1.442.1-2.883a.707.707,0,0,0,.128-.427c-.016-.923-.019-1.846-.014-2.768.035-.985.985-10.017,1.15-12.023C1632.4,1906.408,1630.8,1905.322,1630.349,1905.454Z" transform="translate(-1601.803 -1766.014)" fill="#d2ceed" stroke="rgba(0,0,0,0)" stroke-width="1"/>
        <path id="Trazado_7350" data-name="Trazado 7350" d="M1612.625,1484.264a.786.786,0,0,1-.085-.212l-.092.022-1.86.443a11.607,11.607,0,0,0-1.947-.01,11.115,11.115,0,0,0-5,1.637c-.187-.007-.373-.019-.561-.021a.774.774,0,0,0-.341,1.443c.27.115-2.19-.594-2.853-.748a32.7,32.7,0,0,0-5.462-2.037l.809-.128a.793.793,0,0,0,.743-.793.745.745,0,0,0-.046-.216.756.756,0,0,0,.159-.48.746.746,0,0,0-.087-.326c.1-.018.2-.038.3-.062a.778.778,0,0,0,.137-1.41,12.925,12.925,0,0,0-7.8-1.777.779.779,0,0,0-.5,1.328,8.7,8.7,0,0,0,1.21,1.126l-2.375-.152a.692.692,0,0,0-.693.539,43.378,43.378,0,0,0-8.51,2.415.65.65,0,0,0-.089-.141.786.786,0,0,0-1-.166,28.227,28.227,0,0,0-6.289,4.106q-.926.6-1.82,1.244a.742.742,0,0,0-.324.8q-.788.838-1.5,1.738a.8.8,0,0,0-.653.394q-.977,1.567-1.9,3.167a25.486,25.486,0,0,0-2.532,3.973c-.12.233-2.132.615-2.031.816-.616,1.2.818,2.278.247,3.5a.766.766,0,0,0-.053.531q-.6,1.527-1.078,3.094a.728.728,0,0,0-.489.532q-.467,2.27-.818,4.56a.61.61,0,0,0-.366.5q-.742,5.856-.918,11.76-.2,1.926-.292,3.861a.74.74,0,0,0-.229.565c.045.816.1,1.632.154,2.448q0,1.9.1,3.8a.549.549,0,0,0,0,.1c.006.062.012.124.019.186q.118,1.982.356,3.954a.616.616,0,0,0-.125.448q.18,1.334.361,2.669a.659.659,0,0,0-.129-.043,3.906,3.906,0,0,0-1.478-.011,4.015,4.015,0,0,0-.452-.857.826.826,0,0,0,.049-.895,4.143,4.143,0,0,0-1.715-1.839,2.251,2.251,0,0,0-1.879-.019c-1.137-.486-2.435.576-3.043,1.549a7.756,7.756,0,0,0-1.13,4.555.719.719,0,0,0,.3.565,17.39,17.39,0,0,0,1.286,3.4,16.586,16.586,0,0,0,1.7,4.422.712.712,0,0,0,.173.207,6.725,6.725,0,0,0,.337,1.088.88.88,0,0,0,.175.277c0,1.137,1.313,11.9,1.5,12.808a.631.631,0,0,0,.583.523.729.729,0,0,0,.343.285c.119.186-.282.5-.066.542.022.069.158.279.182.347-.2.311.371.354.615.631l.77.877c.2.231.518.884.742.815a2.144,2.144,0,0,0,.774.385c.072.011.343.252.407.249.07.03.606.194.679.217.473.23.271-.584.744-.354.888.432,1.615-.9.732-1.351a.647.647,0,0,1-.131-.087.673.673,0,0,0-.25-.609c-.139-.2.283.516.019.52-.9-.164-4.217-1.126-4.636-6.856-.007-.079-.429-9.356-2.234-13.673-3.61-8.63,1.871-10.684,4.551-6.214a.839.839,0,0,0,.5-.069,80.574,80.574,0,0,0,.911,13.01.93.93,0,0,0,.294.566q.346,4.586.693,9.173a.776.776,0,0,0,1.267.542q.545,3.353,1.234,6.68a.723.723,0,0,0,1.209.333q.814,2.512,1.624,5.024c.512-.168-.449-3.937.064-4.1-2.676-.351-23.231-92.019,27.786-89.653,2.265.106,4.073,1.246,6.286,1.757a16.376,16.376,0,0,0,8.281.073,17.62,17.62,0,0,0,3.8-1.509,7.165,7.165,0,0,0,2.573-1.935.791.791,0,0,1,.143-.243C1612.678,1484.352,1612.65,1484.308,1612.625,1484.264Zm-22.282-.569-.189-.067.491.031Zm.36-2.581q.373.029.741.081a.97.97,0,0,0,.078.1,4.434,4.434,0,0,0,.575.559,7.741,7.741,0,0,1-1.393-.744Z" transform="translate(-1546.024 -1467.924)" fill="#d2ceed" stroke="rgba(0,0,0,0)" stroke-width="1"/>
        <path id="Trazado_7351" data-name="Trazado 7351" d="M1596.526,1588.7c.017-.057.032-.114.049-.171l.007.014Z" transform="translate(-1581.212 -1544.919)" fill="#d2ceed" stroke="rgba(0,0,0,0)" stroke-width="1"/>
        <path id="Trazado_7352" data-name="Trazado 7352" d="M1899.619,1695.747a1.938,1.938,0,0,0-1.506-.2,2.031,2.031,0,0,0-.958,1.014,1.351,1.351,0,0,0,.035,1.6c.249.278.648.365.829.663.241.4,0,.947.057,1.394a1.353,1.353,0,0,0,.987,1.233.538.538,0,0,0,.554-.191.672.672,0,0,0,.4-.286C1900.977,1699.539,1901.573,1696.677,1899.619,1695.747Zm.129,2.4a4.058,4.058,0,0,1-.53,1.924c0-.05,0-.1,0-.152a4.051,4.051,0,0,0-.015-1.236,1.807,1.807,0,0,0-.621-.934,4.6,4.6,0,0,0-.427-.278c-.05-.03-.075-.02-.113-.082l-.006-.011c.007.01.014.018.015.011a1.591,1.591,0,0,1,.375-.678c.067-.074.088-.1.15-.1a1.356,1.356,0,0,1,.423.115A1.332,1.332,0,0,1,1899.748,1698.144Z" transform="translate(-1793.411 -1620.461)" fill="#d2ceed" stroke="rgba(0,0,0,0)" stroke-width="1"/>
        <path id="Trazado_7353" data-name="Trazado 7353" d="M1722.085,1674.239v-.008h0l-.024-.153a.5.5,0,0,0-.349-.361q-.042-1.623-.083-3.245a35.583,35.583,0,0,0-.155-6.726.574.574,0,0,0-.61-.535c-.028-.252-.053-.5-.082-.755a.594.594,0,0,0-.61-.533.607.607,0,0,0-.628-.487.57.57,0,0,0-.7.4.582.582,0,0,0-.019.174c.027.193.047.387.071.581a.5.5,0,0,0-.5.429,26.206,26.206,0,0,0-.64,5.532.507.507,0,0,0,.152.376c-.024.185-.048.37-.073.555a.58.58,0,0,0-.481.56q-.077,2-.259,4-.15,1.272-.385,2.534a.565.565,0,0,0,.058.382c-.054.411-.1.823-.165,1.234a.578.578,0,0,0,.161.5l-.5,2.006a.53.53,0,0,0,.352.663.537.537,0,0,0,.235.017.447.447,0,0,0,.176.012l.175-.024a.508.508,0,0,0,.5.09c.211-.08.42-.163.63-.248l1.385-.194c.785-.11,1.688-.144,2-1.014a2.184,2.184,0,0,0,.1-.454,1.65,1.65,0,0,0,.42-1.024A16.294,16.294,0,0,0,1722.085,1674.239Z" transform="translate(-1665.782 -1596.41)" fill="#d2ceed" stroke="rgba(0,0,0,0)" stroke-width="1"/>
        <path id="Trazado_7354" data-name="Trazado 7354" d="M1800.9,1663.608h.01a2.82,2.82,0,0,0,3.728-2.8l0-.017a2.59,2.59,0,0,0-.554-1.553,2.98,2.98,0,0,0-2.931-1.015,3.287,3.287,0,0,0-2,1.993,2.6,2.6,0,0,0,.537,2.754A2.136,2.136,0,0,0,1800.9,1663.608Z" transform="translate(-1724.222 -1594.108)" fill="#4c18b2" stroke="rgba(0,0,0,0)" stroke-width="1"/>
        <path id="Trazado_7355" data-name="Trazado 7355" d="M1655.509,1654.255a3.251,3.251,0,0,0-1.936,2.45,3.385,3.385,0,0,0-.018.683,2.391,2.391,0,0,0,1.02,2.573,4.2,4.2,0,0,0,3.549.015,3.289,3.289,0,0,0,1.66-2.43,3.064,3.064,0,0,0-1.188-2.84A3.1,3.1,0,0,0,1655.509,1654.255Z" transform="translate(-1621.465 -1591.193)" fill="#4c18b2" stroke="rgba(0,0,0,0)" stroke-width="1"/>
        <path id="Trazado_7356" data-name="Trazado 7356" d="M1800.613,1626.05q-.526-.279-1.064-.537a3.712,3.712,0,0,0-.39-.182,33.5,33.5,0,0,0-7-2.384,25.765,25.765,0,0,0-8.948-.5c-1.684.229-3.932.675-4.89,1.359a1.167,1.167,0,0,0-.465,1.528,1.909,1.909,0,0,0,1.937.615c1.631-.258,2.976-.711,4.6-1.015a28.268,28.268,0,0,1,14.244,1.422c.494.231.986.47,1.469.725C1800.759,1627.431,1801.267,1626.4,1800.613,1626.05Z" transform="translate(-1709.213 -1568.752)" fill="#4c18b2" stroke="rgba(0,0,0,0)" stroke-width="1"/>
        <path id="Trazado_7357" data-name="Trazado 7357" d="M1631.739,1621.965c1.63.25,2.989.656,4.627.861a1.908,1.908,0,0,0,1.916-.68,1.167,1.167,0,0,0-.516-1.512c-.979-.652-3.242-1.022-4.933-1.195a25.756,25.756,0,0,0-8.926.8,33.529,33.529,0,0,0-6.918,2.617,3.58,3.58,0,0,0-.385.2q-.526.276-1.044.572c-.644.369-.1,1.385.545,1.015.475-.271.957-.526,1.444-.774A28.25,28.25,0,0,1,1631.739,1621.965Z" transform="translate(-1594.455 -1566.689)" fill="#4c18b2" stroke="rgba(0,0,0,0)" stroke-width="1"/>
        <path id="Trazado_7358" data-name="Trazado 7358" d="M1708.393,1757.985a8.172,8.172,0,0,1,4.246.629,15.191,15.191,0,0,0,4.1,1.049,12.612,12.612,0,0,0,4.176-.749,7.725,7.725,0,0,1,4.292-.37.577.577,0,0,0,.307-1.111,8.228,8.228,0,0,0-4.494.253,13.309,13.309,0,0,1-4.279.825,16.448,16.448,0,0,1-4.194-1.144,8.666,8.666,0,0,0-4.458-.493C1707.362,1757.02,1707.667,1758.131,1708.393,1757.985Z" transform="translate(-1659.729 -1663.759)" fill="#4c18b2" stroke="rgba(0,0,0,0)" stroke-width="1"/>
        <path id="Trazado_7359" data-name="Trazado 7359" d="M1719.122,1804.956a42.336,42.336,0,0,1-16.517.544c-1.582-.213-3.159-.476-4.73-.767-.728-.135-.987.988-.257,1.124,5.622,1.038,11.4,1.756,17.115,1.094a33.589,33.589,0,0,0,4.745-.9C1720.193,1805.863,1719.837,1804.766,1719.122,1804.956Z" transform="translate(-1652.318 -1697.644)" fill="#4c18b2" stroke="rgba(0,0,0,0)" stroke-width="1"/>
        <path id="Trazado_7360" data-name="Trazado 7360" d="M1726.529,1840.7c-.158-.078-.32-.144-.484-.215a.469.469,0,0,0-.186-.439l-.045-.035a.482.482,0,0,0-.2-.321,4.539,4.539,0,0,0-.517-.343c-.02-.016-.039-.033-.061-.048a1.283,1.283,0,0,0-.408-.178.5.5,0,0,0-.339.024c-.07-.114-.139-.229-.214-.34-.27-.4-1.013-.283-1.063.2a.642.642,0,0,0-.409.075.573.573,0,0,0-.265.1.544.544,0,0,0-.668-.019.98.98,0,0,0-.213-.028.78.78,0,0,0-.7.41l0,.007a.6.6,0,0,0-.149.053.63.63,0,0,0-.89-.034l-.032.032a.314.314,0,0,1-.053-.019.724.724,0,0,0-.12-.035c-.012-.007-.021-.016-.033-.022a.511.511,0,0,0-.373-.065.6.6,0,0,0-.177.026c-.045-.036-.093-.069-.143-.1a.587.587,0,0,0-.8-.222.617.617,0,0,0-.087.06c-.022-.015-.043-.032-.067-.047a.522.522,0,0,0-.343-.063.631.631,0,0,0-.758.011.538.538,0,0,0-.759-.055.584.584,0,0,0-.054.054l-.035.044a1.3,1.3,0,0,0-.52.076.607.607,0,0,0-.231.045.682.682,0,0,0-.1-.052.565.565,0,0,0-.776-.186l-.017.011a3.055,3.055,0,0,0-.448.341l-.017,0v-.011a.524.524,0,0,0-.511-.536.5.5,0,0,0-.116.01.675.675,0,0,0-.851.208,2.341,2.341,0,0,0-.127.219.487.487,0,0,0-.607.027.521.521,0,0,0-.164.135,2.483,2.483,0,0,0-.288.436,3.461,3.461,0,0,0-.405.316.537.537,0,0,0-.14.48.592.592,0,0,0-.113.387c-.007.007-.014.011-.021.019a1.643,1.643,0,0,0-.137.182l-.053.139c-.006.051-.01.1-.015.154a.573.573,0,0,0,.134.345.579.579,0,0,0,.1.092.551.551,0,0,0,.13.391l-.191.14a.579.579,0,0,0,.25,1.064.537.537,0,0,0,.078.127.58.58,0,0,0,.2.259.694.694,0,0,0,.132.068c-.044.1-.094.193-.136.293a.576.576,0,0,0,.871.721.574.574,0,0,0,.127.19l-.148.478a.574.574,0,0,0,.226.6.592.592,0,0,0,.641.023.691.691,0,0,0,.175-.131.55.55,0,0,0,.144.264.585.585,0,0,0,.287.617.682.682,0,0,0,.311.064.527.527,0,0,0,.079.26.576.576,0,0,0,1.048-.173c.041-.141.089-.28.135-.42a.469.469,0,0,0,.114-.107.668.668,0,0,0,.115.055c0,.014.006.027.01.04a.588.588,0,0,0,.749.359.6.6,0,0,0,.126-.063c.046.1.089.2.138.305a.58.58,0,0,0,.995-.043l.423-.929c.115.281.221.565.318.854.144.426.872.577,1.058.092l.306-.8a.578.578,0,0,0,.3.029,2.321,2.321,0,0,1,.144.315.592.592,0,0,0,1.121-.055c.045.074.09.149.136.223a.578.578,0,0,0,1.055-.314c.024.016.045.035.069.048a.543.543,0,0,0,.628-.07l.008.008a.581.581,0,0,0,.964-.45c-.007-.065-.017-.13-.025-.195a.651.651,0,0,0,.266.023c.123.106.251.207.387.3a.577.577,0,0,0,.838-.388.571.571,0,0,0,.355-.948.616.616,0,0,0,.31-.815.645.645,0,0,0-.06-.1.6.6,0,0,0,.221-.327.534.534,0,0,0,.014-.141h.037a.583.583,0,0,0,.375-1c-.076-.069-.155-.134-.232-.2a.591.591,0,0,0,.149-.476.547.547,0,0,0,.293-.354.584.584,0,0,0,.006-1.016Zm-6.855-1.072,0,0,.016-.015Zm.025-.027" transform="translate(-1661.466 -1721.552)" fill="#4c18b2" stroke="rgba(0,0,0,0)" stroke-width="1"/>
        <g id="Grupo_1308" data-name="Grupo 1308" transform="translate(3.53 74.363)">
          <path id="Trazado_7361" data-name="Trazado 7361" d="M1559.01,1693.288a2.719,2.719,0,0,0-2.156,1.448,3.6,3.6,0,0,0-.307.689,6.021,6.021,0,0,0,.559,3.974.592.592,0,0,0,.722.379.582.582,0,0,0,.379-.722,5.455,5.455,0,0,1-.6-3.145,2.128,2.128,0,0,1,.79-1.227,1.275,1.275,0,0,1,.649-.245C1559.786,1694.388,1559.752,1693.236,1559.01,1693.288Z" transform="translate(-1556.387 -1693.286)" fill="#4c18b2" stroke="rgba(0,0,0,0)" stroke-width="1"/>
        </g>
        <path id="Trazado_7362" data-name="Trazado 7362" d="M1899.212,1694.364a2.168,2.168,0,0,1,.533-.015l-.155-.016a2.247,2.247,0,0,1,.565.133l-.139-.054a2.248,2.248,0,0,1,.348.172.581.581,0,0,0,.781-.232.59.59,0,0,0-.232-.781,2.665,2.665,0,0,0-1.739-.359.622.622,0,0,0-.4.183.573.573,0,0,0,.027.813.557.557,0,0,0,.413.155Z" transform="translate(-1794.617 -1618.854)" fill="#4c18b2" stroke="rgba(0,0,0,0)" stroke-width="1"/>
        <path id="Trazado_7363" data-name="Trazado 7363" d="M1779.842,1494.063a10.668,10.668,0,0,0-4.1-1.738.577.577,0,0,0-.27,1.121c.676.187,1.36.356,2.021.6a2.493,2.493,0,0,1,.959.639c.241.2,1.194.434,1.417.2a.58.58,0,0,0-.027-.814Z" transform="translate(-1707.314 -1476.948)" fill="#4c18b2" stroke="rgba(0,0,0,0)" stroke-width="1"/>
        <path id="Trazado_7364" data-name="Trazado 7364" d="M1772.787,1495.648a11.056,11.056,0,0,0-3.291-.883c-1.177-.041-2.365.028-3.542.047a.577.577,0,0,0,.038,1.153c1.139-.019,2.283-.073,3.422-.05a10.1,10.1,0,0,1,3.1.854.58.58,0,0,0,.7-.425.587.587,0,0,0-.426-.695Z" transform="translate(-1700.521 -1478.673)" fill="#4c18b2" stroke="rgba(0,0,0,0)" stroke-width="1"/>
        <path id="Trazado_7365" data-name="Trazado 7365" d="M1782.33,1491.168a10.8,10.8,0,0,1,2.708-.225c.776.068.523-.217,1.2.162.136-.356-.131-.151.006-.506-1.7-.3-1.973.016-3.632.375-.3.066-.691.2-.6.476a.587.587,0,0,0,.721.379,8.166,8.166,0,0,1,4.548.058.561.561,0,0,0,.451-1.023,7.582,7.582,0,0,0-3.359-1.021,9.164,9.164,0,0,0-2.078.176.6.6,0,0,0-.557.594A.579.579,0,0,0,1782.33,1491.168Z" transform="translate(-1712.048 -1475.201)" fill="#4c18b2" stroke="rgba(0,0,0,0)" stroke-width="1"/>
        <path id="Trazado_7366" data-name="Trazado 7366" d="M1653.731,1513.413a4.11,4.11,0,0,0-3.487-2.516,6.548,6.548,0,0,0-2.079.434,69.743,69.743,0,0,0-7.644-48.62,36.437,36.437,0,0,0-4.882-6.471,39.56,39.56,0,0,0-7.25-6.129c-.511-.338-1.032-.658-1.558-.972a2.223,2.223,0,0,0,1.158-1.17c.122-.465-.649-.407-1.058-.329-1.432.27-2.913-.71-4.137-1.306a10.269,10.269,0,0,0-3.066-.889,1.743,1.743,0,0,0,.549-1.2.646.646,0,0,0-.276-.335.589.589,0,0,0-.446-.044,5.318,5.318,0,0,1-2.719.206c-.5-.088-1-.184-1.49-.3a15.7,15.7,0,0,1-2.021-.615c-.652-.253-1.28-.558-1.939-.795a19.528,19.528,0,0,0-4.289-.789,36.445,36.445,0,0,0-4.391-.3,21.5,21.5,0,0,0-2.445.136,8.654,8.654,0,0,1-1.308.168.854.854,0,0,1-.664-.4.51.51,0,0,0-.13-.131.579.579,0,0,0-.641-.023,15.427,15.427,0,0,1-2.059,1.177,5.114,5.114,0,0,0-.147-1.812.572.572,0,0,0-.719-.37.562.562,0,0,0-.2.111.458.458,0,0,0-.292.258,3.748,3.748,0,0,1-2,2.139,7.14,7.14,0,0,1-3.618.541,23.237,23.237,0,0,0-3.891-.259,13.533,13.533,0,0,0-3.71.969,10.531,10.531,0,0,0-2.672,1.243c.091-1.4-.12-1.6-.422-1.408a27.194,27.194,0,0,0-7.278,7.205c-.139-.2-.354-.548-.486-.753a2.425,2.425,0,0,0-.785-.8c-.46-.279-.757.209-.649.667a4.307,4.307,0,0,1-1.013,4.285.424.424,0,0,0-.094.124,48.357,48.357,0,0,0-4.333,4.283,45.408,45.408,0,0,0-7.967,12.553c-.358.854-10.36,25.042-3.569,40.305h0v0c-2.341-1.417-4.984.113-5.908,1.2a5.683,5.683,0,0,0-1.282,3,11.438,11.438,0,0,0,.891,5.524c.619,1.555,1.411,3.037,2,4.607a24.168,24.168,0,0,1,1.148,5.094q.392,2.765.779,5.53a24.953,24.953,0,0,0,.956,4.72,7.774,7.774,0,0,0,2.837,3.969,5.15,5.15,0,0,0,4.153.873q.113.3.229.593h0c0,.015,0,.03,0,.044a.548.548,0,0,0,.292.465c0,.153,0,.308.007.462,0,.247.445.7.61.777.048.419.112.836.186,1.253.061.153.12.305.178.459a.44.44,0,0,0,.152.095c.021.163.044.326.066.49a.545.545,0,0,0,.034.116c.008.024.017.047.025.071v0a.584.584,0,0,0,.087.133c.008.078.016.157.023.236.251.837.421,1.692.683,2.526.513,1.635.947,2.895,1.566,4.491.252.65.631.857.884,1.507.135.256.443.638.59.887l.017.037c.084.279.167.558.251.837l.073.263c.127.307.254.611.387.914.1.223.2.439.3.659a.507.507,0,0,0,.063.02.659.659,0,0,0,.005.132q.59,1.259,1.27,2.474a.449.449,0,0,0,.06.021l.034.069c.013.045.022.092.035.137.188.329.379.657.577.981.069.113.135.227.2.34.014.006.027.015.042.021.018.044.032.091.051.136a9.517,9.517,0,0,1,.732,1.509c.131.151.272.289.413.428a1.964,1.964,0,0,1,.154.174h0v0a2.449,2.449,0,0,1,.459.915c.095.342.146.745.256,1.033.119.31.246.3.349.616a.4.4,0,0,0,.031.03c.06.179.115.36.17.541a.559.559,0,0,0,.024.209c.1.337.244,1.046.434,1.07.16,6.713.065,14.386-.358,21.086q-.211,3.333-.517,6.661a.579.579,0,0,0,.594.557.59.59,0,0,0,.557-.594,233.177,233.177,0,0,0,.964-23.812c-.006-.577-.034-1.53-.044-2.107-.021-.643.5,1.127.69,1.506a.486.486,0,0,0,.541.258c.055.071.112.142.165.214.02.029.044.057.067.086l0,0h0c.026.032.051.064.078.1l.454.826a.606.606,0,0,1,.3.183c.054.058.1.122.148.185a10.551,10.551,0,0,1,.908.788c.456.405.9.8,1.339,1.232a28.334,28.334,0,0,0,3.3,2.172c.475.352.913.749,1.36,1.134.467.4.943.791,1.371,1.24s.832.94,1.276,1.385a5.181,5.181,0,0,0,1.343.935,35.721,35.721,0,0,0,6.995,2.726,16.093,16.093,0,0,0,3.8.659c.637.018,1.276.022,1.909.09.591.064,1.173.183,1.758.29.462,0,.925.01,1.384-.011a12.2,12.2,0,0,1,1.587-.02c.439.038.871.136,1.305.211a8.036,8.036,0,0,0,2.885-.126,16.2,16.2,0,0,1,2.8-.294c.5-.005,1.009,0,1.51-.039a9.547,9.547,0,0,1,1.8-.644,2.423,2.423,0,0,1,.6-.024c.032-.051.065-.1.095-.153a.625.625,0,0,0,.293.046c.259-.109.52-.213.784-.3.394-.13.8-.247,1.206-.359a.6.6,0,0,0,.214-.169.518.518,0,0,0,.147.072l.4-.1c.578-.226,1.151-.465,1.726-.7.438-.177.878-.347,1.326-.5a5.027,5.027,0,0,0,1.183-.438c.314-.206.559-.8.845-1.045s.635-.165.974-.365c.228-.2.456-.394.693-.582a3.946,3.946,0,0,0,1.216-1.018,13.366,13.366,0,0,1,1.446-1.987c.151-.158.307-.314.46-.472.058-.081.116-.162.173-.244a2.533,2.533,0,0,1,.284-.41.82.82,0,0,0,.1.017,2.719,2.719,0,0,0,.407-.752,19.366,19.366,0,0,1,2.592-2.471,13.953,13.953,0,0,0,1.015-1.182c.157-.173.275-.378.427-.554s.326-.326.481-.494a11.284,11.284,0,0,0,.889-1.11,10.888,10.888,0,0,0,.829-1.276c.45,5.14.93,10.775,1.421,15.911q.263,2.743.533,5.486c.072.734,1.225.7,1.153-.038q-.96-9.752-1.822-19.513c-.106-1.2-.256-2.856-.359-4.052.036-.04.024.013.052-.044.137-.28.256-.567.37-.857.266.027.471-.7.52-.986a.675.675,0,0,0,.134-.17c.109-.2.2-.622.293-.827a.447.447,0,0,0,.221-.239c.032-.081.06-.161.091-.242a.493.493,0,0,0,.067-.005c.087-.152.173-.3.252-.461a6.737,6.737,0,0,1,.778-1.467c.237-.273.212-.49.451-.759,0-.069.01-.138.012-.207a.5.5,0,0,0,.132-.167,6.739,6.739,0,0,0,.426-1.2.682.682,0,0,0,.374-.078,10.209,10.209,0,0,0,.315-1.117c.014-.2.025-.4.029-.6a.535.535,0,0,0,.116.014c.047-.181.1-.363.158-.543a4.551,4.551,0,0,1,.609-1.151c.055-.253.119-.5.194-.75a.594.594,0,0,0,.416-.092c.062-.089.125-.18.185-.273.005-.008.009-.016.015-.023a.086.086,0,0,0,.009-.03q.063-.314.126-.631a.514.514,0,0,0,.265-.24c.046-.088.079-.177.116-.266.009-.045.017-.092.022-.136a11.432,11.432,0,0,1-.028-1.431c.11-.482.678-.923.9-1.361a6.9,6.9,0,0,0,.517-1.37c.136-.52.22-1.052.347-1.573.006-.024.013-.046.019-.07-.016-.132-.028-.263-.036-.4a.632.632,0,0,0,.172-.1c.085-.3.174-.592.262-.889.253-.86.243-1.469.559-2.308,0-.009.008-.017.01-.026,0-.158-.01-.316-.02-.475a.594.594,0,0,0,.264-.077,4.838,4.838,0,0,0,.3-.751c0-.011.005-.024.009-.035.013-.125.027-.249.038-.374.022-.037.056-.1.092-.181.036-.168.075-.336.122-.5a.038.038,0,0,1,0-.01c.011-.247.112-1.1.107-1.35.009-.115.145-.775.152-.889a3.633,3.633,0,0,0,2.71.791,4.557,4.557,0,0,0,3.432-2.508c1.748-3.212.734-7.051.56-10.489a14.926,14.926,0,0,1,.591-4.992c.451-1.55,1.071-3.043,1.646-4.55a23.76,23.76,0,0,0,1.356-4.561A8.87,8.87,0,0,0,1653.731,1513.413Zm-99.957,30.83a6.232,6.232,0,0,1-2.342-3.06,19.1,19.1,0,0,1-.958-4.218c-.235-1.657-.465-3.315-.7-4.971a45.633,45.633,0,0,0-.825-4.812,25.367,25.367,0,0,0-1.664-4.336c-1.014-2.211-2.126-4.729-1.675-7.2a5.906,5.906,0,0,1,.22-.861,3.861,3.861,0,0,1,2.432-2.463,2.867,2.867,0,0,1,3.038.559,11.855,11.855,0,0,1,2.513,3.845c.043.117.341,2.606.547,3.748,0,.007,0,.013,0,.021.052,1.235.108,2.471.157,3.706.024.6.045,1.194.06,1.79a2.248,2.248,0,0,0,.218,1.173,5.035,5.035,0,0,0,.036,1.589,2.735,2.735,0,0,0,.036.938c.052.384.114.771.2,1.149q.033.643.066,1.285c-.008.054-.015.11-.021.16a11.391,11.391,0,0,0-.105,2.107c.048.549.137.868.21,1.387a13.042,13.042,0,0,0,.235,1.347,39.108,39.108,0,0,1,.674,4.482,19.183,19.183,0,0,0,.449,2.566c.067.246.143.49.223.733A4.044,4.044,0,0,1,1553.774,1544.243Zm88.054-1.815c-.123.272-.252.542-.386.811-.007.058-.014.116-.021.174a.513.513,0,0,0-.094.048c-.264.516-.549,1.023-.859,1.506a21.934,21.934,0,0,1-1.431,1.923,12.6,12.6,0,0,1-.644,1.113,26.005,26.005,0,0,1-1.551,2.3c-.277.337-.591.644-.892.961l0,.009c-.009.006-.016.014-.026.02-.051.053-.1.1-.147.158-.168.251-.337.5-.509.752-2.175,3.168-4.42,6.313-6.782,9.35l-.162.23q-.392.56-.786,1.12l-.447.638a1.625,1.625,0,0,1-.42.364.543.543,0,0,0-.09.07l-.1.125a.5.5,0,0,0-.07.168c-.008.039-.014.078-.022.117a.617.617,0,0,0-.178.058l-.245.311a.576.576,0,0,0-.021.161l-.089.1a.633.633,0,0,0-.111.023c-.591.759-1.09,1.561-1.629,2.357a5.2,5.2,0,0,1-.947,1.151,4.342,4.342,0,0,1-.7.446c-.142.136-.288.268-.441.392a6.4,6.4,0,0,1-2.731,1.287c-.7.313-1.411.6-2.139.844a17.82,17.82,0,0,1-2.27.6.54.54,0,0,0-.064.086.512.512,0,0,0-.434.07.591.591,0,0,0-.5.053l-.017.015a.543.543,0,0,0-.09-.055c-.377.043-.756.067-1.136.074-.155.025-.311.045-.468.061a15.121,15.121,0,0,1-3.027-.374,15.8,15.8,0,0,1-2.858-.374,11.87,11.87,0,0,0-1.375-.356,8.537,8.537,0,0,0-1.4-.068,29.375,29.375,0,0,1-3.324-.266,8.164,8.164,0,0,0-2.962.083,23.134,23.134,0,0,0-2.526,1.046,7.461,7.461,0,0,1-1.276.4,11.391,11.391,0,0,0-1.3.271,4.171,4.171,0,0,1-1.573.236l-.152-.011a13.414,13.414,0,0,1-2.944-.033,14.894,14.894,0,0,1-7.057-2.6.555.555,0,0,0-.058.027,10.426,10.426,0,0,1-1.508-1.267,32.213,32.213,0,0,1-4.064-4.476c-1.954-2.527-3.82-5.132-5.7-7.714-1.548-2.126-3.055-4.289-4.416-6.54q-.6-.861-1.192-1.733a49.215,49.215,0,0,1-4.322-7.742,1.992,1.992,0,0,0-.475-.591,10.212,10.212,0,0,0-.677-1.953.652.652,0,0,0-.112-.305c-.011-.066-.026-.133-.042-.2a1.707,1.707,0,0,0-.084-.458,3.685,3.685,0,0,1-.24-.694,1.532,1.532,0,0,1,.017-.359c-.182-.656-.349-1.317-.489-1.984a36.19,36.19,0,0,1-.656-5.622l0,0s0-.005,0-.009c0-.039,0-.077-.006-.118-.059-1.247-.04-2.5-.074-3.754a1.512,1.512,0,0,0-.062-.284l-.132-2.164c.007-.014.008-.031.014-.045q-.064-.516-.138-1.029a.654.654,0,0,0-.045-.093c-.01-.016-.023-.03-.034-.045a1.641,1.641,0,0,0-.04-.359c0-.025,0-.051,0-.075-.011-.165-.026-.331-.042-.495,0-.021,0-.041,0-.062-.043-.311-.085-.621-.122-.932v-.005c-.02-.129-.039-.259-.062-.387a7.415,7.415,0,0,0-.319-1.64l0-.009c-.041-.133-.042-.267-.093-.4-.011-.028-.063-.56-.076-.582-.009-.187-.239-2.3-.277-2.608a.772.772,0,0,0-.031-.135,124.466,124.466,0,0,1-.472-14.992c.088-2.429.306-4.847.613-7.255,0,0,.2-1.32.271-1.978.267-1.823.578-3.642.916-5.456a92.157,92.157,0,0,1,3.055-10.08,37.073,37.073,0,0,1,5.237-8.091,27.163,27.163,0,0,1,7.88-6.711,22.679,22.679,0,0,1,9.393-2.691,26.619,26.619,0,0,1,9.986,1.389c2.925.963,5.912,2.305,9.035,2.287,2.5.266,4.91-.693,7.253-1.495,2.138-.732,4.95-1.824,7.16-.94.291.116,1.353.32,1.687-.045.481-.53-2.356-.713-2.242-1.27.04-.207,2.111-.039,3.315-.1.328-.017.974.234,1.053-.09s-.742-.616-.757-.62c-1.014-.317-1.526-.728-1.378-.765a12.508,12.508,0,0,1,4.4.421,24.437,24.437,0,0,1,8.142,4.394,29.868,29.868,0,0,1,5.814,6.122,61,61,0,0,1,4.482,7.4,26.8,26.8,0,0,1,2.007,4.822,82.989,82.989,0,0,1,2.447,10.569c1.381,9.48.586,17.833.953,25.9.038.84-.031,3.024-.01,3.407a.489.489,0,0,0-.029.207l.14,1.583a.512.512,0,0,0-.01.089c-.006.69-.047,1.38-.081,2.069a.686.686,0,0,0-.092.187c0,.018-.006.035-.011.052,0,.232,0,.463,0,.7a1.821,1.821,0,0,0,.1.292q-.034.76-.086,1.521a.457.457,0,0,0-.039.074c-.043,2.023-.14,4.044-.338,6.06A38.188,38.188,0,0,1,1641.828,1542.428Zm11.1-24.569a21.752,21.752,0,0,1-1.2,4.217c-1.022,2.74-2.25,5.443-2.44,8.4-.214,3.313.9,6.655.231,9.947a4.826,4.826,0,0,1-2.315,3.55,2.548,2.548,0,0,1-3.235-.909.948.948,0,0,0,.531-.959,1.007,1.007,0,0,1,.016-.163.568.568,0,0,0,.265-.476,9.786,9.786,0,0,0-.09-1.433c0-.012.008-.021.01-.033.025-.2.042-.393.057-.59a.541.541,0,0,0,.271-.486c-.008-.33-.033-.658-.067-.985a.993.993,0,0,0,.137-.52c-.032-.2-.062-.4-.092-.6a.526.526,0,0,0,.511-.539c0-.012,0-.024,0-.036-.044-.353-.1-.7-.146-1.056a.633.633,0,0,0,.046-.394l-.062-.324a.5.5,0,0,0,.363-.4,1.428,1.428,0,0,0-.054-.821.641.641,0,0,0-.107-.177,5.434,5.434,0,0,0-.044-.761.489.489,0,0,0,.052-.137c.027-.142.044-.284.066-.427a.519.519,0,0,0,.263-.357c0-.016.007-.033.01-.049a.673.673,0,0,0,.057-.306,5.044,5.044,0,0,0,.024-1.4.636.636,0,0,0-.04-.281c-.013-.066-.029-.131-.043-.2a.551.551,0,0,0,.224-.465c0-.341-.02-.678-.049-1.015a.563.563,0,0,0,.051-.216q.015-.451.032-.9a.564.564,0,0,0,.063-.286,17.147,17.147,0,0,1,.051-2.094.6.6,0,0,0,.132-.519c-.022-.113-.038-.226-.059-.34a.567.567,0,0,0,.052-.259l-.072-2.088a.494.494,0,0,0,.117-.372q-.079-.892-.158-1.784c.023-.067.046-1.587.042-1.673-.025-.657.044-1.27.02-1.928-.081-2.625,4.68-4.593,6.233-1.559A7.1,7.1,0,0,1,1652.932,1517.859Z" transform="translate(-1544.361 -1439.983)" fill="#4c18b2" stroke="rgba(0,0,0,0)" stroke-width="1"/>
        <path id="Trazado_7367" data-name="Trazado 7367" d="M1777.025,1466.682a9.324,9.324,0,0,0,5.128-1.708.592.592,0,0,0,.181-.794.58.58,0,0,0-.795-.18,8.23,8.23,0,0,1-4.552,1.531C1776.249,1465.576,1776.283,1466.729,1777.025,1466.682Z" transform="translate(-1708.316 -1456.888)" fill="#d2ceed" stroke="rgba(0,0,0,0)" stroke-width="1"/>
        <path id="Trazado_7368" data-name="Trazado 7368" d="M1802.53,1472.986a7.774,7.774,0,0,0,4.191.116.577.577,0,1,0-.343-1.1,6.6,6.6,0,0,1-3.579-.137.577.577,0,1,0-.27,1.121Z" transform="translate(-1726.428 -1462.495)" fill="#d2ceed" stroke="rgba(0,0,0,0)" stroke-width="1"/>
        <path id="Trazado_7369" data-name="Trazado 7369" d="M1703.293,1457.134a7.683,7.683,0,0,0,3.1-2.783.577.577,0,1,0-1.014-.549,4.579,4.579,0,0,1-.237.4c-.085.127.073-.092-.021.03-.023.031-.046.061-.07.091-.048.06-.1.119-.148.177-.1.115-.209.226-.32.331-.063.059-.125.116-.191.172l-.071.061c-.118.1.093-.072-.03.025a15.708,15.708,0,0,1-1.608,1.072.577.577,0,0,0,.6.985l.016-.01Z" transform="translate(-1656.005 -1449.534)" fill="#d2ceed" stroke="rgba(0,0,0,0)" stroke-width="1"/>
        <path id="Trazado_7370" data-name="Trazado 7370" d="M1721.4,1453.174a4.159,4.159,0,0,0,1.111-1.547.622.622,0,0,0,.044-.445.589.589,0,0,0-.276-.335.578.578,0,0,0-.445-.044.558.558,0,0,0-.336.276,3.8,3.8,0,0,1-.435.782l.086-.119a3.846,3.846,0,0,1-.589.644.576.576,0,0,0-.156.413.584.584,0,0,0,.182.4.578.578,0,0,0,.413.156l.152-.024a.578.578,0,0,0,.25-.158Z" transform="translate(-1668.722 -1447.609)" fill="#d2ceed" stroke="rgba(0,0,0,0)" stroke-width="1"/>
        <path id="Trazado_7371" data-name="Trazado 7371" d="M1702.281,1781.057a8.493,8.493,0,0,0-1.138-1.367c-.185-.2-.369-.391-.537-.6a2.267,2.267,0,0,0-.459-.487,1.141,1.141,0,0,0-.662-.612,1,1,0,0,0-.5,0,4.932,4.932,0,0,0-1.279-1.009c-.322-.175-.688-.253-1.007-.421q-.583-.345-1.129-.746a.472.472,0,0,0-.5,0l-.806-.822a.5.5,0,0,0-.706-.023,4.325,4.325,0,0,0-.573-.331.617.617,0,0,0-.751.22l-.091-.049a.531.531,0,0,0-.335-.051l-1.021-1.122a.58.58,0,0,0-.9.175c-.006.016-.012.032-.018.048a6.247,6.247,0,0,0-1.018-.452.5.5,0,0,0-.593.266l-.525-.241a.657.657,0,0,0-.758.219l-.415-.14a.584.584,0,0,0-.68.448c0,.015-.006.031-.01.045a7.827,7.827,0,0,0-.834-.36.609.609,0,0,0-.751.244.551.551,0,0,0-.364.08,1.26,1.26,0,0,0-.409-.173,1.2,1.2,0,0,0-.918.159,3.673,3.673,0,0,0-.481-.255.975.975,0,0,0-.741.132c-.008.005-.014.012-.022.018l-.264-.162c-.447-.275-.91.239-.808.675a.545.545,0,0,0-.079.193.614.614,0,0,0-.513-.05.994.994,0,0,0-.068-.108,1.147,1.147,0,0,0-.666-.418c-.031-.007-.062-.012-.092-.018a1.655,1.655,0,0,0-.516-.257.567.567,0,0,0-.55.184.578.578,0,0,0-.088.139h0a.553.553,0,0,0-.271-.159c.009-.045.015-.092.027-.138a.576.576,0,0,0-.773-.646.645.645,0,0,0-.759.085l-.042.044a.581.581,0,0,0-.815-.1l0,0a.5.5,0,0,0-.513-.076c-.037.017-.071.036-.106.054a.613.613,0,0,0-.816-.3.624.624,0,0,0-.136.087.59.59,0,0,0-.793.024.457.457,0,0,0-.434-.03.543.543,0,0,0-.715.1,14.641,14.641,0,0,1-1.1,1.081.551.551,0,0,0-.519-.126.558.558,0,0,0-.867-.355l-.67.453a.581.581,0,0,0-.72-.064l-.048.033a.616.616,0,0,0-.528-.033.567.567,0,0,0-.508.163l-.222.22a.634.634,0,0,0-.636.125l-.418.386a.617.617,0,0,0-.561.151l-.212.191a.621.621,0,0,0-.718.116l-.088.084a.5.5,0,0,0-.683-.043c-.221.173-.433.357-.639.547a.548.548,0,0,0-.6.158l-.674.713a.551.551,0,0,0-.632.139l-.817.932-.023-.015a.606.606,0,0,0-.692.136,6.781,6.781,0,0,0-.625.657.6.6,0,0,0-.349.174c-.144.141-.278.291-.409.443a.573.573,0,0,0-.258.15,4.254,4.254,0,0,0-1,1.688l0,.005h0c-.015.047-.036.093-.051.141a.533.533,0,0,0-.008.28l-.379.892a.565.565,0,0,0,.006.485l-.085.239a.593.593,0,0,0,.475.818,2.541,2.541,0,0,0,.049.633c.1.476.7.438.978.191.019-.017.035-.036.053-.053a.538.538,0,0,0,.568-.167c.062-.077.116-.16.174-.24a.526.526,0,0,0,.2-.167.573.573,0,0,0,.79-.179c.007-.011.014-.022.02-.033l.13-.217a.589.589,0,0,0,.209-.211l.6-1.025a.53.53,0,0,0,.114-.029.627.627,0,0,0,.527-.156c.052-.049.1-.1.151-.151a.635.635,0,0,0,.365-.161,3.933,3.933,0,0,0,.5-.545l.016,0a.543.543,0,0,0,.75.166.553.553,0,0,0,.133-.119l.428-.587a.517.517,0,0,0,.329-.175,2.35,2.35,0,0,0,.2-.264.189.189,0,0,1,.24-.054.587.587,0,0,0,.747-.013.5.5,0,0,0,.7-.112v0l.276-.338a.54.54,0,0,0,.313-.112c.03-.022.059-.046.088-.069a.642.642,0,0,0,.488.009.528.528,0,0,0,.662-.135l.354-.424a.579.579,0,0,0,.248.08.531.531,0,0,0,.889.07l.269-.392a1.263,1.263,0,0,0,.339-.111.6.6,0,0,0,.8-.02.564.564,0,0,0,.707.02.606.606,0,0,0,.758.18.541.541,0,0,0,.765.026.573.573,0,0,0,.048-.051c.076-.082.152-.164.229-.245a.668.668,0,0,0,.551-.027c.065-.033.122-.075.184-.111a.6.6,0,0,0,.829.176.607.607,0,0,0,.107-.089c.117-.116.226-.238.339-.357a.6.6,0,0,0,.772-.081c.065-.069.124-.141.186-.213a.54.54,0,0,0,.335.07,2.506,2.506,0,0,0,.5-.1.514.514,0,0,0,.678.041c.016-.013.031-.027.047-.04a.776.776,0,0,0,.319-.092c.038-.019.074-.044.112-.066a.459.459,0,0,0,.162.01c.036-.005.071-.015.107-.021a.486.486,0,0,0,.224.1.6.6,0,0,0,.6-.266h.011a.571.571,0,0,0,.432-.261.481.481,0,0,0,.134-.268c.01-.07.019-.14.03-.21l.059-.062a2.281,2.281,0,0,0,.663,1.09.527.527,0,0,0,.191.108,2.1,2.1,0,0,0,.313.367.582.582,0,0,0,.8-.041.671.671,0,0,0,.687-.1,1.061,1.061,0,0,0,1.156.5.733.733,0,0,0,.232-.138.515.515,0,0,0,.276-.275,1.747,1.747,0,0,0,.591.258.521.521,0,0,0,.324.065.786.786,0,0,0,.966-.145,3.417,3.417,0,0,0,.6.4.609.609,0,0,0,.564-.03,1.076,1.076,0,0,0,.6.083,1.047,1.047,0,0,0,.521-.245,2.862,2.862,0,0,0,.475.261.66.66,0,0,0,.255.051.584.584,0,0,0,.513.25.665.665,0,0,0,.167-.044l0,0a.559.559,0,0,0,.316.05,1.124,1.124,0,0,0,.379.329.736.736,0,0,0,.17.061c.032.026.063.054.095.08a.569.569,0,0,0,.764-.024.612.612,0,0,0,.553-.075,2,2,0,0,0,.858.221,1.905,1.905,0,0,0,.227-.01.535.535,0,0,0,.349.175.561.561,0,0,0,.654-.159.527.527,0,0,0,.25.017c.031.023.062.045.093.065a3.75,3.75,0,0,0,.209.353.6.6,0,0,0,.329.23.625.625,0,0,0,.546.172.587.587,0,0,0,.351-.226q.26.423.52.844a.5.5,0,0,0,.678.208.491.491,0,0,0,.1-.069.479.479,0,0,0,.134-.048,4.955,4.955,0,0,1,.493.777.458.458,0,0,0,.275.237l.12.193a.569.569,0,0,0,.676.206.677.677,0,0,0,.219.14c.006.016.011.035.017.05a.929.929,0,0,0,.152.251.577.577,0,0,0,.65.283c.073.084.143.171.207.237.21.216.418.433.628.65a.55.55,0,0,0,.777-.034l.014-.015.158.13a.577.577,0,0,0,.814-.069.588.588,0,0,0,.105-.187.459.459,0,0,0,.332-.186A2.79,2.79,0,0,0,1702.281,1781.057Zm-35.6-3.159-.026-.013c.03-.016.058-.036.088-.053Zm29.943-.139-.043-.02.045.017Zm-16.87-.422h0C1679.757,1777.357,1679.755,1777.352,1679.75,1777.338Z" transform="translate(-1623.07 -1675.045)" fill="#4c18b2" stroke="rgba(0,0,0,0)" stroke-width="1"/>
      </g>
    </g>
  </g>
</svg>
