<svg xmlns="http://www.w3.org/2000/svg" width="154.688" height="50.879" viewBox="0 0 154.688 50.879">
  <g id="Group_1643" data-name="Group 1643" transform="translate(-249.845 -86.038)">
    <g id="Grupo_104" data-name="Grupo 104" transform="translate(300.868 124.351)">
      <path id="Trazado_450" data-name="Trazado 450" d="M362.718,175.754a4.8,4.8,0,0,1,4.932-4.96,4.292,4.292,0,0,1,3.638,1.9l-1.007.561a3.233,3.233,0,0,0-2.631-1.394,3.9,3.9,0,0,0,0,7.793,3.2,3.2,0,0,0,2.631-1.395l1.021.561a4.338,4.338,0,0,1-3.652,1.9A4.8,4.8,0,0,1,362.718,175.754Z" transform="translate(-362.718 -170.794)" fill="#fff"/>
      <path id="Trazado_451" data-name="Trazado 451" d="M384.985,183.766v-6.945h1.079v1.122a2.951,2.951,0,0,1,2.314-1.265v1.107a1.882,1.882,0,0,0-.43-.043,2.536,2.536,0,0,0-1.883,1.107v4.917Z" transform="translate(-374.919 -174.018)" fill="#fff"/>
      <path id="Trazado_452" data-name="Trazado 452" d="M394.591,180.251a3.474,3.474,0,0,1,3.422-3.638c2.1,0,3.336,1.64,3.336,3.724v.274h-5.622a2.446,2.446,0,0,0,2.5,2.4,3.035,3.035,0,0,0,2.143-.877l.517.705a3.773,3.773,0,0,1-2.761,1.064A3.444,3.444,0,0,1,394.591,180.251ZM398,177.5a2.317,2.317,0,0,0-2.272,2.315h4.558A2.252,2.252,0,0,0,398,177.5Z" transform="translate(-380.183 -173.982)" fill="#fff"/>
      <path id="Trazado_453" data-name="Trazado 453" d="M417.263,183.732v-.791a3,3,0,0,1-2.3.964,2.312,2.312,0,0,1-2.429-2.3,2.274,2.274,0,0,1,2.429-2.286,2.9,2.9,0,0,1,2.3.949v-1.251c0-.934-.748-1.466-1.755-1.466a2.756,2.756,0,0,0-2.127.964l-.5-.748a3.636,3.636,0,0,1,2.775-1.15c1.466,0,2.688.662,2.688,2.344v4.773Zm0-1.466v-1.308a2.325,2.325,0,0,0-1.913-.862,1.528,1.528,0,1,0,0,3.033,2.327,2.327,0,0,0,1.913-.862Z" transform="translate(-390.015 -173.984)" fill="#fff"/>
      <path id="Trazado_454" data-name="Trazado 454" d="M429.237,180.187v-4.543h-1.15V174.7h1.15v-1.9h1.078v1.9h1.409v.949h-1.409v4.313c0,.518.23.891.7.891a1.039,1.039,0,0,0,.733-.288l.317.806a1.761,1.761,0,0,1-1.295.446A1.42,1.42,0,0,1,429.237,180.187Z" transform="translate(-398.538 -171.891)" fill="#fff"/>
      <path id="Trazado_455" data-name="Trazado 455" d="M439.092,172.3a.726.726,0,0,1,1.452-.051c0,.017,0,.034,0,.051a.726.726,0,0,1-1.452,0Zm.187,8.656v-6.944h1.079v6.944Z" transform="translate(-404.568 -171.206)" fill="#fff"/>
      <path id="Trazado_456" data-name="Trazado 456" d="M447.264,183.94l-2.89-6.945h1.165l2.315,5.694,2.3-5.694h1.178l-2.889,6.945Z" transform="translate(-407.462 -174.192)" fill="#fff"/>
      <path id="Trazado_457" data-name="Trazado 457" d="M461.359,180.251a3.474,3.474,0,0,1,3.422-3.638c2.1,0,3.335,1.64,3.335,3.724v.274h-5.622a2.448,2.448,0,0,0,2.5,2.4,3.033,3.033,0,0,0,2.142-.877l.517.705a3.773,3.773,0,0,1-2.76,1.064A3.444,3.444,0,0,1,461.359,180.251Zm3.408-2.746a2.317,2.317,0,0,0-2.272,2.315h4.557a2.251,2.251,0,0,0-2.285-2.315Z" transform="translate(-416.769 -173.982)" fill="#fff"/>
      <path id="Trazado_458" data-name="Trazado 458" d="M494.1,180.733l-.848-2.128H488.48l-.849,2.128h-1.366l3.854-9.59H491.6l3.868,9.59Zm-3.235-8.353-2.042,5.162h4.069Z" transform="translate(-430.417 -170.985)" fill="#fff"/>
      <path id="Trazado_459" data-name="Trazado 459" d="M508.8,185.514l.546-.805a2.651,2.651,0,0,0,2.257.949,1.988,1.988,0,0,0,2.229-2.084v-.993a2.9,2.9,0,0,1-2.33,1.237c-1.811,0-3.091-1.352-3.091-3.594s1.265-3.61,3.091-3.61a2.879,2.879,0,0,1,2.33,1.222v-1.051h1.078v6.744c0,2.3-1.61,3.019-3.307,3.019A3.545,3.545,0,0,1,508.8,185.514Zm5.032-3.781V178.7a2.559,2.559,0,0,0-2.07-1.122c-1.394,0-2.229,1.107-2.229,2.646,0,1.523.834,2.645,2.229,2.645a2.572,2.572,0,0,0,2.07-1.135Z" transform="translate(-442.55 -173.983)" fill="#fff"/>
      <path id="Trazado_460" data-name="Trazado 460" d="M526.664,180.251a3.474,3.474,0,0,1,3.422-3.638c2.1,0,3.335,1.64,3.335,3.724v.274H527.8a2.447,2.447,0,0,0,2.5,2.4,3.03,3.03,0,0,0,2.142-.877l.518.705A3.773,3.773,0,0,1,530.2,183.9,3.444,3.444,0,0,1,526.664,180.251Zm3.407-2.746a2.317,2.317,0,0,0-2.271,2.315h4.558a2.253,2.253,0,0,0-2.286-2.315Z" transform="translate(-452.554 -173.982)" fill="#fff"/>
      <path id="Trazado_461" data-name="Trazado 461" d="M550.15,183.73v-4.543c0-1.222-.617-1.611-1.552-1.611a2.682,2.682,0,0,0-2.055,1.079v5.075h-1.079v-6.945h1.079v1.007a3.444,3.444,0,0,1,2.473-1.179,1.974,1.974,0,0,1,2.214,2.243v4.874Z" transform="translate(-462.855 -173.982)" fill="#fff"/>
      <path id="Trazado_462" data-name="Trazado 462" d="M562.1,180.251a3.431,3.431,0,0,1,3.465-3.638,2.969,2.969,0,0,1,2.544,1.208l-.718.661a2.061,2.061,0,0,0-1.769-.906,2.7,2.7,0,0,0,0,5.363,2.1,2.1,0,0,0,1.769-.905l.718.661a2.971,2.971,0,0,1-2.544,1.207A3.435,3.435,0,0,1,562.1,180.251Z" transform="translate(-471.972 -173.982)" fill="#fff"/>
      <path id="Trazado_463" data-name="Trazado 463" d="M577.266,185.679a1.656,1.656,0,0,0,.589.115,1,1,0,0,0,1.035-.733l.46-1.049-2.9-7.017h1.164l2.315,5.694,2.3-5.694h1.18l-3.48,8.354a2.064,2.064,0,0,1-2.042,1.409,3.509,3.509,0,0,1-.791-.1Z" transform="translate(-479.832 -174.192)" fill="#fff"/>
    </g>
    <g id="Grupo_106" data-name="Grupo 106" transform="translate(300.868 96.989)">
      <g id="Grupo_105" data-name="Grupo 105" transform="translate(0)">
        <path id="Trazado_464" data-name="Trazado 464" d="M362.745,130.7l.65-2.389a.773.773,0,0,1,.949-.544.738.738,0,0,1,.125.046A13.024,13.024,0,0,0,369.889,129c2.082,0,3.47-.851,3.47-2.4,0-1.766-1.861-2.554-3.974-3.5-2.87-1.324-6.37-2.964-6.37-6.843,0-3.909,3.437-5.99,7.725-5.99a17.784,17.784,0,0,1,6.045,1.087.784.784,0,0,1,.454.945l-.663,2.312a.783.783,0,0,1-.967.541.726.726,0,0,1-.082-.028,13.4,13.4,0,0,0-4.629-1.011c-1.923,0-3.091.788-3.091,2.176,0,1.64,1.861,2.522,3.974,3.5,2.869,1.293,6.338,2.807,6.338,6.811,0,3.751-3,6.243-8.072,6.243a19.866,19.866,0,0,1-6.855-1.225A.774.774,0,0,1,362.745,130.7Z" transform="translate(-362.717 -110.265)" fill="#fff"/>
        <path id="Trazado_465" data-name="Trazado 465" d="M406.132,124.35V112.53a.777.777,0,0,1,1.172-.669l3.11,1.833a.786.786,0,0,1,.386.676v10.168c0,3.027,1.545,4.762,4.289,4.762s4.256-1.734,4.256-4.762V111.947a.777.777,0,0,1,.777-.777h3.111a.779.779,0,0,1,.779.778v12.4c0,5.771-3.217,8.987-8.924,8.987C409.348,133.337,406.132,130.121,406.132,124.35Z" transform="translate(-386.507 -110.76)" fill="#fff"/>
        <path id="Trazado_466" data-name="Trazado 466" d="M470.607,132.84a.778.778,0,0,1-.673-.387l-4.127-7.106H462.8v6.711a.781.781,0,0,1-.781.781h-3.28a.781.781,0,0,1-.782-.781V111.043a.78.78,0,0,1,.78-.78h6.942c5.4,0,8.541,2.781,8.541,7.526,0,3.337-1.505,5.693-4.253,6.806l4.664,7.038a.778.778,0,0,1-.649,1.207Zm-7.81-11.452h2.781a3.337,3.337,0,0,0,3.664-3.6c0-2.226-1.373-3.534-3.664-3.534h-2a.781.781,0,0,0-.78.781Z" transform="translate(-414.903 -110.263)" fill="#fff"/>
        <path id="Trazado_467" data-name="Trazado 467" d="M501.437,121.615c0-7.284,3.784-11.352,10.374-11.352a11.754,11.754,0,0,1,5.743,1.32.781.781,0,0,1,.333.988l-.957,2.206a.781.781,0,0,1-1.031.4l-.016-.007A9.34,9.34,0,0,0,512,114.3c-3.784,0-5.771,2.554-5.771,7.347,0,4.666,1.86,7.158,5.834,7.158a9.025,9.025,0,0,0,4.1-.986.773.773,0,0,1,1.035.352c.008.015.015.031.021.047l.917,2.2a.776.776,0,0,1-.341.982,12.819,12.819,0,0,1-5.987,1.444C505.189,132.84,501.437,128.8,501.437,121.615Z" transform="translate(-438.73 -110.263)" fill="#fff"/>
        <path id="Trazado_468" data-name="Trazado 468" d="M545.449,121.584c0-7.253,3.783-11.32,10.437-11.32,6.779,0,10.626,4.067,10.626,11.32,0,7.221-3.847,11.256-10.626,11.256C549.232,132.841,545.449,128.8,545.449,121.584Zm16.239,0c0-4.7-2.05-7.284-5.834-7.284-3.657,0-5.644,2.585-5.644,7.284,0,4.666,1.987,7.221,5.644,7.221,3.784,0,5.834-2.554,5.834-7.221Z" transform="translate(-462.847 -110.264)" fill="#fff"/>
      </g>
    </g>
    <g id="Grupo_109" data-name="Grupo 109" transform="translate(249.845 86.038)">
      <g id="Grupo_108" data-name="Grupo 108">
        <g id="Grupo_107" data-name="Grupo 107">
          <path id="Trazado_469" data-name="Trazado 469" d="M281.973,150.858a.665.665,0,0,0,.468-1.138c-8.434-8.343-8.847-15.7-6.422-19.794a.665.665,0,0,0-1.145-.677c-2.68,4.53-2.346,12.535,6.631,21.416A.663.663,0,0,0,281.973,150.858Z" transform="translate(-262.756 -109.537)" fill="#fff"/>
          <path id="Trazado_470" data-name="Trazado 470" d="M336.263,136.539h-.012a.664.664,0,0,0-.653.676c.081,4.8-2.569,7.159-4.862,7.726a.665.665,0,1,0,.319,1.291c2.988-.738,5.962-3.82,5.873-9.039A.664.664,0,0,0,336.263,136.539Z" transform="translate(-293.893 -113.71)" fill="#fff"/>
          <path id="Trazado_471" data-name="Trazado 471" d="M308.292,146.306c-3.6.421-6.42-.226-8.37-1.922a9.2,9.2,0,0,1-2.847-6.107.664.664,0,0,0-.664-.651H296.4a.665.665,0,0,0-.652.677h0a10.4,10.4,0,0,0,3.29,7.073,10.6,10.6,0,0,0,7.211,2.384,19,19,0,0,0,2.2-.133.665.665,0,0,0-.154-1.321Z" transform="translate(-274.997 -114.306)" fill="#fff"/>
          <path id="Trazado_472" data-name="Trazado 472" d="M292.392,116.888a10.784,10.784,0,0,0-11.866,2.74.665.665,0,0,0,.971.909,9.352,9.352,0,0,1,10.409-2.41,8.649,8.649,0,0,1,5.6,8.155.665.665,0,0,0,.665.663h0a.666.666,0,0,0,.663-.667A9.956,9.956,0,0,0,292.392,116.888Z" transform="translate(-266.561 -102.534)" fill="#fff"/>
          <path id="Trazado_473" data-name="Trazado 473" d="M306.317,132.19a.665.665,0,1,0-1.322.139,4.179,4.179,0,0,1-3.826,4.534c-2.006.252-4.548-.782-5.1-4.532a5.181,5.181,0,0,0-5.907-4.669,5.558,5.558,0,0,0-5.154,5.968c.472,12.385,14.305,13.788,14.444,13.8l.061,0a.665.665,0,0,0,.06-1.327c-.128-.012-12.809-1.3-13.238-12.545a4.267,4.267,0,0,1,3.967-4.576,3.874,3.874,0,0,1,4.45,3.54c.646,4.4,3.77,6.013,6.581,5.659A5.486,5.486,0,0,0,306.317,132.19Z" transform="translate(-269.105 -108.827)" fill="#fff"/>
          <path id="Trazado_474" data-name="Trazado 474" d="M281.935,106.379c5.015,1.171,8.531,4.91,9.9,10.528a.665.665,0,0,0,1.292-.316c-1.495-6.129-5.362-10.216-10.89-11.507a17.41,17.41,0,0,0-16.874,5.794c-2.538,3.025-6.148,9.614-1.807,19.769a.665.665,0,0,0,1.223-.523c-3.01-7.041-2.441-13.573,1.6-18.39A16.048,16.048,0,0,1,281.935,106.379Z" transform="translate(-256.249 -96.253)" fill="#fff"/>
          <path id="Trazado_475" data-name="Trazado 475" d="M286.247,123.824a15.146,15.146,0,0,1-2.913-.112.665.665,0,0,0-.184,1.317c.121.017.643.086,1.307.128l-7.6,4.41a3.779,3.779,0,0,0-1.882,3.269v1.343a.419.419,0,0,1-.628.363l-19.815-11.392a6.737,6.737,0,0,1-3.346-5.81V101.82a6.736,6.736,0,0,1,3.346-5.81l13.323-7.729a6.73,6.73,0,0,1,6.74,0l6.443,3.738,3,1.739c3.322,2.114,5.152,4.216,6.143,6.468a15.488,15.488,0,0,1,1.108,6.2.738.738,0,0,0,.738.727h.009a.79.79,0,0,0,.769-.88c-.022-.591-.061-1.172-.123-1.744a13.677,13.677,0,0,0-5.622-10.375,52.309,52.309,0,0,0-5.322-3.275l-6.47-3.754a8.076,8.076,0,0,0-8.085,0l-13.323,7.729a8.079,8.079,0,0,0-4.014,6.969v15.52a8.081,8.081,0,0,0,4.015,6.969l21.83,12.551a.416.416,0,0,0,.624-.361v-3.661a2.452,2.452,0,0,1,1.218-2.114l9.442-5.536A.809.809,0,0,0,286.247,123.824Z" transform="translate(-249.845 -86.038)" fill="#fff"/>
        </g>
      </g>
    </g>
  </g>
</svg>
