<svg xmlns="http://www.w3.org/2000/svg" width="37.025" height="43.772" viewBox="0 0 37.025 43.772">
  <g id="Group_3344" data-name="Group 3344" transform="translate(-249.845 -86.038)">
    <g id="Grupo_109" data-name="Grupo 109" transform="translate(249.845 86.038)">
      <g id="Grupo_108" data-name="Grupo 108">
        <g id="Grupo_107" data-name="Grupo 107">
          <path id="Trazado_469" data-name="Trazado 469" d="M280.776,147.794a.572.572,0,0,0,.4-.979c-7.256-7.178-7.612-13.5-5.525-17.029a.572.572,0,0,0-.985-.582c-2.306,3.9-2.019,10.784,5.705,18.424A.57.57,0,0,0,280.776,147.794Z" transform="translate(-264.244 -112.245)" fill="#fff"/>
          <path id="Trazado_470" data-name="Trazado 470" d="M335.42,136.539h-.01a.572.572,0,0,0-.562.581c.07,4.126-2.21,6.159-4.183,6.647a.572.572,0,1,0,.274,1.111c2.57-.635,5.129-3.286,5.053-7.777A.571.571,0,0,0,335.42,136.539Z" transform="translate(-298.968 -116.899)" fill="#fff"/>
          <path id="Trazado_471" data-name="Trazado 471" d="M306.539,145.093c-3.1.362-5.524-.195-7.2-1.653a7.916,7.916,0,0,1-2.449-5.254.571.571,0,0,0-.572-.56h-.011a.572.572,0,0,0-.561.582h0a8.944,8.944,0,0,0,2.831,6.085,9.118,9.118,0,0,0,6.2,2.051,16.343,16.343,0,0,0,1.891-.115.572.572,0,0,0-.132-1.137Z" transform="translate(-277.895 -117.563)" fill="#fff"/>
          <path id="Trazado_472" data-name="Trazado 472" d="M290.71,116.784a9.278,9.278,0,0,0-10.209,2.357.572.572,0,0,0,.836.782,8.046,8.046,0,0,1,8.955-2.074,7.441,7.441,0,0,1,4.816,7.016.572.572,0,0,0,.572.57h0a.573.573,0,0,0,.57-.574A8.565,8.565,0,0,0,290.71,116.784Z" transform="translate(-268.487 -104.435)" fill="#fff"/>
          <path id="Trazado_473" data-name="Trazado 473" d="M303.338,131.553a.572.572,0,1,0-1.138.119,3.6,3.6,0,0,1-3.291,3.9c-1.726.217-3.913-.673-4.387-3.9a4.457,4.457,0,0,0-5.082-4.017,4.782,4.782,0,0,0-4.434,5.135c.406,10.655,12.307,11.862,12.427,11.873l.053,0a.572.572,0,0,0,.051-1.142c-.11-.01-11.02-1.115-11.389-10.793a3.671,3.671,0,0,1,3.413-3.937,3.333,3.333,0,0,1,3.829,3.045c.556,3.786,3.244,5.174,5.662,4.868A4.72,4.72,0,0,0,303.338,131.553Z" transform="translate(-271.325 -111.453)" fill="#fff"/>
          <path id="Trazado_474" data-name="Trazado 474" d="M279.085,106.141c4.315,1.008,7.34,4.224,8.518,9.057a.572.572,0,0,0,1.112-.271c-1.286-5.273-4.613-8.789-9.369-9.9a14.978,14.978,0,0,0-14.517,4.985c-2.184,2.6-5.289,8.271-1.555,17.007a.572.572,0,0,0,1.052-.45c-2.59-6.058-2.1-11.677,1.379-15.822A13.806,13.806,0,0,1,279.085,106.141Z" transform="translate(-256.987 -97.43)" fill="#fff"/>
          <path id="Trazado_475" data-name="Trazado 475" d="M281.163,118.546a13.031,13.031,0,0,1-2.506-.1.572.572,0,0,0-.158,1.133c.1.014.553.074,1.124.11l-6.539,3.794a3.251,3.251,0,0,0-1.619,2.812v1.155a.36.36,0,0,1-.54.313l-17.047-9.8a5.8,5.8,0,0,1-2.879-5V99.616a5.8,5.8,0,0,1,2.879-5l11.462-6.65a5.79,5.79,0,0,1,5.8,0l5.543,3.216,2.58,1.5a12.871,12.871,0,0,1,5.285,5.564,13.324,13.324,0,0,1,.954,5.33.634.634,0,0,0,.635.625h.008a.679.679,0,0,0,.662-.757c-.019-.509-.053-1.008-.106-1.5a11.767,11.767,0,0,0-4.836-8.926,45,45,0,0,0-4.579-2.817l-5.567-3.229a6.948,6.948,0,0,0-6.955,0L253.3,93.621a6.95,6.95,0,0,0-3.453,6v13.352a6.952,6.952,0,0,0,3.454,6l18.78,10.8a.358.358,0,0,0,.537-.311V126.3a2.11,2.11,0,0,1,1.048-1.819l8.123-4.763A.7.7,0,0,0,281.163,118.546Z" transform="translate(-249.845 -86.038)" fill="#fff"/>
        </g>
      </g>
    </g>
  </g>
</svg>
