<svg xmlns="http://www.w3.org/2000/svg" width="26.495" height="18.561" viewBox="0 0 26.495 18.561">
  <g id="Group_1623" data-name="Group 1623" transform="translate(-409.306 705.787)">
    <path id="Path_10714" data-name="Path 10714" d="M410.7-703h11.207a1.4,1.4,0,0,0,1.4-1.4,1.4,1.4,0,0,0-1.4-1.4H410.7a1.4,1.4,0,0,0-1.4,1.4A1.4,1.4,0,0,0,410.7-703Z" fill="#fff"/>
    <path id="Path_10715" data-name="Path 10715" d="M427.761-663.417H410.7a1.4,1.4,0,0,0-1.4,1.4,1.4,1.4,0,0,0,1.4,1.4h17.059a1.4,1.4,0,0,0,1.4-1.4A1.4,1.4,0,0,0,427.761-663.417Z" transform="translate(0 -26.6)" fill="#fff"/>
    <path id="Path_10716" data-name="Path 10716" d="M434.405-684.6H410.7a1.4,1.4,0,0,0-1.4,1.4,1.4,1.4,0,0,0,1.4,1.4h23.7a1.4,1.4,0,0,0,1.4-1.4A1.4,1.4,0,0,0,434.405-684.6Z" transform="translate(0 -13.3)" fill="#fff"/>
  </g>
</svg>
