<svg xmlns="http://www.w3.org/2000/svg" width="161.572" height="162.104" viewBox="0 0 161.572 162.104">
  <g id="Group_3367" data-name="Group 3367" transform="translate(-85.161 -1157.085)">
    <g id="Group_1458" data-name="Group 1458" transform="translate(156.059 1201.675) rotate(17)">
      <path id="Path_3880" data-name="Path 3880" d="M0,14.1,81.183,0,29.8,71.616Z" fill="none" stroke="#5cffc4" stroke-linecap="round" stroke-linejoin="round" stroke-width="2"/>
      <path id="Path_3881" data-name="Path 3881" d="M52.683,0C51.207.654,0,30.886,0,30.886l1.3,40.73Z" transform="translate(28.501 0)" fill="none" stroke="#5cffc4" stroke-linecap="round" stroke-linejoin="round" stroke-width="2"/>
      <path id="Path_3882" data-name="Path 3882" d="M0,14.1,28.5,30.886,81.183,0Z" fill="none" stroke="#5cffc4" stroke-linecap="round" stroke-linejoin="round" stroke-width="2"/>
    </g>
    <path id="Path_10749" data-name="Path 10749" d="M2.207,19.7A2.2,2.2,0,0,1,1.088,15.59L27.112.3a2.2,2.2,0,1,1,2.233,3.8L3.322,19.392A2.193,2.193,0,0,1,2.207,19.7Z" transform="matrix(0.996, -0.087, 0.087, 0.996, 120.896, 1261.933)" fill="#6f3bed" stroke="#000" stroke-width="1"/>
    <path id="Path_10750" data-name="Path 10750" d="M2.208,33.556a2.205,2.205,0,0,1-1.12-4.106L50.707.3a2.2,2.2,0,1,1,2.234,3.8L3.323,33.251A2.2,2.2,0,0,1,2.208,33.556Z" transform="matrix(0.996, -0.087, 0.087, 0.996, 85.721, 1285.219)" fill="#6f3bed" stroke="#000" stroke-width="1"/>
    <path id="Path_10751" data-name="Path 10751" d="M2.207,6.233A2.2,2.2,0,0,1,1.088,2.127L4.193.3a2.2,2.2,0,1,1,2.233,3.8l-3.1,1.823A2.193,2.193,0,0,1,2.207,6.233Z" transform="matrix(0.996, -0.087, 0.087, 0.996, 140.973, 1248.441)" fill="#6f3bed" stroke="#000" stroke-width="1"/>
    <path id="Path_10753" data-name="Path 10753" d="M2.207,6.233A2.2,2.2,0,0,1,1.088,2.127L4.193.3a2.2,2.2,0,1,1,2.233,3.8l-3.1,1.823A2.193,2.193,0,0,1,2.207,6.233Z" transform="matrix(0.996, -0.087, 0.087, 0.996, 168.385, 1283.547)" fill="#6f3bed" stroke="#000" stroke-width="1"/>
    <path id="Path_10752" data-name="Path 10752" d="M2.207,27.847a2.2,2.2,0,0,1-1.119-4.106L40.99.3a2.2,2.2,0,1,1,2.234,3.8L3.322,27.542A2.193,2.193,0,0,1,2.207,27.847Z" transform="matrix(0.996, -0.087, 0.087, 0.996, 110.342, 1287.408)" fill="#6f3bed" stroke="#000" stroke-width="1"/>
    <path id="Path_10754" data-name="Path 10754" d="M502.274,48.235,499.617,46.7a.6.6,0,0,0-.6,0l-2.657,1.534a.6.6,0,0,0-.3.518v3.068a.6.6,0,0,0,.3.518l2.657,1.534a.6.6,0,0,0,.6,0l2.657-1.534a.6.6,0,0,0,.3-.518V48.753A.6.6,0,0,0,502.274,48.235Z" transform="translate(-258.782 1234.508)" fill="#656d8e"/>
    <path id="Path_10756" data-name="Path 10756" d="M499.446,47.5,498,46.664a.326.326,0,0,0-.326,0l-1.447.836a.327.327,0,0,0-.163.282v1.671a.326.326,0,0,0,.163.282l1.447.836a.326.326,0,0,0,.326,0l1.447-.836a.326.326,0,0,0,.163-.282V47.782A.327.327,0,0,0,499.446,47.5Z" transform="translate(-404.063 1174.882)" fill="#656d8e"/>
    <path id="Path_10755" data-name="Path 10755" d="M506.073,49.222,501.79,46.75a.966.966,0,0,0-.963,0l-4.282,2.472a.966.966,0,0,0-.482.834V55a.966.966,0,0,0,.482.834l4.282,2.472a.965.965,0,0,0,.963,0l4.282-2.472a.966.966,0,0,0,.482-.834V50.056A.966.966,0,0,0,506.073,49.222Z" transform="translate(-258.911 1234.396) rotate(-14)" fill="#656d8e"/>
  </g>
</svg>
