<svg xmlns="http://www.w3.org/2000/svg" width="138" height="28.942" viewBox="0 0 138 28.942">
  <path id="right-arrow" d="M24.862,29.442a3.852,3.852,0,0,1-1.476-.295,3.8,3.8,0,0,1-2.361-3.519V22.35a1.524,1.524,0,1,1,3.047,0v3.278a.743.743,0,0,0,.479.7.756.756,0,0,0,.852-.162L35.508,16.052a1.531,1.531,0,0,0,0-2.162L25.4,3.772a.756.756,0,0,0-.852-.163.743.743,0,0,0-.48.7v9.209a3.051,3.051,0,0,1-3.047,3.047h-118.5A1.523,1.523,0,0,1-99,15.047a1.524,1.524,0,0,1,1.523-1.524h118.5V4.314a3.83,3.83,0,0,1,6.534-2.695L37.664,11.736a4.583,4.583,0,0,1,0,6.469L27.559,28.323a3.806,3.806,0,0,1-2.7,1.119Zm0,0" transform="translate(99 -0.5)" fill="#656d8e"/>
</svg>
