<svg xmlns="http://www.w3.org/2000/svg" width="177.156" height="58.269" viewBox="0 0 177.156 58.269">
  <g id="Group_1622" data-name="Group 1622" transform="translate(-249.845 -86.038)">
    <g id="Grupo_104" data-name="Grupo 104" transform="translate(308.279 129.916)">
      <path id="Trazado_450" data-name="Trazado 450" d="M362.718,176.475a5.494,5.494,0,0,1,5.648-5.681,4.916,4.916,0,0,1,4.166,2.173l-1.153.642a3.7,3.7,0,0,0-3.013-1.6,4.469,4.469,0,0,0,0,8.925,3.663,3.663,0,0,0,3.013-1.6l1.169.642a4.968,4.968,0,0,1-4.182,2.174A5.5,5.5,0,0,1,362.718,176.475Z" transform="translate(-362.718 -170.794)" fill="#6f3bed"/>
      <path id="Trazado_451" data-name="Trazado 451" d="M384.985,184.8v-7.953h1.235v1.285a3.38,3.38,0,0,1,2.651-1.449v1.268a2.157,2.157,0,0,0-.492-.049,2.9,2.9,0,0,0-2.157,1.268V184.8Z" transform="translate(-373.457 -173.632)" fill="#6f3bed"/>
      <path id="Trazado_452" data-name="Trazado 452" d="M394.591,180.779a3.978,3.978,0,0,1,3.919-4.166c2.4,0,3.821,1.878,3.821,4.265v.313h-6.439a2.8,2.8,0,0,0,2.864,2.749,3.475,3.475,0,0,0,2.454-1l.592.808a4.321,4.321,0,0,1-3.162,1.218A3.944,3.944,0,0,1,394.591,180.779Zm3.9-3.145a2.653,2.653,0,0,0-2.6,2.651h5.22a2.579,2.579,0,0,0-2.618-2.651Z" transform="translate(-378.09 -173.6)" fill="#6f3bed"/>
      <path id="Trazado_453" data-name="Trazado 453" d="M417.95,184.766v-.905a3.44,3.44,0,0,1-2.635,1.1,2.648,2.648,0,0,1-2.782-2.635,2.6,2.6,0,0,1,2.782-2.618,3.325,3.325,0,0,1,2.635,1.087v-1.432c0-1.07-.856-1.679-2.01-1.679a3.156,3.156,0,0,0-2.436,1.1l-.577-.856a4.165,4.165,0,0,1,3.178-1.318c1.679,0,3.079.758,3.079,2.685v5.466Zm0-1.679v-1.5a2.662,2.662,0,0,0-2.19-.988,1.75,1.75,0,1,0,0,3.474,2.664,2.664,0,0,0,2.19-.988Z" transform="translate(-386.744 -173.602)" fill="#6f3bed"/>
      <path id="Trazado_454" data-name="Trazado 454" d="M429.4,181.26v-5.2h-1.317v-1.087H429.4V172.8h1.235v2.174h1.613v1.087h-1.613V181c0,.593.264,1.021.807,1.021a1.19,1.19,0,0,0,.84-.33l.363.923a2.017,2.017,0,0,1-1.483.511A1.627,1.627,0,0,1,429.4,181.26Z" transform="translate(-394.246 -171.76)" fill="#6f3bed"/>
      <path id="Trazado_455" data-name="Trazado 455" d="M439.092,172.407a.832.832,0,0,1,1.663-.059c0,.02,0,.039,0,.059a.832.832,0,0,1-1.663,0Zm.214,9.913v-7.953h1.235v7.952Z" transform="translate(-399.553 -171.156)" fill="#6f3bed"/>
      <path id="Trazado_456" data-name="Trazado 456" d="M447.684,184.948l-3.31-7.953h1.334l2.651,6.521,2.635-6.521h1.35l-3.309,7.953Z" transform="translate(-402.101 -173.785)" fill="#6f3bed"/>
      <path id="Trazado_457" data-name="Trazado 457" d="M461.359,180.779a3.978,3.978,0,0,1,3.919-4.166c2.4,0,3.82,1.878,3.82,4.265v.313h-6.439a2.8,2.8,0,0,0,2.865,2.749,3.474,3.474,0,0,0,2.453-1l.592.808a4.32,4.32,0,0,1-3.161,1.218A3.944,3.944,0,0,1,461.359,180.779Zm3.9-3.145a2.653,2.653,0,0,0-2.6,2.651h5.219a2.578,2.578,0,0,0-2.616-2.651Z" transform="translate(-410.293 -173.6)" fill="#6f3bed"/>
      <path id="Trazado_458" data-name="Trazado 458" d="M495.239,182.126l-.971-2.437H488.8l-.972,2.437h-1.564l4.413-10.983h1.7l4.429,10.983Zm-3.7-9.567-2.338,5.912h4.66Z" transform="translate(-422.305 -170.962)" fill="#6f3bed"/>
      <path id="Trazado_459" data-name="Trazado 459" d="M508.852,186.806l.625-.922a3.036,3.036,0,0,0,2.585,1.087,2.277,2.277,0,0,0,2.553-2.387v-1.137a3.325,3.325,0,0,1-2.668,1.416c-2.074,0-3.539-1.548-3.539-4.116,0-2.553,1.449-4.134,3.539-4.134a3.3,3.3,0,0,1,2.668,1.4v-1.2h1.235v7.723c0,2.635-1.844,3.458-3.787,3.458A4.06,4.06,0,0,1,508.852,186.806Zm5.763-4.331V179a2.932,2.932,0,0,0-2.371-1.285c-1.6,0-2.553,1.268-2.553,3.03,0,1.745.956,3.029,2.553,3.029a2.945,2.945,0,0,0,2.371-1.3Z" transform="translate(-432.984 -173.601)" fill="#6f3bed"/>
      <path id="Trazado_460" data-name="Trazado 460" d="M526.664,180.779a3.978,3.978,0,0,1,3.919-4.166c2.4,0,3.82,1.878,3.82,4.265v.313h-6.438a2.8,2.8,0,0,0,2.865,2.749,3.47,3.47,0,0,0,2.453-1l.593.808a4.321,4.321,0,0,1-3.161,1.218A3.944,3.944,0,0,1,526.664,180.779Zm3.9-3.145a2.653,2.653,0,0,0-2.6,2.651h5.22a2.58,2.58,0,0,0-2.619-2.651Z" transform="translate(-441.79 -173.6)" fill="#6f3bed"/>
      <path id="Trazado_461" data-name="Trazado 461" d="M550.831,184.764v-5.2c0-1.4-.707-1.845-1.778-1.845a3.071,3.071,0,0,0-2.354,1.235v5.812h-1.235V176.81H546.7v1.153a3.945,3.945,0,0,1,2.832-1.351,2.261,2.261,0,0,1,2.535,2.569v5.582Z" transform="translate(-450.857 -173.6)" fill="#6f3bed"/>
      <path id="Trazado_462" data-name="Trazado 462" d="M562.1,180.779a3.929,3.929,0,0,1,3.969-4.166A3.4,3.4,0,0,1,568.983,178l-.822.757a2.36,2.36,0,0,0-2.026-1.037,3.09,3.09,0,0,0,0,6.142,2.4,2.4,0,0,0,2.026-1.037l.822.757a3.4,3.4,0,0,1-2.913,1.383A3.934,3.934,0,0,1,562.1,180.779Z" transform="translate(-458.881 -173.6)" fill="#6f3bed"/>
      <path id="Trazado_463" data-name="Trazado 463" d="M577.385,186.94a1.9,1.9,0,0,0,.675.132,1.143,1.143,0,0,0,1.186-.84l.526-1.2-3.326-8.036h1.334l2.651,6.521,2.635-6.521h1.351l-3.986,9.567a2.364,2.364,0,0,1-2.338,1.613,4.017,4.017,0,0,1-.905-.115Z" transform="translate(-465.8 -173.785)" fill="#6f3bed"/>
    </g>
    <g id="Grupo_106" data-name="Grupo 106" transform="translate(308.279 98.579)">
      <g id="Grupo_105" data-name="Grupo 105" transform="translate(0)">
        <path id="Trazado_464" data-name="Trazado 464" d="M362.749,133.666l.744-2.737a.886.886,0,0,1,1.087-.623.843.843,0,0,1,.143.052,14.916,14.916,0,0,0,6.207,1.356c2.384,0,3.974-.975,3.974-2.744,0-2.023-2.131-2.925-4.551-4.007-3.286-1.516-7.295-3.395-7.295-7.837,0-4.477,3.936-6.86,8.847-6.86a20.367,20.367,0,0,1,6.923,1.245.9.9,0,0,1,.52,1.083l-.759,2.648a.9.9,0,0,1-1.107.62.839.839,0,0,1-.094-.032,15.341,15.341,0,0,0-5.3-1.158c-2.2,0-3.539.9-3.539,2.492,0,1.878,2.131,2.889,4.551,4.009,3.286,1.481,7.258,3.214,7.258,7.8,0,4.3-3.43,7.149-9.244,7.149a22.751,22.751,0,0,1-7.851-1.4A.887.887,0,0,1,362.749,133.666Z" transform="translate(-362.717 -110.265)" fill="#6f3bed"/>
        <path id="Trazado_465" data-name="Trazado 465" d="M406.132,126.264V112.728a.889.889,0,0,1,1.342-.766l3.561,2.1a.9.9,0,0,1,.442.774v11.645c0,3.467,1.769,5.453,4.912,5.453s4.874-1.986,4.874-5.453V112.06a.89.89,0,0,1,.89-.89h3.563a.892.892,0,0,1,.892.891v14.2c0,6.609-3.684,10.292-10.22,10.292C409.815,136.557,406.132,132.873,406.132,126.264Z" transform="translate(-383.656 -110.7)" fill="#6f3bed"/>
        <path id="Trazado_466" data-name="Trazado 466" d="M472.445,136.119a.891.891,0,0,1-.771-.443l-4.727-8.138H463.5v7.686a.894.894,0,0,1-.895.895h-3.757a.9.9,0,0,1-.9-.895V111.156a.893.893,0,0,1,.893-.893H466.8c6.183,0,9.781,3.185,9.781,8.619,0,3.822-1.724,6.519-4.871,7.794l5.341,8.061a.891.891,0,0,1-.743,1.383ZM463.5,123h3.185a3.821,3.821,0,0,0,4.2-4.121c0-2.549-1.573-4.047-4.2-4.047h-2.292a.894.894,0,0,0-.894.894Z" transform="translate(-408.65 -110.263)" fill="#6f3bed"/>
        <path id="Trazado_467" data-name="Trazado 467" d="M501.437,123.264c0-8.342,4.333-13,11.881-13a13.461,13.461,0,0,1,6.577,1.512.9.9,0,0,1,.381,1.132l-1.1,2.526a.9.9,0,0,1-1.18.458l-.018-.008a10.7,10.7,0,0,0-4.446-1c-4.334,0-6.609,2.924-6.609,8.414,0,5.344,2.13,8.2,6.681,8.2a10.336,10.336,0,0,0,4.7-1.129.885.885,0,0,1,1.185.4c.009.018.017.036.024.054l1.05,2.515a.888.888,0,0,1-.39,1.124,14.681,14.681,0,0,1-6.856,1.654C505.734,136.119,501.437,131.5,501.437,123.264Z" transform="translate(-429.622 -110.263)" fill="#6f3bed"/>
        <path id="Trazado_468" data-name="Trazado 468" d="M545.449,123.229c0-8.306,4.333-12.965,11.953-12.965,7.764,0,12.169,4.658,12.169,12.965,0,8.27-4.406,12.891-12.169,12.891C549.782,136.12,545.449,131.5,545.449,123.229Zm18.6,0c0-5.382-2.347-8.342-6.681-8.342-4.189,0-6.464,2.96-6.464,8.342,0,5.344,2.275,8.27,6.464,8.27,4.334,0,6.681-2.926,6.681-8.27Z" transform="translate(-450.849 -110.263)" fill="#6f3bed"/>
      </g>
    </g>
    <g id="Grupo_109" data-name="Grupo 109" transform="translate(249.845 86.038)">
      <g id="Grupo_108" data-name="Grupo 108">
        <g id="Grupo_107" data-name="Grupo 107">
          <path id="Trazado_469" data-name="Trazado 469" d="M283.217,154.044a.762.762,0,0,0,.536-1.3c-9.659-9.555-10.132-17.975-7.355-22.669a.761.761,0,0,0-1.311-.775c-3.069,5.188-2.687,14.356,7.595,24.526A.759.759,0,0,0,283.217,154.044Z" transform="translate(-261.209 -106.721)" fill="#6f3bed"/>
          <path id="Trazado_470" data-name="Trazado 470" d="M337.139,136.539h-.013a.761.761,0,0,0-.748.774c.093,5.493-2.942,8.2-5.568,8.848a.761.761,0,1,0,.365,1.479c3.421-.845,6.828-4.375,6.726-10.352A.761.761,0,0,0,337.139,136.539Z" transform="translate(-288.615 -110.395)" fill="#6f3bed"/>
          <path id="Trazado_471" data-name="Trazado 471" d="M310.114,147.566c-4.128.482-7.353-.259-9.585-2.2a10.538,10.538,0,0,1-3.26-6.994.76.76,0,0,0-.761-.745h-.015a.761.761,0,0,0-.747.775h0a11.905,11.905,0,0,0,3.768,8.1,12.137,12.137,0,0,0,8.258,2.73,21.75,21.75,0,0,0,2.517-.153.762.762,0,0,0-.176-1.513Z" transform="translate(-271.983 -110.919)" fill="#6f3bed"/>
          <path id="Trazado_472" data-name="Trazado 472" d="M294.141,117a12.35,12.35,0,0,0-13.59,3.138.762.762,0,0,0,1.113,1.041,10.71,10.71,0,0,1,11.921-2.76,9.9,9.9,0,0,1,6.412,9.34.762.762,0,0,0,.762.759h0a.762.762,0,0,0,.759-.764A11.4,11.4,0,0,0,294.141,117Z" transform="translate(-264.558 -100.557)" fill="#6f3bed"/>
          <path id="Trazado_473" data-name="Trazado 473" d="M309.413,132.853a.761.761,0,1,0-1.514.159,4.787,4.787,0,0,1-4.381,5.192c-2.3.289-5.209-.9-5.84-5.19a5.933,5.933,0,0,0-6.765-5.347,6.366,6.366,0,0,0-5.9,6.835c.54,14.184,16.383,15.79,16.542,15.805.024,0,.047,0,.07,0a.762.762,0,0,0,.068-1.52c-.147-.013-14.669-1.484-15.16-14.368a4.887,4.887,0,0,1,4.543-5.241,4.437,4.437,0,0,1,5.1,4.054c.74,5.039,4.318,6.887,7.537,6.481A6.283,6.283,0,0,0,309.413,132.853Z" transform="translate(-266.798 -106.096)" fill="#6f3bed"/>
          <path id="Trazado_474" data-name="Trazado 474" d="M284.9,106.625c5.743,1.341,9.771,5.623,11.339,12.057a.762.762,0,0,0,1.48-.361c-1.712-7.019-6.141-11.7-12.471-13.178a19.938,19.938,0,0,0-19.325,6.636c-2.907,3.464-7.041,11.01-2.07,22.64a.762.762,0,1,0,1.4-.6c-3.447-8.064-2.8-15.544,1.836-21.061A18.379,18.379,0,0,1,284.9,106.625Z" transform="translate(-255.482 -95.029)" fill="#6f3bed"/>
          <path id="Trazado_475" data-name="Trazado 475" d="M291.535,129.312a17.347,17.347,0,0,1-3.337-.128.761.761,0,0,0-.21,1.508c.139.019.736.1,1.5.146l-8.705,5.05a4.328,4.328,0,0,0-2.156,3.743v1.538a.479.479,0,0,1-.719.416L255.211,128.54a7.715,7.715,0,0,1-3.832-6.653V104.112a7.714,7.714,0,0,1,3.832-6.653l15.259-8.852a7.707,7.707,0,0,1,7.719,0l7.379,4.281L289,94.88c3.8,2.421,5.9,4.828,7.035,7.407a17.737,17.737,0,0,1,1.269,7.1.845.845,0,0,0,.845.832h.01a.9.9,0,0,0,.881-1.007c-.025-.677-.07-1.342-.141-2a15.663,15.663,0,0,0-6.438-11.882,59.909,59.909,0,0,0-6.095-3.75l-7.41-4.3a9.249,9.249,0,0,0-9.259,0l-15.259,8.852a9.252,9.252,0,0,0-4.6,7.981v17.775a9.255,9.255,0,0,0,4.6,7.981l25,14.374a.477.477,0,0,0,.715-.414v-4.193a2.808,2.808,0,0,1,1.4-2.421l10.813-6.34A.927.927,0,0,0,291.535,129.312Z" transform="translate(-249.845 -86.038)" fill="#6f3bed"/>
        </g>
      </g>
    </g>
  </g>
</svg>
